%TF.GenerationSoftware,KiCad,Pcbnew,8.0.4*%
%TF.CreationDate,2024-11-27T18:51:44-06:00*%
%TF.ProjectId,TempReader_w_I2C.kicad_sch,54656d70-5265-4616-9465-725f775f4932,rev?*%
%TF.SameCoordinates,Original*%
%TF.FileFunction,Copper,L4,Bot*%
%TF.FilePolarity,Positive*%
%FSLAX46Y46*%
G04 Gerber Fmt 4.6, Leading zero omitted, Abs format (unit mm)*
G04 Created by KiCad (PCBNEW 8.0.4) date 2024-11-27 18:51:44*
%MOMM*%
%LPD*%
G01*
G04 APERTURE LIST*
%TA.AperFunction,ComponentPad*%
%ADD10R,1.700000X1.700000*%
%TD*%
%TA.AperFunction,ComponentPad*%
%ADD11O,1.700000X1.700000*%
%TD*%
%TA.AperFunction,ComponentPad*%
%ADD12C,1.030000*%
%TD*%
%TA.AperFunction,ViaPad*%
%ADD13C,0.600000*%
%TD*%
%TA.AperFunction,Conductor*%
%ADD14C,0.300000*%
%TD*%
%TA.AperFunction,Conductor*%
%ADD15C,0.200000*%
%TD*%
G04 APERTURE END LIST*
D10*
%TO.P,J2,1,Pin_1*%
%TO.N,unconnected-(J2-Pin_1-Pad1)*%
X169920000Y-73000000D03*
D11*
%TO.P,J2,2,Pin_2*%
%TO.N,unconnected-(J2-Pin_2-Pad2)*%
X172460000Y-73000000D03*
%TO.P,J2,3,Pin_3*%
%TO.N,I2C_SDA*%
X175000000Y-73000000D03*
%TO.P,J2,4,Pin_4*%
%TO.N,I2C_SCL*%
X177540000Y-73000000D03*
%TO.P,J2,5,Pin_5*%
%TO.N,GND1*%
X180080000Y-73000000D03*
%TO.P,J2,6,Pin_6*%
%TO.N,unconnected-(J2-Pin_6-Pad6)*%
X182620000Y-73000000D03*
%TO.P,J2,7,Pin_7*%
%TO.N,+3V3*%
X185160000Y-73000000D03*
%TD*%
D10*
%TO.P,UART1,1,Pin_1*%
%TO.N,UART_TX*%
X170000000Y-87000000D03*
D11*
%TO.P,UART1,2,Pin_2*%
%TO.N,UART_RX*%
X170000000Y-89540000D03*
%TO.P,UART1,3,Pin_3*%
%TO.N,GND1*%
X170000000Y-92080000D03*
%TD*%
D12*
%TO.P,Y1,1,1*%
%TO.N,Net-(NRF24L01+1-XC2)*%
X175325000Y-98875000D03*
%TO.P,Y1,2,2*%
%TO.N,Net-(NRF24L01+1-XC1)*%
X175325000Y-101375000D03*
%TD*%
D10*
%TO.P,J1,1,Pin_1*%
%TO.N,NRF_IRQ*%
X160275000Y-94620000D03*
D11*
%TO.P,J1,2,Pin_2*%
%TO.N,SPI_MOSI*%
X157735000Y-94620000D03*
%TO.P,J1,3,Pin_3*%
%TO.N,CS_NRF*%
X160275000Y-92080000D03*
%TO.P,J1,4,Pin_4*%
%TO.N,+3V3*%
X157735000Y-92080000D03*
%TO.P,J1,5,Pin_5*%
%TO.N,GND1*%
X160275000Y-89540000D03*
%TO.P,J1,6,Pin_6*%
%TO.N,NRF_CE*%
X157735000Y-89540000D03*
%TO.P,J1,7,Pin_7*%
%TO.N,SPI_SCK*%
X160275000Y-87000000D03*
%TO.P,J1,8,Pin_8*%
%TO.N,SPI_MISO*%
X157735000Y-87000000D03*
%TD*%
D10*
%TO.P,NotSure1,1,Pin_1*%
%TO.N,unconnected-(NotSure1-Pin_1-Pad1)*%
X192250000Y-103700000D03*
D11*
%TO.P,NotSure1,2,Pin_2*%
%TO.N,NRST*%
X192250000Y-101160000D03*
%TO.P,NotSure1,3,Pin_3*%
%TO.N,SW_DIO*%
X192250000Y-98620000D03*
%TO.P,NotSure1,4,Pin_4*%
%TO.N,GND1*%
X192250000Y-96080000D03*
%TO.P,NotSure1,5,Pin_5*%
%TO.N,SW_CLK*%
X192250000Y-93540000D03*
%TO.P,NotSure1,6,Pin_6*%
%TO.N,+3V3*%
X192250000Y-91000000D03*
%TD*%
D13*
%TO.N,+3V3*%
X164350000Y-83025000D03*
X186000000Y-85000000D03*
X185075000Y-99125000D03*
X164300000Y-76975000D03*
X172000000Y-83000000D03*
X168000000Y-78000000D03*
X176250000Y-87250000D03*
X173000000Y-93400000D03*
X165000000Y-92000000D03*
X187000000Y-75000000D03*
X182000000Y-90000000D03*
X183890000Y-101925000D03*
X177550000Y-98500000D03*
X190720000Y-80030000D03*
%TO.N,GND1*%
X160350000Y-82025000D03*
X176800000Y-99000000D03*
X177180000Y-105820000D03*
X184000000Y-76000000D03*
X184800000Y-96600000D03*
X188025000Y-102225000D03*
X170000000Y-79000000D03*
X188480000Y-96830000D03*
X162300000Y-75975000D03*
X189325000Y-101375000D03*
X167740000Y-100430000D03*
X162000000Y-89000000D03*
X181250000Y-91350000D03*
X189000000Y-83000000D03*
X184915000Y-106045000D03*
X182974904Y-102710000D03*
X168190000Y-91160000D03*
%TO.N,SPI_SCK*%
X178700000Y-89100000D03*
X176000000Y-92000000D03*
X162500000Y-87500000D03*
X181653296Y-96581318D03*
%TO.N,SPI_MOSI*%
X178000000Y-92000000D03*
X173100000Y-96990000D03*
%TO.N,CS_NRF*%
X181315380Y-82234620D03*
X172000000Y-93400000D03*
%TO.N,NRF_CE*%
X183240380Y-96440380D03*
X175200000Y-88200000D03*
%TO.N,SPI_MISO*%
X177000000Y-92000000D03*
X156300000Y-96300000D03*
X177083568Y-96297120D03*
%TO.N,NRF_IRQ*%
X164460000Y-96897120D03*
X178300000Y-98087500D03*
X183000000Y-88000000D03*
%TO.N,I2C_SDA*%
X184000000Y-82000000D03*
X177000000Y-80000000D03*
%TO.N,NRST*%
X190250000Y-101000000D03*
X168000000Y-83000000D03*
%TD*%
D14*
%TO.N,+3V3*%
X157735000Y-92080000D02*
X157735000Y-92156296D01*
%TO.N,SPI_SCK*%
X176000000Y-92000000D02*
X173400000Y-94600000D01*
X162750000Y-87500000D02*
X162500000Y-87500000D01*
X173400000Y-94600000D02*
X169850000Y-94600000D01*
X169850000Y-94600000D02*
X162750000Y-87500000D01*
X178700000Y-89100000D02*
X178700000Y-89200000D01*
X178700000Y-93628022D02*
X178700000Y-89100000D01*
X181653296Y-96581318D02*
X178700000Y-93628022D01*
%TO.N,SPI_MOSI*%
X177352880Y-96947120D02*
X178000000Y-96300000D01*
X178000000Y-96300000D02*
X178000000Y-92000000D01*
X173100000Y-96990000D02*
X173142880Y-96947120D01*
X173142880Y-96947120D02*
X177352880Y-96947120D01*
%TO.N,CS_NRF*%
X176900000Y-86600000D02*
X175880761Y-86600000D01*
X181265380Y-82234620D02*
X176900000Y-86600000D01*
X172000000Y-90480761D02*
X172000000Y-93400000D01*
X175880761Y-86600000D02*
X172000000Y-90480761D01*
X181315380Y-82234620D02*
X181265380Y-82234620D01*
%TO.N,NRF_CE*%
X180300000Y-93300000D02*
X180300000Y-88200000D01*
X183240380Y-96240380D02*
X180300000Y-93300000D01*
X180300000Y-88200000D02*
X175200000Y-88200000D01*
X183240380Y-96440380D02*
X183240380Y-96240380D01*
D15*
%TO.N,SPI_MISO*%
X177083568Y-96297120D02*
X177002880Y-96216432D01*
X156402880Y-96297120D02*
X156400000Y-96300000D01*
X156300000Y-96300000D02*
X156300000Y-96400000D01*
X156400000Y-96300000D02*
X156300000Y-96300000D01*
X177083568Y-96297120D02*
X156402880Y-96297120D01*
X177002880Y-96216432D02*
X177002880Y-92002880D01*
X156300000Y-96400000D02*
X156300000Y-96400000D01*
X177002880Y-92002880D02*
X177000000Y-92000000D01*
D14*
%TO.N,NRF_IRQ*%
X165312880Y-97750000D02*
X177962500Y-97750000D01*
X178300000Y-98087500D02*
X182512500Y-98087500D01*
X177962500Y-97750000D02*
X178300000Y-98087500D01*
X183900000Y-96700000D02*
X183900000Y-88900000D01*
X183900000Y-88900000D02*
X183000000Y-88000000D01*
X182512500Y-98087500D02*
X183900000Y-96700000D01*
X164460000Y-96897120D02*
X165312880Y-97750000D01*
X178300000Y-98000000D02*
X178300000Y-98087500D01*
%TO.N,I2C_SDA*%
X182000000Y-80000000D02*
X184000000Y-82000000D01*
X177000000Y-80000000D02*
X182000000Y-80000000D01*
%TO.N,NRST*%
X190250000Y-90250000D02*
X181000000Y-81000000D01*
X190250000Y-101000000D02*
X190250000Y-90250000D01*
X181000000Y-81000000D02*
X171000000Y-81000000D01*
X171000000Y-81000000D02*
X169000000Y-83000000D01*
X169000000Y-83000000D02*
X168000000Y-83000000D01*
%TD*%
M02*
