%TF.GenerationSoftware,KiCad,Pcbnew,8.0.4*%
%TF.CreationDate,2024-11-27T18:51:44-06:00*%
%TF.ProjectId,TempReader_w_I2C.kicad_sch,54656d70-5265-4616-9465-725f775f4932,rev?*%
%TF.SameCoordinates,Original*%
%TF.FileFunction,Copper,L1,Top*%
%TF.FilePolarity,Positive*%
%FSLAX46Y46*%
G04 Gerber Fmt 4.6, Leading zero omitted, Abs format (unit mm)*
G04 Created by KiCad (PCBNEW 8.0.4) date 2024-11-27 18:51:44*
%MOMM*%
%LPD*%
G01*
G04 APERTURE LIST*
G04 Aperture macros list*
%AMRoundRect*
0 Rectangle with rounded corners*
0 $1 Rounding radius*
0 $2 $3 $4 $5 $6 $7 $8 $9 X,Y pos of 4 corners*
0 Add a 4 corners polygon primitive as box body*
4,1,4,$2,$3,$4,$5,$6,$7,$8,$9,$2,$3,0*
0 Add four circle primitives for the rounded corners*
1,1,$1+$1,$2,$3*
1,1,$1+$1,$4,$5*
1,1,$1+$1,$6,$7*
1,1,$1+$1,$8,$9*
0 Add four rect primitives between the rounded corners*
20,1,$1+$1,$2,$3,$4,$5,0*
20,1,$1+$1,$4,$5,$6,$7,0*
20,1,$1+$1,$6,$7,$8,$9,0*
20,1,$1+$1,$8,$9,$2,$3,0*%
G04 Aperture macros list end*
%TA.AperFunction,SMDPad,CuDef*%
%ADD10RoundRect,0.237500X0.237500X-0.300000X0.237500X0.300000X-0.237500X0.300000X-0.237500X-0.300000X0*%
%TD*%
%TA.AperFunction,SMDPad,CuDef*%
%ADD11RoundRect,0.062500X-0.062500X0.350000X-0.062500X-0.350000X0.062500X-0.350000X0.062500X0.350000X0*%
%TD*%
%TA.AperFunction,SMDPad,CuDef*%
%ADD12RoundRect,0.062500X-0.350000X0.062500X-0.350000X-0.062500X0.350000X-0.062500X0.350000X0.062500X0*%
%TD*%
%TA.AperFunction,HeatsinkPad*%
%ADD13R,2.500000X2.500000*%
%TD*%
%TA.AperFunction,SMDPad,CuDef*%
%ADD14RoundRect,0.160000X0.222500X0.160000X-0.222500X0.160000X-0.222500X-0.160000X0.222500X-0.160000X0*%
%TD*%
%TA.AperFunction,SMDPad,CuDef*%
%ADD15RoundRect,0.237500X-0.250000X-0.237500X0.250000X-0.237500X0.250000X0.237500X-0.250000X0.237500X0*%
%TD*%
%TA.AperFunction,SMDPad,CuDef*%
%ADD16RoundRect,0.237500X0.300000X0.237500X-0.300000X0.237500X-0.300000X-0.237500X0.300000X-0.237500X0*%
%TD*%
%TA.AperFunction,SMDPad,CuDef*%
%ADD17RoundRect,0.237500X0.250000X0.237500X-0.250000X0.237500X-0.250000X-0.237500X0.250000X-0.237500X0*%
%TD*%
%TA.AperFunction,SMDPad,CuDef*%
%ADD18RoundRect,0.155000X0.155000X-0.212500X0.155000X0.212500X-0.155000X0.212500X-0.155000X-0.212500X0*%
%TD*%
%TA.AperFunction,SMDPad,CuDef*%
%ADD19RoundRect,0.155000X-0.155000X0.212500X-0.155000X-0.212500X0.155000X-0.212500X0.155000X0.212500X0*%
%TD*%
%TA.AperFunction,ComponentPad*%
%ADD20R,1.700000X1.700000*%
%TD*%
%TA.AperFunction,ComponentPad*%
%ADD21O,1.700000X1.700000*%
%TD*%
%TA.AperFunction,SMDPad,CuDef*%
%ADD22RoundRect,0.125000X-0.625000X-0.125000X0.625000X-0.125000X0.625000X0.125000X-0.625000X0.125000X0*%
%TD*%
%TA.AperFunction,SMDPad,CuDef*%
%ADD23RoundRect,0.125000X-0.125000X-0.625000X0.125000X-0.625000X0.125000X0.625000X-0.125000X0.625000X0*%
%TD*%
%TA.AperFunction,SMDPad,CuDef*%
%ADD24RoundRect,0.155000X-0.212500X-0.155000X0.212500X-0.155000X0.212500X0.155000X-0.212500X0.155000X0*%
%TD*%
%TA.AperFunction,ComponentPad*%
%ADD25C,1.030000*%
%TD*%
%TA.AperFunction,SMDPad,CuDef*%
%ADD26RoundRect,0.237500X-0.237500X0.250000X-0.237500X-0.250000X0.237500X-0.250000X0.237500X0.250000X0*%
%TD*%
%TA.AperFunction,SMDPad,CuDef*%
%ADD27RoundRect,0.150000X-0.150000X0.512500X-0.150000X-0.512500X0.150000X-0.512500X0.150000X0.512500X0*%
%TD*%
%TA.AperFunction,SMDPad,CuDef*%
%ADD28R,0.500000X0.350000*%
%TD*%
%TA.AperFunction,SMDPad,CuDef*%
%ADD29RoundRect,0.160000X-0.222500X-0.160000X0.222500X-0.160000X0.222500X0.160000X-0.222500X0.160000X0*%
%TD*%
%TA.AperFunction,SMDPad,CuDef*%
%ADD30RoundRect,0.237500X0.237500X-0.250000X0.237500X0.250000X-0.237500X0.250000X-0.237500X-0.250000X0*%
%TD*%
%TA.AperFunction,SMDPad,CuDef*%
%ADD31RoundRect,0.237500X-0.237500X0.300000X-0.237500X-0.300000X0.237500X-0.300000X0.237500X0.300000X0*%
%TD*%
%TA.AperFunction,ViaPad*%
%ADD32C,0.600000*%
%TD*%
%TA.AperFunction,Conductor*%
%ADD33C,0.500000*%
%TD*%
%TA.AperFunction,Conductor*%
%ADD34C,0.200000*%
%TD*%
%TA.AperFunction,Conductor*%
%ADD35C,0.300000*%
%TD*%
%TA.AperFunction,Conductor*%
%ADD36C,0.203200*%
%TD*%
%TA.AperFunction,Conductor*%
%ADD37C,0.666600*%
%TD*%
%TA.AperFunction,Conductor*%
%ADD38C,1.333200*%
%TD*%
G04 APERTURE END LIST*
D10*
%TO.P,C9,1*%
%TO.N,+3V3*%
X170000000Y-81725000D03*
%TO.P,C9,2*%
%TO.N,GND1*%
X170000000Y-80000000D03*
%TD*%
D11*
%TO.P,NRF24L01+1,1,CE*%
%TO.N,NRF_CE*%
X182700000Y-97562500D03*
%TO.P,NRF24L01+1,2,CSN*%
%TO.N,CS_NRF*%
X182200000Y-97562500D03*
%TO.P,NRF24L01+1,3,SCK*%
%TO.N,SPI_SCK*%
X181700000Y-97562500D03*
%TO.P,NRF24L01+1,4,MOSI*%
%TO.N,SPI_MOSI*%
X181200000Y-97562500D03*
%TO.P,NRF24L01+1,5,MISO*%
%TO.N,SPI_MISO*%
X180700000Y-97562500D03*
D12*
%TO.P,NRF24L01+1,6,IRQ*%
%TO.N,NRF_IRQ*%
X179762500Y-98500000D03*
%TO.P,NRF24L01+1,7,VDD*%
%TO.N,+3V3*%
X179762500Y-99000000D03*
%TO.P,NRF24L01+1,8,VSS*%
%TO.N,GND1*%
X179762500Y-99500000D03*
%TO.P,NRF24L01+1,9,XC2*%
%TO.N,Net-(NRF24L01+1-XC2)*%
X179762500Y-100000000D03*
%TO.P,NRF24L01+1,10,XC1*%
%TO.N,Net-(NRF24L01+1-XC1)*%
X179762500Y-100500000D03*
D11*
%TO.P,NRF24L01+1,11,VDD_PA*%
%TO.N,Net-(NRF24L01+1-VDD_PA)*%
X180700000Y-101437500D03*
%TO.P,NRF24L01+1,12,ANT1*%
%TO.N,Net-(NRF24L01+1-ANT1)*%
X181200000Y-101437500D03*
%TO.P,NRF24L01+1,13,ANT2*%
%TO.N,Net-(NRF24L01+1-ANT2)*%
X181700000Y-101437500D03*
%TO.P,NRF24L01+1,14,VSS*%
%TO.N,GND1*%
X182200000Y-101437500D03*
%TO.P,NRF24L01+1,15,VDD*%
%TO.N,+3V3*%
X182700000Y-101437500D03*
D12*
%TO.P,NRF24L01+1,16,IREF*%
%TO.N,Net-(NRF24L01+1-IREF)*%
X183637500Y-100500000D03*
%TO.P,NRF24L01+1,17,VSS*%
%TO.N,GND1*%
X183637500Y-100000000D03*
%TO.P,NRF24L01+1,18,VDD*%
%TO.N,+3V3*%
X183637500Y-99500000D03*
%TO.P,NRF24L01+1,19,DVDD*%
%TO.N,Net-(NRF24L01+1-DVDD)*%
X183637500Y-99000000D03*
%TO.P,NRF24L01+1,20,VSS*%
%TO.N,GND1*%
X183637500Y-98500000D03*
D13*
%TO.P,NRF24L01+1,21*%
%TO.N,N/C*%
X181700000Y-99500000D03*
%TD*%
D14*
%TO.P,L2,1,1*%
%TO.N,Net-(NRF24L01+1-ANT1)*%
X180475000Y-103740000D03*
%TO.P,L2,2,2*%
%TO.N,Net-(NRF24L01+1-VDD_PA)*%
X179330000Y-103740000D03*
%TD*%
D15*
%TO.P,R1,1*%
%TO.N,Net-(NRF24L01+1-IREF)*%
X187500000Y-100125000D03*
%TO.P,R1,2*%
%TO.N,GND1*%
X189325000Y-100125000D03*
%TD*%
D16*
%TO.P,C4,1*%
%TO.N,+3V3*%
X189600000Y-85087500D03*
%TO.P,C4,2*%
%TO.N,GND1*%
X187875000Y-85087500D03*
%TD*%
D17*
%TO.P,R5,1*%
%TO.N,Net-(STM32F030R8-BOOT0)*%
X174912500Y-80000000D03*
%TO.P,R5,2*%
%TO.N,GND1*%
X173087500Y-80000000D03*
%TD*%
D16*
%TO.P,C1,1*%
%TO.N,+3V3*%
X164125000Y-82075000D03*
%TO.P,C1,2*%
%TO.N,GND1*%
X162400000Y-82075000D03*
%TD*%
%TO.P,C3,1*%
%TO.N,GND1*%
X186825000Y-101925000D03*
%TO.P,C3,2*%
%TO.N,+3V3*%
X185100000Y-101925000D03*
%TD*%
D18*
%TO.P,C11,1*%
%TO.N,GND1*%
X178360000Y-106295000D03*
%TO.P,C11,2*%
%TO.N,Net-(NRF24L01+1-VDD_PA)*%
X178360000Y-105160000D03*
%TD*%
D19*
%TO.P,C5,1*%
%TO.N,Net-(C12-Pad1)*%
X183200000Y-105050000D03*
%TO.P,C5,2*%
%TO.N,50 O out*%
X183200000Y-106185000D03*
%TD*%
D20*
%TO.P,J2,1,Pin_1*%
%TO.N,unconnected-(J2-Pin_1-Pad1)*%
X169920000Y-73000000D03*
D21*
%TO.P,J2,2,Pin_2*%
%TO.N,unconnected-(J2-Pin_2-Pad2)*%
X172460000Y-73000000D03*
%TO.P,J2,3,Pin_3*%
%TO.N,I2C_SDA*%
X175000000Y-73000000D03*
%TO.P,J2,4,Pin_4*%
%TO.N,I2C_SCL*%
X177540000Y-73000000D03*
%TO.P,J2,5,Pin_5*%
%TO.N,GND1*%
X180080000Y-73000000D03*
%TO.P,J2,6,Pin_6*%
%TO.N,unconnected-(J2-Pin_6-Pad6)*%
X182620000Y-73000000D03*
%TO.P,J2,7,Pin_7*%
%TO.N,+3V3*%
X185160000Y-73000000D03*
%TD*%
D16*
%TO.P,C13,1*%
%TO.N,GND1*%
X187325000Y-97875000D03*
%TO.P,C13,2*%
%TO.N,Net-(NRF24L01+1-DVDD)*%
X185600000Y-97875000D03*
%TD*%
D15*
%TO.P,R9,1*%
%TO.N,+3V3*%
X172795000Y-76000000D03*
%TO.P,R9,2*%
%TO.N,I2C_SDA*%
X174620000Y-76000000D03*
%TD*%
D22*
%TO.P,STM32F030R8,1,VDD*%
%TO.N,+3V3*%
X173425000Y-83375000D03*
%TO.P,STM32F030R8,2,PF0*%
%TO.N,unconnected-(STM32F030R8-PF0-Pad2)*%
X173425000Y-84175000D03*
%TO.P,STM32F030R8,3,PF1*%
%TO.N,unconnected-(STM32F030R8-PF1-Pad3)*%
X173425000Y-84975000D03*
%TO.P,STM32F030R8,4,NRST*%
%TO.N,NRST*%
X173425000Y-85775000D03*
%TO.P,STM32F030R8,5,VDDA*%
%TO.N,+3V3*%
X173425000Y-86575000D03*
%TO.P,STM32F030R8,6,PA0*%
%TO.N,unconnected-(STM32F030R8-PA0-Pad6)*%
X173425000Y-87375000D03*
%TO.P,STM32F030R8,7,PA1*%
%TO.N,NRF_CE*%
X173425000Y-88175000D03*
%TO.P,STM32F030R8,8,PA2*%
%TO.N,UART_TX*%
X173425000Y-88975000D03*
D23*
%TO.P,STM32F030R8,9,PA3*%
%TO.N,UART_RX*%
X174800000Y-90350000D03*
%TO.P,STM32F030R8,10,PA4*%
%TO.N,unconnected-(STM32F030R8-PA4-Pad10)*%
X175600000Y-90350000D03*
%TO.P,STM32F030R8,11,PA5*%
%TO.N,SPI_SCK*%
X176400000Y-90350000D03*
%TO.P,STM32F030R8,12,PA6*%
%TO.N,SPI_MISO*%
X177200000Y-90350000D03*
%TO.P,STM32F030R8,13,PA7*%
%TO.N,SPI_MOSI*%
X178000000Y-90350000D03*
%TO.P,STM32F030R8,14,PB0*%
%TO.N,unconnected-(STM32F030R8-PB0-Pad14)*%
X178800000Y-90350000D03*
%TO.P,STM32F030R8,15,PB1*%
%TO.N,unconnected-(STM32F030R8-PB1-Pad15)*%
X179600000Y-90350000D03*
%TO.P,STM32F030R8,16,VSS*%
%TO.N,GND1*%
X180400000Y-90350000D03*
D22*
%TO.P,STM32F030R8,17,VDD*%
%TO.N,+3V3*%
X181775000Y-88975000D03*
%TO.P,STM32F030R8,18,PA8*%
%TO.N,NRF_IRQ*%
X181775000Y-88175000D03*
%TO.P,STM32F030R8,19,PA9*%
%TO.N,unconnected-(STM32F030R8-PA9-Pad19)*%
X181775000Y-87375000D03*
%TO.P,STM32F030R8,20,PA10*%
%TO.N,unconnected-(STM32F030R8-PA10-Pad20)*%
X181775000Y-86575000D03*
%TO.P,STM32F030R8,21,PA11*%
%TO.N,unconnected-(STM32F030R8-PA11-Pad21)*%
X181775000Y-85775000D03*
%TO.P,STM32F030R8,22,PA12*%
%TO.N,unconnected-(STM32F030R8-PA12-Pad22)*%
X181775000Y-84975000D03*
%TO.P,STM32F030R8,23,PA13*%
%TO.N,SW_DIO*%
X181775000Y-84175000D03*
%TO.P,STM32F030R8,24,PA14*%
%TO.N,SW_CLK*%
X181775000Y-83375000D03*
D23*
%TO.P,STM32F030R8,25,PA15*%
%TO.N,CS_NRF*%
X180400000Y-82000000D03*
%TO.P,STM32F030R8,26,PB3*%
%TO.N,unconnected-(STM32F030R8-PB3-Pad26)*%
X179600000Y-82000000D03*
%TO.P,STM32F030R8,27,PB4*%
%TO.N,unconnected-(STM32F030R8-PB4-Pad27)*%
X178800000Y-82000000D03*
%TO.P,STM32F030R8,28,PB5*%
%TO.N,unconnected-(STM32F030R8-PB5-Pad28)*%
X178000000Y-82000000D03*
%TO.P,STM32F030R8,29,PB6*%
%TO.N,I2C_SCL*%
X177200000Y-82000000D03*
%TO.P,STM32F030R8,30,PB7*%
%TO.N,I2C_SDA*%
X176400000Y-82000000D03*
%TO.P,STM32F030R8,31,BOOT0*%
%TO.N,Net-(STM32F030R8-BOOT0)*%
X175600000Y-82000000D03*
%TO.P,STM32F030R8,32,VSS*%
%TO.N,GND1*%
X174800000Y-82000000D03*
%TD*%
D16*
%TO.P,C2,1*%
%TO.N,+3V3*%
X164125000Y-80075000D03*
%TO.P,C2,2*%
%TO.N,GND1*%
X162400000Y-80075000D03*
%TD*%
D24*
%TO.P,C6,1*%
%TO.N,50 O out*%
X183205000Y-107440000D03*
%TO.P,C6,2*%
%TO.N,GND1*%
X184340000Y-107440000D03*
%TD*%
D20*
%TO.P,UART1,1,Pin_1*%
%TO.N,UART_TX*%
X170000000Y-87000000D03*
D21*
%TO.P,UART1,2,Pin_2*%
%TO.N,UART_RX*%
X170000000Y-89540000D03*
%TO.P,UART1,3,Pin_3*%
%TO.N,GND1*%
X170000000Y-92080000D03*
%TD*%
D25*
%TO.P,Y1,1,1*%
%TO.N,Net-(NRF24L01+1-XC2)*%
X175325000Y-98875000D03*
%TO.P,Y1,2,2*%
%TO.N,Net-(NRF24L01+1-XC1)*%
X175325000Y-101375000D03*
%TD*%
D16*
%TO.P,C8,1*%
%TO.N,+3V3*%
X187000000Y-76000000D03*
%TO.P,C8,2*%
%TO.N,GND1*%
X185275000Y-76000000D03*
%TD*%
D18*
%TO.P,C10,1*%
%TO.N,GND1*%
X179590000Y-106245000D03*
%TO.P,C10,2*%
%TO.N,Net-(NRF24L01+1-VDD_PA)*%
X179590000Y-105110000D03*
%TD*%
D15*
%TO.P,R4,1*%
%TO.N,+3V3*%
X173087500Y-78000000D03*
%TO.P,R4,2*%
%TO.N,Net-(STM32F030R8-BOOT0)*%
X174912500Y-78000000D03*
%TD*%
D26*
%TO.P,R3,1*%
%TO.N,+3V3*%
X168000000Y-80000000D03*
%TO.P,R3,2*%
%TO.N,NRST*%
X168000000Y-81825000D03*
%TD*%
D27*
%TO.P,U5,1,IN*%
%TO.N,PowerIn*%
X163250000Y-74750000D03*
%TO.P,U5,2,GND*%
%TO.N,GND1*%
X162300000Y-74750000D03*
%TO.P,U5,3,EN*%
%TO.N,PowerIn*%
X161350000Y-74750000D03*
%TO.P,U5,4,BP*%
%TO.N,unconnected-(U5-BP-Pad4)*%
X161350000Y-77025000D03*
%TO.P,U5,5,OUT*%
%TO.N,+3V3*%
X163250000Y-77025000D03*
%TD*%
D14*
%TO.P,L3,1,1*%
%TO.N,Net-(C12-Pad1)*%
X182905000Y-103730000D03*
%TO.P,L3,2,2*%
%TO.N,Net-(NRF24L01+1-ANT2)*%
X181760000Y-103730000D03*
%TD*%
D28*
%TO.P,BME280,1,GND*%
%TO.N,GND1*%
X187825000Y-83037500D03*
%TO.P,BME280,2,CSB*%
%TO.N,unconnected-(BME280-CSB-Pad2)*%
X187825000Y-82387500D03*
%TO.P,BME280,3,SDI*%
%TO.N,I2C_SDA*%
X187825000Y-81737500D03*
%TO.P,BME280,4,SCK*%
%TO.N,I2C_SCL*%
X187825000Y-81087500D03*
%TO.P,BME280,5,SDO*%
%TO.N,unconnected-(BME280-SDO-Pad5)*%
X189875000Y-81087500D03*
%TO.P,BME280,6,VDDIO*%
%TO.N,+3V3*%
X189875000Y-81737500D03*
%TO.P,BME280,7,GND*%
%TO.N,GND1*%
X189875000Y-82387500D03*
%TO.P,BME280,8,VDD*%
%TO.N,+3V3*%
X189875000Y-83037500D03*
%TD*%
D29*
%TO.P,L1,1,1*%
%TO.N,Net-(NRF24L01+1-ANT1)*%
X180620000Y-102620000D03*
%TO.P,L1,2,2*%
%TO.N,Net-(NRF24L01+1-ANT2)*%
X181765000Y-102620000D03*
%TD*%
D17*
%TO.P,R11,1*%
%TO.N,+3V3*%
X165000000Y-93000000D03*
%TO.P,R11,2*%
%TO.N,CS_NRF*%
X163175000Y-93000000D03*
%TD*%
D24*
%TO.P,C12,1*%
%TO.N,Net-(C12-Pad1)*%
X184385000Y-105060000D03*
%TO.P,C12,2*%
%TO.N,GND1*%
X185520000Y-105060000D03*
%TD*%
D20*
%TO.P,J1,1,Pin_1*%
%TO.N,NRF_IRQ*%
X160275000Y-94620000D03*
D21*
%TO.P,J1,2,Pin_2*%
%TO.N,SPI_MOSI*%
X157735000Y-94620000D03*
%TO.P,J1,3,Pin_3*%
%TO.N,CS_NRF*%
X160275000Y-92080000D03*
%TO.P,J1,4,Pin_4*%
%TO.N,+3V3*%
X157735000Y-92080000D03*
%TO.P,J1,5,Pin_5*%
%TO.N,GND1*%
X160275000Y-89540000D03*
%TO.P,J1,6,Pin_6*%
%TO.N,NRF_CE*%
X157735000Y-89540000D03*
%TO.P,J1,7,Pin_7*%
%TO.N,SPI_SCK*%
X160275000Y-87000000D03*
%TO.P,J1,8,Pin_8*%
%TO.N,SPI_MISO*%
X157735000Y-87000000D03*
%TD*%
D30*
%TO.P,R7,1*%
%TO.N,+3V3*%
X185825000Y-83825000D03*
%TO.P,R7,2*%
%TO.N,I2C_SDA*%
X185825000Y-82000000D03*
%TD*%
D26*
%TO.P,R8,1*%
%TO.N,+3V3*%
X174000000Y-94000000D03*
%TO.P,R8,2*%
%TO.N,CS_NRF*%
X174000000Y-95825000D03*
%TD*%
%TO.P,R2,1*%
%TO.N,Net-(NRF24L01+1-XC2)*%
X172280000Y-99435000D03*
%TO.P,R2,2*%
%TO.N,Net-(NRF24L01+1-XC1)*%
X172280000Y-101260000D03*
%TD*%
D17*
%TO.P,R6,1*%
%TO.N,+3V3*%
X189825000Y-79000000D03*
%TO.P,R6,2*%
%TO.N,I2C_SCL*%
X188000000Y-79000000D03*
%TD*%
D16*
%TO.P,C15,1*%
%TO.N,Net-(NRF24L01+1-XC1)*%
X170750000Y-101340000D03*
%TO.P,C15,2*%
%TO.N,GND1*%
X169025000Y-101340000D03*
%TD*%
%TO.P,C14,1*%
%TO.N,Net-(NRF24L01+1-XC2)*%
X170750000Y-99500000D03*
%TO.P,C14,2*%
%TO.N,GND1*%
X169025000Y-99500000D03*
%TD*%
D31*
%TO.P,C7,1*%
%TO.N,GND1*%
X163500000Y-89000000D03*
%TO.P,C7,2*%
%TO.N,+3V3*%
X163500000Y-90725000D03*
%TD*%
D17*
%TO.P,R10,1*%
%TO.N,+3V3*%
X181000000Y-76000000D03*
%TO.P,R10,2*%
%TO.N,I2C_SCL*%
X179175000Y-76000000D03*
%TD*%
D20*
%TO.P,NotSure1,1,Pin_1*%
%TO.N,unconnected-(NotSure1-Pin_1-Pad1)*%
X192250000Y-103700000D03*
D21*
%TO.P,NotSure1,2,Pin_2*%
%TO.N,NRST*%
X192250000Y-101160000D03*
%TO.P,NotSure1,3,Pin_3*%
%TO.N,SW_DIO*%
X192250000Y-98620000D03*
%TO.P,NotSure1,4,Pin_4*%
%TO.N,GND1*%
X192250000Y-96080000D03*
%TO.P,NotSure1,5,Pin_5*%
%TO.N,SW_CLK*%
X192250000Y-93540000D03*
%TO.P,NotSure1,6,Pin_6*%
%TO.N,+3V3*%
X192250000Y-91000000D03*
%TD*%
D32*
%TO.N,+3V3*%
X164350000Y-83025000D03*
X186000000Y-85000000D03*
X185075000Y-99125000D03*
X164300000Y-76975000D03*
X172000000Y-83000000D03*
X168000000Y-78000000D03*
X176250000Y-87250000D03*
X173000000Y-93400000D03*
X165000000Y-92000000D03*
X187000000Y-75000000D03*
X182000000Y-90000000D03*
X183890000Y-101925000D03*
X177550000Y-98500000D03*
X190720000Y-80030000D03*
%TO.N,GND1*%
X160350000Y-82025000D03*
X176800000Y-99000000D03*
X177180000Y-105820000D03*
X184000000Y-76000000D03*
X184800000Y-96600000D03*
X188025000Y-102225000D03*
X170000000Y-79000000D03*
X188480000Y-96830000D03*
X162300000Y-75975000D03*
X189325000Y-101375000D03*
X167740000Y-100430000D03*
X162000000Y-89000000D03*
X181250000Y-91350000D03*
X189000000Y-83000000D03*
X184915000Y-106045000D03*
X182974904Y-102710000D03*
X168190000Y-91160000D03*
%TO.N,SPI_SCK*%
X178700000Y-89100000D03*
X176000000Y-92000000D03*
X162500000Y-87500000D03*
X181653296Y-96581318D03*
%TO.N,SPI_MOSI*%
X178000000Y-92000000D03*
X173100000Y-96990000D03*
%TO.N,CS_NRF*%
X181315380Y-82234620D03*
X172000000Y-93400000D03*
%TO.N,NRF_CE*%
X183240380Y-96440380D03*
X175200000Y-88200000D03*
%TO.N,SPI_MISO*%
X177000000Y-92000000D03*
X156300000Y-96300000D03*
X177083568Y-96297120D03*
%TO.N,NRF_IRQ*%
X164460000Y-96897120D03*
X178300000Y-98087500D03*
X183000000Y-88000000D03*
%TO.N,I2C_SDA*%
X184000000Y-82000000D03*
X177000000Y-80000000D03*
%TO.N,NRST*%
X190250000Y-101000000D03*
X168000000Y-83000000D03*
%TD*%
D33*
%TO.N,GND1*%
X177560000Y-106200000D02*
X177180000Y-105820000D01*
X178060000Y-106200000D02*
X177560000Y-106200000D01*
X184340000Y-106620000D02*
X184915000Y-106045000D01*
X185520000Y-105440000D02*
X185520000Y-105060000D01*
X184915000Y-106045000D02*
X185520000Y-105440000D01*
D34*
%TO.N,Net-(C12-Pad1)*%
X184375000Y-105050000D02*
X184385000Y-105060000D01*
X183200000Y-105050000D02*
X184375000Y-105050000D01*
D33*
%TO.N,+3V3*%
X183255000Y-101925000D02*
X185100000Y-101925000D01*
X182860000Y-101530000D02*
X183255000Y-101925000D01*
%TO.N,GND1*%
X183620000Y-97780000D02*
X183620000Y-98360000D01*
X184800000Y-96600000D02*
X183620000Y-97780000D01*
D35*
%TO.N,+3V3*%
X189600000Y-85087500D02*
X189600000Y-83312500D01*
X190720000Y-80030000D02*
X190720000Y-81367500D01*
X164000000Y-91000000D02*
X165000000Y-92000000D01*
D33*
X176250000Y-87250000D02*
X175575000Y-86575000D01*
D35*
X186412568Y-85000000D02*
X187412568Y-86000000D01*
D33*
X174000000Y-94000000D02*
X173600000Y-94000000D01*
X163250000Y-79200000D02*
X163250000Y-77025000D01*
D35*
X187412568Y-86000000D02*
X188687500Y-86000000D01*
X190720000Y-81367500D02*
X190350000Y-81737500D01*
D33*
X164125000Y-80075000D02*
X164125000Y-82075000D01*
X182000000Y-89000000D02*
X182000000Y-90000000D01*
D36*
X184950000Y-99250000D02*
X185075000Y-99125000D01*
D35*
X190720000Y-79895000D02*
X189825000Y-79000000D01*
D33*
X173087500Y-78000000D02*
X173077500Y-78010000D01*
X172000000Y-83000000D02*
X172375000Y-83375000D01*
D35*
X190720000Y-80030000D02*
X190720000Y-79895000D01*
X187000000Y-75000000D02*
X187000000Y-76000000D01*
D33*
X173077500Y-78010000D02*
X168010000Y-78010000D01*
D34*
X181975000Y-88975000D02*
X182000000Y-89000000D01*
X183890000Y-101925000D02*
X185100000Y-101925000D01*
D35*
X170162500Y-81875000D02*
X170000000Y-81712500D01*
D36*
X184950000Y-99500000D02*
X184950000Y-99250000D01*
D33*
X170000000Y-81725000D02*
X170725000Y-81725000D01*
X164350000Y-83025000D02*
X164350000Y-82300000D01*
X173087500Y-76292500D02*
X172795000Y-76000000D01*
D35*
X164300000Y-76975000D02*
X164250000Y-77025000D01*
X179762500Y-99000000D02*
X177950000Y-99000000D01*
X185000000Y-73160000D02*
X185160000Y-73000000D01*
X185825000Y-83825000D02*
X185825000Y-84412432D01*
D33*
X168010000Y-78010000D02*
X168000000Y-78000000D01*
D35*
X188687500Y-86000000D02*
X189600000Y-85087500D01*
X186000000Y-84587432D02*
X186000000Y-85000000D01*
D33*
X168000000Y-78000000D02*
X168000000Y-80000000D01*
D35*
X185825000Y-84412432D02*
X186000000Y-84587432D01*
D33*
X170725000Y-81725000D02*
X172000000Y-83000000D01*
D35*
X190350000Y-81737500D02*
X189875000Y-81737500D01*
X163775000Y-91000000D02*
X163500000Y-90725000D01*
D33*
X164125000Y-80075000D02*
X163250000Y-79200000D01*
D35*
X165000000Y-93000000D02*
X165000000Y-92000000D01*
X183637500Y-99500000D02*
X184950000Y-99500000D01*
D34*
X181775000Y-88975000D02*
X181975000Y-88975000D01*
D33*
X175575000Y-86575000D02*
X173425000Y-86575000D01*
X172375000Y-83375000D02*
X173425000Y-83375000D01*
D34*
X182700000Y-101437500D02*
X182717500Y-101420000D01*
D33*
X173087500Y-78000000D02*
X173087500Y-76292500D01*
D35*
X185160000Y-73000000D02*
X185160000Y-73160000D01*
X189600000Y-83312500D02*
X189875000Y-83037500D01*
X164000000Y-91000000D02*
X163775000Y-91000000D01*
D33*
X163250000Y-77025000D02*
X164300000Y-76975000D01*
D35*
X181825000Y-76825000D02*
X186175000Y-76825000D01*
D34*
X182700000Y-101437500D02*
X182797500Y-101437500D01*
D33*
X173600000Y-94000000D02*
X173000000Y-93400000D01*
D35*
X177950000Y-99000000D02*
X177575000Y-98625000D01*
X186000000Y-85000000D02*
X186412568Y-85000000D01*
X181000000Y-76000000D02*
X181825000Y-76825000D01*
X164350000Y-82300000D02*
X164125000Y-82075000D01*
X186175000Y-76825000D02*
X187000000Y-76000000D01*
%TO.N,GND1*%
X182200000Y-101935096D02*
X182974904Y-102710000D01*
X187825000Y-83037500D02*
X188037500Y-83037500D01*
X189000000Y-82712500D02*
X189325000Y-82387500D01*
X188712500Y-83000000D02*
X189000000Y-83000000D01*
X167740000Y-100410000D02*
X168650000Y-99500000D01*
D33*
X178410000Y-106245000D02*
X178360000Y-106295000D01*
D36*
X162000000Y-89000000D02*
X163500000Y-89000000D01*
D33*
X160400000Y-82075000D02*
X162400000Y-82075000D01*
D35*
X187325000Y-97875000D02*
X187435000Y-97875000D01*
X187325000Y-98125000D02*
X187325000Y-97875000D01*
D33*
X180650000Y-90750000D02*
X180750000Y-90850000D01*
D34*
X168650000Y-99500000D02*
X169025000Y-99500000D01*
D33*
X170000000Y-92080000D02*
X169080000Y-91160000D01*
D35*
X183637500Y-100000000D02*
X185700000Y-100000000D01*
X160735000Y-90000000D02*
X160275000Y-89540000D01*
X182200000Y-101437500D02*
X182200000Y-101935096D01*
X160815000Y-89000000D02*
X160275000Y-89540000D01*
X189000000Y-83000000D02*
X189000000Y-82712500D01*
X188037500Y-83037500D02*
X188356250Y-83356250D01*
D33*
X170000000Y-80000000D02*
X173087500Y-80000000D01*
D35*
X187875000Y-85087500D02*
X187875000Y-83837500D01*
D34*
X169025000Y-101340000D02*
X168570000Y-101340000D01*
D33*
X179545000Y-106200000D02*
X179590000Y-106245000D01*
D35*
X160350000Y-82025000D02*
X160400000Y-82075000D01*
X162400000Y-80075000D02*
X162350000Y-80025000D01*
X182990000Y-102710000D02*
X182974904Y-102710000D01*
X188356250Y-83356250D02*
X188712500Y-83000000D01*
X168570000Y-101340000D02*
X167690000Y-100460000D01*
X187875000Y-83837500D02*
X188356250Y-83356250D01*
X189325000Y-82387500D02*
X189875000Y-82387500D01*
D33*
X180750000Y-90850000D02*
X181250000Y-91350000D01*
D34*
X167740000Y-100430000D02*
X167740000Y-100410000D01*
D33*
X186825000Y-101925000D02*
X187725000Y-101925000D01*
D35*
X185700000Y-100000000D02*
X187450000Y-98250000D01*
D34*
X178360000Y-106295000D02*
X178360000Y-106500000D01*
D35*
X189325000Y-100125000D02*
X187450000Y-98250000D01*
X187435000Y-97875000D02*
X188480000Y-96830000D01*
D33*
X179590000Y-106245000D02*
X178410000Y-106245000D01*
X174800000Y-81712500D02*
X173087500Y-80000000D01*
D35*
X184800000Y-96600000D02*
X184700000Y-96500000D01*
D33*
X169080000Y-91160000D02*
X168190000Y-91160000D01*
D35*
X189325000Y-100125000D02*
X189325000Y-101375000D01*
X187450000Y-98250000D02*
X187325000Y-98125000D01*
D33*
X170000000Y-80000000D02*
X170000000Y-79000000D01*
X185275000Y-76000000D02*
X184000000Y-76000000D01*
X162350000Y-80025000D02*
X162350000Y-74300000D01*
D35*
X162350000Y-76025000D02*
X162300000Y-75975000D01*
D33*
X162400000Y-80075000D02*
X162400000Y-82075000D01*
D35*
X177200000Y-99500000D02*
X176825000Y-99125000D01*
X179762500Y-99500000D02*
X177200000Y-99500000D01*
D33*
X174800000Y-82000000D02*
X174800000Y-81712500D01*
D34*
X167720000Y-100430000D02*
X167740000Y-100430000D01*
D33*
X184340000Y-107440000D02*
X184340000Y-106620000D01*
D34*
X167690000Y-100460000D02*
X167720000Y-100430000D01*
D33*
X187725000Y-101925000D02*
X188025000Y-102225000D01*
D37*
%TO.N,50 O out*%
X183195000Y-107405000D02*
X183195000Y-108880000D01*
D34*
X183200000Y-107435000D02*
X183205000Y-107440000D01*
D38*
X188220000Y-108880000D02*
X188220000Y-113880000D01*
D34*
X183200000Y-106185000D02*
X183200000Y-107435000D01*
D38*
X188220000Y-108880000D02*
X183220000Y-108880000D01*
X188220000Y-113880000D02*
X167155300Y-113880000D01*
D35*
%TO.N,SPI_SCK*%
X162500000Y-87500000D02*
X160775000Y-87500000D01*
X176400000Y-90350000D02*
X176400000Y-89600001D01*
X176000000Y-92000000D02*
X176400000Y-91600000D01*
X176900001Y-89100000D02*
X178700000Y-89100000D01*
X160775000Y-87500000D02*
X160275000Y-87000000D01*
X176400000Y-89600001D02*
X176900001Y-89100000D01*
X176400000Y-91600000D02*
X176400000Y-90350000D01*
X181700000Y-97562500D02*
X181700000Y-96700000D01*
%TO.N,SPI_MOSI*%
X178000000Y-90350000D02*
X178000000Y-92000000D01*
X172350000Y-97740000D02*
X158740000Y-97740000D01*
X181200000Y-97064904D02*
X181200000Y-97562500D01*
X179735096Y-95600000D02*
X181200000Y-97064904D01*
X173100000Y-96990000D02*
X172350000Y-97740000D01*
X174410000Y-96990000D02*
X175800000Y-95600000D01*
X173100000Y-96990000D02*
X174410000Y-96990000D01*
X157735000Y-96735000D02*
X157735000Y-94620000D01*
X158740000Y-97740000D02*
X157735000Y-96735000D01*
X175800000Y-95600000D02*
X179735096Y-95600000D01*
%TO.N,CS_NRF*%
X165175000Y-95000000D02*
X163175000Y-93000000D01*
X182400000Y-96200000D02*
X182400000Y-96864904D01*
X161195000Y-93000000D02*
X160275000Y-92080000D01*
X173175000Y-95000000D02*
X173000000Y-95000000D01*
X182400000Y-96864904D02*
X182200000Y-97064904D01*
X165175000Y-95000000D02*
X172000000Y-95000000D01*
X174000000Y-95825000D02*
X173175000Y-95000000D01*
X174825000Y-95000000D02*
X181200000Y-95000000D01*
X172000000Y-93400000D02*
X172000000Y-95000000D01*
X163175000Y-93000000D02*
X161195000Y-93000000D01*
X182200000Y-97064904D02*
X182200000Y-97562500D01*
X181200000Y-95000000D02*
X182400000Y-96200000D01*
X173000000Y-95000000D02*
X172000000Y-95000000D01*
X174000000Y-95825000D02*
X174825000Y-95000000D01*
D33*
X180634620Y-82234620D02*
X180400000Y-82000000D01*
X181315380Y-82234620D02*
X180634620Y-82234620D01*
D35*
%TO.N,NRF_CE*%
X157735000Y-88832894D02*
X157735000Y-89540000D01*
X159000000Y-87567894D02*
X157735000Y-88832894D01*
X182700000Y-97400000D02*
X182700000Y-97562500D01*
X183240380Y-96440380D02*
X183240380Y-96859620D01*
X168000000Y-85500000D02*
X159250000Y-85500000D01*
X159000000Y-85750000D02*
X159000000Y-87567894D01*
X173425000Y-88175000D02*
X175175000Y-88175000D01*
X159250000Y-85500000D02*
X159000000Y-85750000D01*
X171500000Y-87500000D02*
X171500000Y-85500000D01*
X175175000Y-88175000D02*
X175200000Y-88200000D01*
X183240380Y-96859620D02*
X182700000Y-97400000D01*
X172175000Y-88175000D02*
X171500000Y-87500000D01*
X171500000Y-85500000D02*
X168000000Y-85500000D01*
X173425000Y-88175000D02*
X172175000Y-88175000D01*
%TO.N,SPI_MISO*%
X179434620Y-96297120D02*
X177083568Y-96297120D01*
X180700000Y-97562500D02*
X179434620Y-96297120D01*
X177200000Y-90350000D02*
X177200000Y-91800000D01*
X156250000Y-88485000D02*
X156250000Y-96250000D01*
X157735000Y-87000000D02*
X156250000Y-88485000D01*
X177200000Y-91800000D02*
X177000000Y-92000000D01*
X156250000Y-96250000D02*
X156300000Y-96300000D01*
%TO.N,NRF_IRQ*%
X179759300Y-98496800D02*
X179762500Y-98496800D01*
X161620000Y-94620000D02*
X160275000Y-94620000D01*
X178325000Y-98212500D02*
X179475000Y-98212500D01*
X181775000Y-88175000D02*
X182825000Y-88175000D01*
X182825000Y-88175000D02*
X183000000Y-88000000D01*
X163897120Y-96897120D02*
X161620000Y-94620000D01*
X179475000Y-98212500D02*
X179759300Y-98496800D01*
X164460000Y-96897120D02*
X163897120Y-96897120D01*
%TO.N,I2C_SDA*%
X176400000Y-77780000D02*
X176400000Y-80000000D01*
X186087500Y-81737500D02*
X187825000Y-81737500D01*
X185825000Y-82000000D02*
X186087500Y-81737500D01*
X174620000Y-76000000D02*
X176400000Y-77780000D01*
X185825000Y-82000000D02*
X184000000Y-82000000D01*
X177000000Y-80000000D02*
X176400000Y-80000000D01*
X176400000Y-80000000D02*
X176400000Y-82000000D01*
X174620000Y-73380000D02*
X175000000Y-73000000D01*
X174620000Y-76000000D02*
X174620000Y-73380000D01*
%TO.N,I2C_SCL*%
X180500000Y-79000000D02*
X179250000Y-80250000D01*
X179750000Y-76575000D02*
X179750000Y-78250000D01*
X178324784Y-80250000D02*
X177200000Y-81374784D01*
X179250000Y-80250000D02*
X178324784Y-80250000D01*
X179750000Y-78250000D02*
X180500000Y-79000000D01*
X179175000Y-74635000D02*
X177540000Y-73000000D01*
X188000000Y-79000000D02*
X188000000Y-80912500D01*
X179175000Y-76000000D02*
X179750000Y-76575000D01*
X179175000Y-76000000D02*
X179175000Y-74635000D01*
X188000000Y-80912500D02*
X187825000Y-81087500D01*
X177200000Y-81374784D02*
X177200000Y-82000000D01*
X180500000Y-79000000D02*
X188000000Y-79000000D01*
%TO.N,SW_CLK*%
X190500000Y-90447057D02*
X183427943Y-83375000D01*
X190500000Y-93000000D02*
X190500000Y-90447057D01*
X193000000Y-93540000D02*
X191040000Y-93540000D01*
X183427943Y-83375000D02*
X181775000Y-83375000D01*
X191040000Y-93540000D02*
X190500000Y-93000000D01*
%TO.N,NRST*%
X192840000Y-101000000D02*
X193000000Y-101160000D01*
X168000000Y-83000000D02*
X169900001Y-83000000D01*
X168000000Y-81825000D02*
X168000000Y-83000000D01*
X190250000Y-101000000D02*
X192840000Y-101000000D01*
X172675001Y-85775000D02*
X173425000Y-85775000D01*
X169900001Y-83000000D02*
X172675001Y-85775000D01*
%TO.N,SW_DIO*%
X182927894Y-84175000D02*
X181775000Y-84175000D01*
X191370000Y-98620000D02*
X189750000Y-97000000D01*
X189750000Y-97000000D02*
X189750000Y-90997106D01*
X193000000Y-98620000D02*
X191370000Y-98620000D01*
X189750000Y-90997106D02*
X182927894Y-84175000D01*
%TO.N,UART_RX*%
X174800000Y-90350000D02*
X170810000Y-90350000D01*
X170810000Y-90350000D02*
X170000000Y-89540000D01*
X174690000Y-90460000D02*
X174800000Y-90350000D01*
D36*
%TO.N,UART_TX*%
X171975000Y-88975000D02*
X170000000Y-87000000D01*
X173425000Y-88975000D02*
X171975000Y-88975000D01*
D33*
%TO.N,PowerIn*%
X161350000Y-73390000D02*
X161350000Y-74750000D01*
X163250000Y-73330000D02*
X161410000Y-73330000D01*
X161410000Y-73330000D02*
X161350000Y-73390000D01*
X163250000Y-74750000D02*
X163250000Y-73330000D01*
%TO.N,unconnected-(U5-BP-Pad4)*%
X161350000Y-77025000D02*
X161300000Y-76975000D01*
D35*
%TO.N,Net-(STM32F030R8-BOOT0)*%
X175600000Y-80687500D02*
X174912500Y-80000000D01*
X175600000Y-82000000D02*
X175600000Y-80687500D01*
X174912500Y-78000000D02*
X174912500Y-80000000D01*
D34*
%TO.N,Net-(NRF24L01+1-VDD_PA)*%
X180700000Y-101437500D02*
X179645000Y-102492500D01*
X179590000Y-103785000D02*
X179645000Y-103730000D01*
X178410000Y-105110000D02*
X178360000Y-105160000D01*
X179590000Y-105110000D02*
X178410000Y-105110000D01*
X179645000Y-102492500D02*
X179645000Y-103730000D01*
X179590000Y-105110000D02*
X179590000Y-103785000D01*
%TO.N,Net-(NRF24L01+1-DVDD)*%
X185325000Y-97637500D02*
X185325000Y-97739386D01*
X184064386Y-99000000D02*
X183637500Y-99000000D01*
X185325000Y-97739386D02*
X184064386Y-99000000D01*
D35*
%TO.N,Net-(NRF24L01+1-XC2)*%
X179762500Y-100000000D02*
X176450000Y-100000000D01*
X175325000Y-98875000D02*
X172840000Y-98875000D01*
D34*
X172280000Y-99435000D02*
X170815000Y-99435000D01*
D35*
X172840000Y-98875000D02*
X172280000Y-99435000D01*
D34*
X170815000Y-99435000D02*
X170750000Y-99500000D01*
D35*
X176450000Y-100000000D02*
X175325000Y-98875000D01*
D34*
%TO.N,Net-(NRF24L01+1-XC1)*%
X170830000Y-101260000D02*
X170750000Y-101340000D01*
D35*
X179762500Y-100500000D02*
X176200000Y-100500000D01*
X172395000Y-101375000D02*
X172280000Y-101260000D01*
X175325000Y-101375000D02*
X172395000Y-101375000D01*
X176200000Y-100500000D02*
X175325000Y-101375000D01*
D34*
X172280000Y-101260000D02*
X170830000Y-101260000D01*
D35*
%TO.N,Net-(NRF24L01+1-ANT1)*%
X181200000Y-102040000D02*
X180620000Y-102620000D01*
X181200000Y-101437500D02*
X181200000Y-102040000D01*
X180620000Y-102620000D02*
X180620000Y-103595000D01*
X180620000Y-103595000D02*
X180475000Y-103740000D01*
D34*
%TO.N,Net-(NRF24L01+1-ANT2)*%
X181700000Y-101437500D02*
X181700000Y-102310000D01*
X181770000Y-102380000D02*
X181770000Y-103450000D01*
X181700000Y-102310000D02*
X181770000Y-102380000D01*
D35*
%TO.N,Net-(NRF24L01+1-IREF)*%
X187125000Y-100500000D02*
X183637500Y-100500000D01*
X187500000Y-100125000D02*
X187125000Y-100500000D01*
D34*
%TO.N,Net-(C12-Pad1)*%
X183130000Y-103815000D02*
X183130000Y-104980000D01*
%TD*%
M02*
