M48
; DRILL file {KiCad 8.0.4} date 2024-11-27T18:54:37-0600
; FORMAT={-:-/ absolute / inch / decimal}
; #@! TF.CreationDate,2024-11-27T18:54:37-06:00
; #@! TF.GenerationSoftware,Kicad,Pcbnew,8.0.4
; #@! TF.FileFunction,Plated,1,4,PTH
FMAT,2
INCH
; #@! TA.AperFunction,Plated,PTH,ViaDrill
T1C0.0118
; #@! TA.AperFunction,Plated,PTH,ComponentDrill
T2C0.0248
; #@! TA.AperFunction,Plated,PTH,ComponentDrill
T3C0.0394
%
G90
G05
T1
X6.1535Y-3.7913
X6.313Y-3.2293
X6.378Y-3.5039
X6.3898Y-2.9911
X6.3976Y-3.4449
X6.4685Y-3.0305
X6.4705Y-3.2687
X6.4748Y-3.8148
X6.4961Y-3.622
X6.6039Y-3.9539
X6.6142Y-3.0709
X6.6142Y-3.2677
X6.6217Y-3.589
X6.6929Y-3.1102
X6.7717Y-3.2677
X6.7717Y-3.6772
X6.811Y-3.6772
X6.815Y-3.8185
X6.8976Y-3.4724
X6.9291Y-3.622
X6.939Y-3.435
X6.9606Y-3.8976
X6.9685Y-3.1496
X6.9685Y-3.622
X6.9718Y-3.7912
X6.9756Y-4.1661
X6.9902Y-3.878
X7.0079Y-3.622
X7.0197Y-3.8617
X7.0354Y-3.5079
X7.1358Y-3.5965
X7.1384Y-3.2376
X7.1517Y-3.8024
X7.1654Y-3.5433
X7.2037Y-4.0437
X7.2047Y-3.4646
X7.2142Y-3.7969
X7.2398Y-4.0128
X7.2441Y-2.9921
X7.2441Y-3.2283
X7.2756Y-3.8031
X7.2801Y-4.175
X7.2864Y-3.9026
X7.3228Y-3.3465
X7.3622Y-2.9528
X7.4026Y-4.0246
X7.4205Y-3.8122
X7.4409Y-3.2677
X7.4537Y-3.9911
X7.4902Y-3.9764
X7.5087Y-3.1508
T2
X6.9026Y-3.8927
X6.9026Y-3.9911
T3
X6.21Y-3.4252
X6.21Y-3.5252
X6.21Y-3.6252
X6.21Y-3.7252
X6.31Y-3.4252
X6.31Y-3.5252
X6.31Y-3.6252
X6.31Y-3.7252
X6.6898Y-2.874
X6.6929Y-3.4252
X6.6929Y-3.5252
X6.6929Y-3.6252
X6.7898Y-2.874
X6.8898Y-2.874
X6.9898Y-2.874
X7.0898Y-2.874
X7.1898Y-2.874
X7.2898Y-2.874
X7.5689Y-3.5827
X7.5689Y-3.6827
X7.5689Y-3.7827
X7.5689Y-3.8827
X7.5689Y-3.9827
X7.5689Y-4.0827
M30
