%TF.GenerationSoftware,KiCad,Pcbnew,8.0.4*%
%TF.CreationDate,2024-11-27T18:51:44-06:00*%
%TF.ProjectId,TempReader_w_I2C.kicad_sch,54656d70-5265-4616-9465-725f775f4932,rev?*%
%TF.SameCoordinates,Original*%
%TF.FileFunction,Copper,L3,Inr*%
%TF.FilePolarity,Positive*%
%FSLAX46Y46*%
G04 Gerber Fmt 4.6, Leading zero omitted, Abs format (unit mm)*
G04 Created by KiCad (PCBNEW 8.0.4) date 2024-11-27 18:51:44*
%MOMM*%
%LPD*%
G01*
G04 APERTURE LIST*
%TA.AperFunction,ComponentPad*%
%ADD10R,1.700000X1.700000*%
%TD*%
%TA.AperFunction,ComponentPad*%
%ADD11O,1.700000X1.700000*%
%TD*%
%TA.AperFunction,ComponentPad*%
%ADD12C,1.030000*%
%TD*%
%TA.AperFunction,ViaPad*%
%ADD13C,0.600000*%
%TD*%
G04 APERTURE END LIST*
D10*
%TO.N,unconnected-(J2-Pin_1-Pad1)*%
%TO.C,J2*%
X169920000Y-73000000D03*
D11*
%TO.N,unconnected-(J2-Pin_2-Pad2)*%
X172460000Y-73000000D03*
%TO.N,I2C_SDA*%
X175000000Y-73000000D03*
%TO.N,I2C_SCL*%
X177540000Y-73000000D03*
%TO.N,GND1*%
X180080000Y-73000000D03*
%TO.N,unconnected-(J2-Pin_6-Pad6)*%
X182620000Y-73000000D03*
%TO.N,+3V3*%
X185160000Y-73000000D03*
%TD*%
D10*
%TO.N,UART_TX*%
%TO.C,UART1*%
X170000000Y-87000000D03*
D11*
%TO.N,UART_RX*%
X170000000Y-89540000D03*
%TO.N,GND1*%
X170000000Y-92080000D03*
%TD*%
D12*
%TO.N,Net-(NRF24L01+1-XC2)*%
%TO.C,Y1*%
X175325000Y-98875000D03*
%TO.N,Net-(NRF24L01+1-XC1)*%
X175325000Y-101375000D03*
%TD*%
D10*
%TO.N,NRF_IRQ*%
%TO.C,J1*%
X160275000Y-94620000D03*
D11*
%TO.N,SPI_MOSI*%
X157735000Y-94620000D03*
%TO.N,CS_NRF*%
X160275000Y-92080000D03*
%TO.N,+3V3*%
X157735000Y-92080000D03*
%TO.N,GND1*%
X160275000Y-89540000D03*
%TO.N,NRF_CE*%
X157735000Y-89540000D03*
%TO.N,SPI_SCK*%
X160275000Y-87000000D03*
%TO.N,SPI_MISO*%
X157735000Y-87000000D03*
%TD*%
D10*
%TO.N,unconnected-(NotSure1-Pin_1-Pad1)*%
%TO.C,NotSure1*%
X192250000Y-103700000D03*
D11*
%TO.N,NRST*%
X192250000Y-101160000D03*
%TO.N,SW_DIO*%
X192250000Y-98620000D03*
%TO.N,GND1*%
X192250000Y-96080000D03*
%TO.N,SW_CLK*%
X192250000Y-93540000D03*
%TO.N,+3V3*%
X192250000Y-91000000D03*
%TD*%
D13*
%TO.N,+3V3*%
X164350000Y-83025000D03*
X186000000Y-85000000D03*
X185075000Y-99125000D03*
X164300000Y-76975000D03*
X172000000Y-83000000D03*
X168000000Y-78000000D03*
X176250000Y-87250000D03*
X173000000Y-93400000D03*
X165000000Y-92000000D03*
X187000000Y-75000000D03*
X182000000Y-90000000D03*
X183890000Y-101925000D03*
X177550000Y-98500000D03*
X190720000Y-80030000D03*
%TO.N,GND1*%
X160350000Y-82025000D03*
X176800000Y-99000000D03*
X177180000Y-105820000D03*
X184000000Y-76000000D03*
X184800000Y-96600000D03*
X188025000Y-102225000D03*
X170000000Y-79000000D03*
X188480000Y-96830000D03*
X162300000Y-75975000D03*
X189325000Y-101375000D03*
X167740000Y-100430000D03*
X162000000Y-89000000D03*
X181250000Y-91350000D03*
X189000000Y-83000000D03*
X184915000Y-106045000D03*
X182974904Y-102710000D03*
X168190000Y-91160000D03*
%TO.N,SPI_SCK*%
X178700000Y-89100000D03*
X176000000Y-92000000D03*
X162500000Y-87500000D03*
X181653296Y-96581318D03*
%TO.N,SPI_MOSI*%
X178000000Y-92000000D03*
X173100000Y-96990000D03*
%TO.N,CS_NRF*%
X181315380Y-82234620D03*
X172000000Y-93400000D03*
%TO.N,NRF_CE*%
X183240380Y-96440380D03*
X175200000Y-88200000D03*
%TO.N,SPI_MISO*%
X177000000Y-92000000D03*
X156300000Y-96300000D03*
X177083568Y-96297120D03*
%TO.N,NRF_IRQ*%
X164460000Y-96897120D03*
X178300000Y-98087500D03*
X183000000Y-88000000D03*
%TO.N,I2C_SDA*%
X184000000Y-82000000D03*
X177000000Y-80000000D03*
%TO.N,NRST*%
X190250000Y-101000000D03*
X168000000Y-83000000D03*
%TD*%
%TA.AperFunction,Conductor*%
%TO.N,+3V3*%
G36*
X192003801Y-70500730D02*
G01*
X192033105Y-70502502D01*
X192293684Y-70518264D01*
X192308765Y-70520095D01*
X192590682Y-70571758D01*
X192605429Y-70575393D01*
X192879071Y-70660663D01*
X192893283Y-70666054D01*
X193154624Y-70783674D01*
X193168090Y-70790740D01*
X193413367Y-70939016D01*
X193425866Y-70947643D01*
X193651485Y-71124404D01*
X193662865Y-71134487D01*
X193865512Y-71337134D01*
X193875596Y-71348515D01*
X194052353Y-71574130D01*
X194060985Y-71586635D01*
X194146687Y-71728403D01*
X194209255Y-71831903D01*
X194216325Y-71845375D01*
X194333943Y-72106711D01*
X194339339Y-72120937D01*
X194424602Y-72394554D01*
X194428243Y-72409328D01*
X194479902Y-72691222D01*
X194481736Y-72706326D01*
X194499270Y-72996197D01*
X194499500Y-73003805D01*
X194499500Y-106724000D01*
X194479498Y-106792121D01*
X194425842Y-106838614D01*
X194373500Y-106850000D01*
X184970998Y-106850000D01*
X184911994Y-106832675D01*
X184878417Y-106848495D01*
X184859002Y-106850000D01*
X155626500Y-106850000D01*
X155558379Y-106829998D01*
X155511886Y-106776342D01*
X155500500Y-106724000D01*
X155500500Y-105819999D01*
X176620715Y-105819999D01*
X176620715Y-105820000D01*
X176639771Y-105964752D01*
X176695644Y-106099641D01*
X176695649Y-106099649D01*
X176784525Y-106215474D01*
X176900350Y-106304350D01*
X176900357Y-106304355D01*
X177035246Y-106360228D01*
X177180000Y-106379285D01*
X177324754Y-106360228D01*
X177459643Y-106304355D01*
X177575474Y-106215474D01*
X177664355Y-106099643D01*
X177686989Y-106044999D01*
X184355715Y-106044999D01*
X184355715Y-106045000D01*
X184374771Y-106189752D01*
X184430644Y-106324641D01*
X184430649Y-106324649D01*
X184519525Y-106440474D01*
X184635350Y-106529350D01*
X184635357Y-106529355D01*
X184770246Y-106585228D01*
X184843300Y-106594845D01*
X184875448Y-106599078D01*
X184914727Y-106616454D01*
X184935500Y-106603104D01*
X184954552Y-106599078D01*
X184973524Y-106596580D01*
X185059754Y-106585228D01*
X185194643Y-106529355D01*
X185310474Y-106440474D01*
X185399355Y-106324643D01*
X185455228Y-106189754D01*
X185474285Y-106045000D01*
X185455228Y-105900246D01*
X185399355Y-105765358D01*
X185310474Y-105649526D01*
X185310472Y-105649524D01*
X185310471Y-105649523D01*
X185194649Y-105560649D01*
X185194641Y-105560644D01*
X185059752Y-105504771D01*
X184915000Y-105485715D01*
X184770247Y-105504771D01*
X184702802Y-105532708D01*
X184635358Y-105560645D01*
X184635357Y-105560646D01*
X184635356Y-105560646D01*
X184519526Y-105649526D01*
X184430646Y-105765356D01*
X184430645Y-105765358D01*
X184408012Y-105819999D01*
X184374771Y-105900247D01*
X184355715Y-106044999D01*
X177686989Y-106044999D01*
X177720228Y-105964754D01*
X177739285Y-105820000D01*
X177720228Y-105675246D01*
X177664355Y-105540358D01*
X177575474Y-105424526D01*
X177575472Y-105424524D01*
X177575471Y-105424523D01*
X177459649Y-105335649D01*
X177459641Y-105335644D01*
X177324752Y-105279771D01*
X177180000Y-105260715D01*
X177035247Y-105279771D01*
X176967802Y-105307708D01*
X176900358Y-105335645D01*
X176900357Y-105335646D01*
X176900356Y-105335646D01*
X176784526Y-105424526D01*
X176695646Y-105540356D01*
X176695645Y-105540358D01*
X176667708Y-105607802D01*
X176639771Y-105675247D01*
X176620715Y-105819999D01*
X155500500Y-105819999D01*
X155500500Y-102709999D01*
X182415619Y-102709999D01*
X182415619Y-102710000D01*
X182434675Y-102854752D01*
X182490548Y-102989641D01*
X182490553Y-102989649D01*
X182579429Y-103105474D01*
X182695254Y-103194350D01*
X182695261Y-103194355D01*
X182830150Y-103250228D01*
X182974904Y-103269285D01*
X183119658Y-103250228D01*
X183254547Y-103194355D01*
X183370378Y-103105474D01*
X183459259Y-102989643D01*
X183515132Y-102854754D01*
X183519058Y-102824930D01*
X191145500Y-102824930D01*
X191145500Y-104575063D01*
X191145501Y-104575073D01*
X191160265Y-104649300D01*
X191216516Y-104733484D01*
X191300697Y-104789733D01*
X191300699Y-104789734D01*
X191374933Y-104804500D01*
X193125066Y-104804499D01*
X193125069Y-104804498D01*
X193125073Y-104804498D01*
X193174326Y-104794701D01*
X193199301Y-104789734D01*
X193283484Y-104733484D01*
X193339734Y-104649301D01*
X193354500Y-104575067D01*
X193354499Y-102824934D01*
X193354498Y-102824930D01*
X193354498Y-102824926D01*
X193339734Y-102750699D01*
X193283483Y-102666515D01*
X193199302Y-102610266D01*
X193125067Y-102595500D01*
X191374936Y-102595500D01*
X191374926Y-102595501D01*
X191300699Y-102610265D01*
X191216515Y-102666516D01*
X191160266Y-102750697D01*
X191145500Y-102824930D01*
X183519058Y-102824930D01*
X183534189Y-102710000D01*
X183534103Y-102709350D01*
X183515132Y-102565247D01*
X183515132Y-102565246D01*
X183459259Y-102430358D01*
X183370378Y-102314526D01*
X183370376Y-102314524D01*
X183370375Y-102314523D01*
X183254553Y-102225649D01*
X183254545Y-102225644D01*
X183252988Y-102224999D01*
X187465715Y-102224999D01*
X187465715Y-102225000D01*
X187484771Y-102369752D01*
X187540644Y-102504641D01*
X187540649Y-102504649D01*
X187629525Y-102620474D01*
X187745350Y-102709350D01*
X187745357Y-102709355D01*
X187880246Y-102765228D01*
X188025000Y-102784285D01*
X188169754Y-102765228D01*
X188304643Y-102709355D01*
X188420474Y-102620474D01*
X188509355Y-102504643D01*
X188565228Y-102369754D01*
X188584285Y-102225000D01*
X188565228Y-102080246D01*
X188509355Y-101945358D01*
X188420474Y-101829526D01*
X188420472Y-101829524D01*
X188420471Y-101829523D01*
X188304649Y-101740649D01*
X188304641Y-101740644D01*
X188169752Y-101684771D01*
X188025000Y-101665715D01*
X187880247Y-101684771D01*
X187816960Y-101710986D01*
X187745358Y-101740645D01*
X187745357Y-101740646D01*
X187745356Y-101740646D01*
X187629526Y-101829526D01*
X187540646Y-101945356D01*
X187540645Y-101945358D01*
X187526119Y-101980426D01*
X187484771Y-102080247D01*
X187465715Y-102224999D01*
X183252988Y-102224999D01*
X183119656Y-102169771D01*
X182974904Y-102150715D01*
X182830151Y-102169771D01*
X182762706Y-102197708D01*
X182695262Y-102225645D01*
X182695261Y-102225646D01*
X182695260Y-102225646D01*
X182579430Y-102314526D01*
X182490550Y-102430356D01*
X182490549Y-102430358D01*
X182462612Y-102497802D01*
X182434675Y-102565247D01*
X182415619Y-102709999D01*
X155500500Y-102709999D01*
X155500500Y-101375000D01*
X174550631Y-101375000D01*
X174570046Y-101547313D01*
X174607601Y-101654639D01*
X174627318Y-101710986D01*
X174627319Y-101710988D01*
X174719573Y-101857811D01*
X174842188Y-101980426D01*
X174945254Y-102045186D01*
X174989014Y-102072682D01*
X175152687Y-102129954D01*
X175325000Y-102149369D01*
X175497313Y-102129954D01*
X175660986Y-102072682D01*
X175807811Y-101980426D01*
X175930426Y-101857811D01*
X176022682Y-101710986D01*
X176079954Y-101547313D01*
X176099369Y-101375000D01*
X176099369Y-101374999D01*
X188765715Y-101374999D01*
X188765715Y-101375000D01*
X188784771Y-101519752D01*
X188840644Y-101654641D01*
X188840649Y-101654649D01*
X188929525Y-101770474D01*
X189045350Y-101859350D01*
X189045357Y-101859355D01*
X189180246Y-101915228D01*
X189325000Y-101934285D01*
X189469754Y-101915228D01*
X189604643Y-101859355D01*
X189720474Y-101770474D01*
X189809355Y-101654643D01*
X189844922Y-101568776D01*
X189889468Y-101513498D01*
X189956831Y-101491076D01*
X190009541Y-101500585D01*
X190105246Y-101540228D01*
X190250000Y-101559285D01*
X190394754Y-101540228D01*
X190529643Y-101484355D01*
X190645474Y-101395474D01*
X190734355Y-101279643D01*
X190783915Y-101159995D01*
X191140768Y-101159995D01*
X191140768Y-101160004D01*
X191159654Y-101363819D01*
X191209847Y-101540228D01*
X191215672Y-101560701D01*
X191306912Y-101743935D01*
X191306913Y-101743936D01*
X191430266Y-101907284D01*
X191581536Y-102045185D01*
X191755566Y-102152940D01*
X191755568Y-102152940D01*
X191755573Y-102152944D01*
X191946444Y-102226888D01*
X192147653Y-102264500D01*
X192147655Y-102264500D01*
X192352345Y-102264500D01*
X192352347Y-102264500D01*
X192553556Y-102226888D01*
X192744427Y-102152944D01*
X192918462Y-102045186D01*
X193069732Y-101907285D01*
X193193088Y-101743935D01*
X193284328Y-101560701D01*
X193340345Y-101363821D01*
X193352723Y-101230246D01*
X193359232Y-101160004D01*
X193359232Y-101159995D01*
X193340345Y-100956180D01*
X193328445Y-100914355D01*
X193284328Y-100759299D01*
X193193088Y-100576065D01*
X193105268Y-100459772D01*
X193069733Y-100412715D01*
X192918463Y-100274814D01*
X192744433Y-100167059D01*
X192744428Y-100167057D01*
X192744427Y-100167056D01*
X192701322Y-100150357D01*
X192553559Y-100093113D01*
X192553560Y-100093113D01*
X192553557Y-100093112D01*
X192553556Y-100093112D01*
X192352347Y-100055500D01*
X192147653Y-100055500D01*
X191946444Y-100093112D01*
X191946439Y-100093113D01*
X191755577Y-100167054D01*
X191755566Y-100167059D01*
X191581536Y-100274814D01*
X191430266Y-100412715D01*
X191306913Y-100576063D01*
X191215671Y-100759301D01*
X191159654Y-100956180D01*
X191140768Y-101159995D01*
X190783915Y-101159995D01*
X190790228Y-101144754D01*
X190809285Y-101000000D01*
X190805365Y-100970228D01*
X190790228Y-100855247D01*
X190781747Y-100834772D01*
X190734355Y-100720358D01*
X190645474Y-100604526D01*
X190645472Y-100604524D01*
X190645471Y-100604523D01*
X190529649Y-100515649D01*
X190529641Y-100515644D01*
X190394752Y-100459771D01*
X190250000Y-100440715D01*
X190105247Y-100459771D01*
X190037802Y-100487708D01*
X189970358Y-100515645D01*
X189970357Y-100515646D01*
X189970356Y-100515646D01*
X189854526Y-100604526D01*
X189765646Y-100720356D01*
X189765642Y-100720363D01*
X189730078Y-100806222D01*
X189685530Y-100861503D01*
X189618166Y-100883923D01*
X189565454Y-100874412D01*
X189469754Y-100834772D01*
X189469752Y-100834771D01*
X189325000Y-100815715D01*
X189180247Y-100834771D01*
X189130818Y-100855246D01*
X189045358Y-100890645D01*
X189045357Y-100890646D01*
X189045356Y-100890646D01*
X188929526Y-100979526D01*
X188840646Y-101095356D01*
X188840645Y-101095358D01*
X188812708Y-101162802D01*
X188784771Y-101230247D01*
X188765715Y-101374999D01*
X176099369Y-101374999D01*
X176079954Y-101202687D01*
X176022682Y-101039014D01*
X175991435Y-100989285D01*
X175930426Y-100892188D01*
X175807811Y-100769573D01*
X175660988Y-100677319D01*
X175660986Y-100677318D01*
X175497313Y-100620046D01*
X175325000Y-100600631D01*
X175152687Y-100620046D01*
X175152684Y-100620046D01*
X175152684Y-100620047D01*
X174989013Y-100677318D01*
X174989011Y-100677319D01*
X174842188Y-100769573D01*
X174719573Y-100892188D01*
X174627319Y-101039011D01*
X174627318Y-101039013D01*
X174570047Y-101202684D01*
X174570046Y-101202687D01*
X174550631Y-101375000D01*
X155500500Y-101375000D01*
X155500500Y-100429999D01*
X167180715Y-100429999D01*
X167180715Y-100430000D01*
X167199771Y-100574752D01*
X167255644Y-100709641D01*
X167255649Y-100709649D01*
X167344525Y-100825474D01*
X167460350Y-100914350D01*
X167460357Y-100914355D01*
X167595246Y-100970228D01*
X167740000Y-100989285D01*
X167884754Y-100970228D01*
X168019643Y-100914355D01*
X168135474Y-100825474D01*
X168224355Y-100709643D01*
X168280228Y-100574754D01*
X168299285Y-100430000D01*
X168297009Y-100412715D01*
X168280228Y-100285247D01*
X168280228Y-100285246D01*
X168224355Y-100150358D01*
X168135474Y-100034526D01*
X168135472Y-100034524D01*
X168135471Y-100034523D01*
X168019649Y-99945649D01*
X168019641Y-99945644D01*
X167884752Y-99889771D01*
X167740000Y-99870715D01*
X167595247Y-99889771D01*
X167527802Y-99917708D01*
X167460358Y-99945645D01*
X167460357Y-99945646D01*
X167460356Y-99945646D01*
X167344526Y-100034526D01*
X167255646Y-100150356D01*
X167255645Y-100150358D01*
X167227708Y-100217802D01*
X167199771Y-100285247D01*
X167180715Y-100429999D01*
X155500500Y-100429999D01*
X155500500Y-98875000D01*
X174550631Y-98875000D01*
X174570046Y-99047313D01*
X174570047Y-99047315D01*
X174627318Y-99210986D01*
X174627319Y-99210988D01*
X174719573Y-99357811D01*
X174842188Y-99480426D01*
X174966299Y-99558409D01*
X174989014Y-99572682D01*
X175152687Y-99629954D01*
X175325000Y-99649369D01*
X175497313Y-99629954D01*
X175660986Y-99572682D01*
X175807811Y-99480426D01*
X175930426Y-99357811D01*
X176022682Y-99210986D01*
X176034795Y-99176369D01*
X176076170Y-99118679D01*
X176142170Y-99092515D01*
X176211837Y-99106186D01*
X176263054Y-99155353D01*
X176270131Y-99169765D01*
X176315642Y-99279637D01*
X176315649Y-99279649D01*
X176404525Y-99395474D01*
X176520350Y-99484350D01*
X176520357Y-99484355D01*
X176655246Y-99540228D01*
X176800000Y-99559285D01*
X176944754Y-99540228D01*
X177079643Y-99484355D01*
X177195474Y-99395474D01*
X177284355Y-99279643D01*
X177340228Y-99144754D01*
X177359285Y-99000000D01*
X177340228Y-98855246D01*
X177284355Y-98720358D01*
X177195474Y-98604526D01*
X177195472Y-98604524D01*
X177195471Y-98604523D01*
X177079649Y-98515649D01*
X177079641Y-98515644D01*
X176944752Y-98459771D01*
X176800000Y-98440715D01*
X176655247Y-98459771D01*
X176599232Y-98482974D01*
X176520358Y-98515645D01*
X176520357Y-98515646D01*
X176520356Y-98515646D01*
X176404526Y-98604526D01*
X176315646Y-98720356D01*
X176311518Y-98727508D01*
X176309173Y-98726154D01*
X176272992Y-98771041D01*
X176205626Y-98793454D01*
X176136837Y-98775888D01*
X176088465Y-98723920D01*
X176082215Y-98709149D01*
X176060393Y-98646785D01*
X176022682Y-98539014D01*
X175972891Y-98459772D01*
X175930426Y-98392188D01*
X175807811Y-98269573D01*
X175660988Y-98177319D01*
X175660986Y-98177318D01*
X175497313Y-98120046D01*
X175325000Y-98100631D01*
X175152687Y-98120046D01*
X175152684Y-98120046D01*
X175152684Y-98120047D01*
X174989013Y-98177318D01*
X174989011Y-98177319D01*
X174842188Y-98269573D01*
X174719573Y-98392188D01*
X174627319Y-98539011D01*
X174627318Y-98539013D01*
X174598978Y-98620004D01*
X174570046Y-98702687D01*
X174550631Y-98875000D01*
X155500500Y-98875000D01*
X155500500Y-98087499D01*
X177740715Y-98087499D01*
X177740715Y-98087500D01*
X177759771Y-98232252D01*
X177815644Y-98367141D01*
X177815649Y-98367149D01*
X177904525Y-98482974D01*
X178020350Y-98571850D01*
X178020357Y-98571855D01*
X178155246Y-98627728D01*
X178300000Y-98646785D01*
X178444754Y-98627728D01*
X178463423Y-98619995D01*
X191140768Y-98619995D01*
X191140768Y-98620004D01*
X191159654Y-98823819D01*
X191209782Y-98999999D01*
X191215672Y-99020701D01*
X191306912Y-99203935D01*
X191312238Y-99210988D01*
X191430266Y-99367284D01*
X191581536Y-99505185D01*
X191755566Y-99612940D01*
X191755568Y-99612940D01*
X191755573Y-99612944D01*
X191946444Y-99686888D01*
X192147653Y-99724500D01*
X192147655Y-99724500D01*
X192352345Y-99724500D01*
X192352347Y-99724500D01*
X192553556Y-99686888D01*
X192744427Y-99612944D01*
X192918462Y-99505186D01*
X193069732Y-99367285D01*
X193076887Y-99357811D01*
X193090006Y-99340436D01*
X193193088Y-99203935D01*
X193284328Y-99020701D01*
X193340345Y-98823821D01*
X193349932Y-98720358D01*
X193359232Y-98620004D01*
X193359232Y-98619995D01*
X193340345Y-98416180D01*
X193333519Y-98392188D01*
X193284328Y-98219299D01*
X193193088Y-98036065D01*
X193122617Y-97942746D01*
X193069733Y-97872715D01*
X192918463Y-97734814D01*
X192744433Y-97627059D01*
X192744428Y-97627057D01*
X192744427Y-97627056D01*
X192682716Y-97603149D01*
X192553559Y-97553113D01*
X192553560Y-97553113D01*
X192553557Y-97553112D01*
X192553556Y-97553112D01*
X192352347Y-97515500D01*
X192147653Y-97515500D01*
X191977686Y-97547272D01*
X191946439Y-97553113D01*
X191755577Y-97627054D01*
X191755566Y-97627059D01*
X191581536Y-97734814D01*
X191430266Y-97872715D01*
X191306913Y-98036063D01*
X191215671Y-98219301D01*
X191159654Y-98416180D01*
X191140768Y-98619995D01*
X178463423Y-98619995D01*
X178579643Y-98571855D01*
X178695474Y-98482974D01*
X178784355Y-98367143D01*
X178840228Y-98232254D01*
X178859285Y-98087500D01*
X178840228Y-97942746D01*
X178784355Y-97807858D01*
X178695474Y-97692026D01*
X178695472Y-97692024D01*
X178695471Y-97692023D01*
X178579649Y-97603149D01*
X178579641Y-97603144D01*
X178444752Y-97547271D01*
X178300000Y-97528215D01*
X178155247Y-97547271D01*
X178087802Y-97575208D01*
X178020358Y-97603145D01*
X178020357Y-97603146D01*
X178020356Y-97603146D01*
X177904526Y-97692026D01*
X177815646Y-97807856D01*
X177815645Y-97807858D01*
X177788780Y-97872715D01*
X177759771Y-97942747D01*
X177740715Y-98087499D01*
X155500500Y-98087499D01*
X155500500Y-96897119D01*
X163900715Y-96897119D01*
X163900715Y-96897120D01*
X163919771Y-97041872D01*
X163975644Y-97176761D01*
X163975649Y-97176769D01*
X164064525Y-97292594D01*
X164180350Y-97381470D01*
X164180357Y-97381475D01*
X164315246Y-97437348D01*
X164460000Y-97456405D01*
X164604754Y-97437348D01*
X164739643Y-97381475D01*
X164855474Y-97292594D01*
X164944355Y-97176763D01*
X165000228Y-97041874D01*
X165007057Y-96989999D01*
X172540715Y-96989999D01*
X172540715Y-96990000D01*
X172559771Y-97134752D01*
X172615644Y-97269641D01*
X172615649Y-97269649D01*
X172704525Y-97385474D01*
X172796964Y-97456405D01*
X172820357Y-97474355D01*
X172955246Y-97530228D01*
X173100000Y-97549285D01*
X173244754Y-97530228D01*
X173379643Y-97474355D01*
X173495474Y-97385474D01*
X173584355Y-97269643D01*
X173640228Y-97134754D01*
X173659285Y-96990000D01*
X173640228Y-96845246D01*
X173584355Y-96710358D01*
X173495474Y-96594526D01*
X173495472Y-96594524D01*
X173495471Y-96594523D01*
X173379649Y-96505649D01*
X173379641Y-96505644D01*
X173244752Y-96449771D01*
X173100000Y-96430715D01*
X172955247Y-96449771D01*
X172887802Y-96477708D01*
X172820358Y-96505645D01*
X172820357Y-96505646D01*
X172820356Y-96505646D01*
X172704526Y-96594526D01*
X172615646Y-96710356D01*
X172615645Y-96710358D01*
X172601398Y-96744754D01*
X172559771Y-96845247D01*
X172540715Y-96989999D01*
X165007057Y-96989999D01*
X165019285Y-96897120D01*
X165000228Y-96752366D01*
X164944355Y-96617478D01*
X164855474Y-96501646D01*
X164855472Y-96501644D01*
X164855471Y-96501643D01*
X164739649Y-96412769D01*
X164739641Y-96412764D01*
X164604752Y-96356891D01*
X164460000Y-96337835D01*
X164315247Y-96356891D01*
X164256253Y-96381328D01*
X164180358Y-96412765D01*
X164180357Y-96412766D01*
X164180356Y-96412766D01*
X164064526Y-96501646D01*
X163975646Y-96617476D01*
X163975645Y-96617478D01*
X163956402Y-96663935D01*
X163919771Y-96752367D01*
X163900715Y-96897119D01*
X155500500Y-96897119D01*
X155500500Y-96397774D01*
X155520502Y-96329653D01*
X155554774Y-96299955D01*
X155552434Y-96298490D01*
X155700122Y-96298490D01*
X155709012Y-96302550D01*
X155747396Y-96362276D01*
X155751422Y-96381328D01*
X155759771Y-96444752D01*
X155815644Y-96579641D01*
X155815649Y-96579649D01*
X155904525Y-96695474D01*
X156020350Y-96784350D01*
X156020357Y-96784355D01*
X156155246Y-96840228D01*
X156300000Y-96859285D01*
X156444754Y-96840228D01*
X156579643Y-96784355D01*
X156695474Y-96695474D01*
X156784355Y-96579643D01*
X156840228Y-96444754D01*
X156859285Y-96300000D01*
X156858906Y-96297119D01*
X176524283Y-96297119D01*
X176524283Y-96297120D01*
X176543339Y-96441872D01*
X176599212Y-96576761D01*
X176599217Y-96576769D01*
X176688093Y-96692594D01*
X176803918Y-96781470D01*
X176803925Y-96781475D01*
X176938814Y-96837348D01*
X177083568Y-96856405D01*
X177228322Y-96837348D01*
X177363211Y-96781475D01*
X177479042Y-96692594D01*
X177564429Y-96581317D01*
X181094011Y-96581317D01*
X181094011Y-96581318D01*
X181113067Y-96726070D01*
X181168940Y-96860959D01*
X181168945Y-96860967D01*
X181257821Y-96976792D01*
X181373646Y-97065668D01*
X181373653Y-97065673D01*
X181508542Y-97121546D01*
X181653296Y-97140603D01*
X181798050Y-97121546D01*
X181932939Y-97065673D01*
X182048770Y-96976792D01*
X182137651Y-96860961D01*
X182193524Y-96726072D01*
X182212581Y-96581318D01*
X182212360Y-96579643D01*
X182195984Y-96455247D01*
X182194026Y-96440379D01*
X182681095Y-96440379D01*
X182681095Y-96440380D01*
X182700151Y-96585132D01*
X182756024Y-96720021D01*
X182756029Y-96720029D01*
X182844905Y-96835854D01*
X182960730Y-96924730D01*
X182960737Y-96924735D01*
X183095626Y-96980608D01*
X183240380Y-96999665D01*
X183385134Y-96980608D01*
X183520023Y-96924735D01*
X183635854Y-96835854D01*
X183724735Y-96720023D01*
X183774451Y-96599999D01*
X184240715Y-96599999D01*
X184240715Y-96600000D01*
X184259771Y-96744752D01*
X184315644Y-96879641D01*
X184315649Y-96879649D01*
X184404525Y-96995474D01*
X184505487Y-97072945D01*
X184520357Y-97084355D01*
X184655246Y-97140228D01*
X184800000Y-97159285D01*
X184944754Y-97140228D01*
X185079643Y-97084355D01*
X185195474Y-96995474D01*
X185284355Y-96879643D01*
X185304918Y-96829999D01*
X187920715Y-96829999D01*
X187920715Y-96830000D01*
X187939771Y-96974752D01*
X187995644Y-97109641D01*
X187995649Y-97109649D01*
X188084525Y-97225474D01*
X188200350Y-97314350D01*
X188200357Y-97314355D01*
X188335246Y-97370228D01*
X188480000Y-97389285D01*
X188624754Y-97370228D01*
X188759643Y-97314355D01*
X188875474Y-97225474D01*
X188964355Y-97109643D01*
X189020228Y-96974754D01*
X189039285Y-96830000D01*
X189038927Y-96827284D01*
X189025603Y-96726072D01*
X189020228Y-96685246D01*
X188964355Y-96550358D01*
X188875474Y-96434526D01*
X188875472Y-96434524D01*
X188875471Y-96434523D01*
X188759649Y-96345649D01*
X188759641Y-96345644D01*
X188624752Y-96289771D01*
X188480000Y-96270715D01*
X188335247Y-96289771D01*
X188306507Y-96301676D01*
X188200358Y-96345645D01*
X188200357Y-96345646D01*
X188200356Y-96345646D01*
X188084526Y-96434526D01*
X187995646Y-96550356D01*
X187995645Y-96550358D01*
X187967844Y-96617476D01*
X187939771Y-96685247D01*
X187920715Y-96829999D01*
X185304918Y-96829999D01*
X185340228Y-96744754D01*
X185359285Y-96600000D01*
X185356825Y-96581318D01*
X185340228Y-96455247D01*
X185340228Y-96455246D01*
X185284355Y-96320358D01*
X185195474Y-96204526D01*
X185195472Y-96204524D01*
X185195471Y-96204523D01*
X185079649Y-96115649D01*
X185079641Y-96115644D01*
X184993577Y-96079995D01*
X191140768Y-96079995D01*
X191140768Y-96080004D01*
X191159654Y-96283819D01*
X191206872Y-96449772D01*
X191215672Y-96480701D01*
X191306912Y-96663935D01*
X191306913Y-96663936D01*
X191430266Y-96827284D01*
X191581536Y-96965185D01*
X191755566Y-97072940D01*
X191755568Y-97072940D01*
X191755573Y-97072944D01*
X191946444Y-97146888D01*
X192147653Y-97184500D01*
X192147655Y-97184500D01*
X192352345Y-97184500D01*
X192352347Y-97184500D01*
X192553556Y-97146888D01*
X192744427Y-97072944D01*
X192918462Y-96965186D01*
X193069732Y-96827285D01*
X193193088Y-96663935D01*
X193284328Y-96480701D01*
X193340345Y-96283821D01*
X193349424Y-96185841D01*
X193359232Y-96080004D01*
X193359232Y-96079995D01*
X193342566Y-95900151D01*
X193340345Y-95876179D01*
X193284328Y-95679299D01*
X193193088Y-95496065D01*
X193152538Y-95442368D01*
X193069733Y-95332715D01*
X192918463Y-95194814D01*
X192744433Y-95087059D01*
X192744428Y-95087057D01*
X192744427Y-95087056D01*
X192744422Y-95087054D01*
X192553559Y-95013113D01*
X192553560Y-95013113D01*
X192553557Y-95013112D01*
X192553556Y-95013112D01*
X192352347Y-94975500D01*
X192147653Y-94975500D01*
X191946444Y-95013112D01*
X191946439Y-95013113D01*
X191755577Y-95087054D01*
X191755566Y-95087059D01*
X191581536Y-95194814D01*
X191430266Y-95332715D01*
X191306913Y-95496063D01*
X191215671Y-95679301D01*
X191159654Y-95876180D01*
X191140768Y-96079995D01*
X184993577Y-96079995D01*
X184944752Y-96059771D01*
X184800000Y-96040715D01*
X184655247Y-96059771D01*
X184606402Y-96080004D01*
X184520358Y-96115645D01*
X184520357Y-96115646D01*
X184520356Y-96115646D01*
X184404526Y-96204526D01*
X184315646Y-96320356D01*
X184315645Y-96320358D01*
X184300512Y-96356892D01*
X184259771Y-96455247D01*
X184240715Y-96599999D01*
X183774451Y-96599999D01*
X183780608Y-96585134D01*
X183799665Y-96440380D01*
X183796029Y-96412765D01*
X183783864Y-96320356D01*
X183780608Y-96295626D01*
X183724735Y-96160738D01*
X183635854Y-96044906D01*
X183635852Y-96044904D01*
X183635851Y-96044903D01*
X183520029Y-95956029D01*
X183520021Y-95956024D01*
X183385132Y-95900151D01*
X183240380Y-95881095D01*
X183095627Y-95900151D01*
X183028182Y-95928088D01*
X182960738Y-95956025D01*
X182960737Y-95956026D01*
X182960736Y-95956026D01*
X182844906Y-96044906D01*
X182756026Y-96160736D01*
X182756025Y-96160738D01*
X182737887Y-96204526D01*
X182700151Y-96295627D01*
X182681095Y-96440379D01*
X182194026Y-96440379D01*
X182193524Y-96436564D01*
X182137651Y-96301676D01*
X182048770Y-96185844D01*
X182048768Y-96185842D01*
X182048767Y-96185841D01*
X181932945Y-96096967D01*
X181932937Y-96096962D01*
X181798048Y-96041089D01*
X181653296Y-96022033D01*
X181508543Y-96041089D01*
X181463440Y-96059772D01*
X181373654Y-96096963D01*
X181373653Y-96096964D01*
X181373652Y-96096964D01*
X181257822Y-96185844D01*
X181168942Y-96301674D01*
X181168941Y-96301676D01*
X181150729Y-96345644D01*
X181113067Y-96436565D01*
X181094011Y-96581317D01*
X177564429Y-96581317D01*
X177567923Y-96576763D01*
X177623796Y-96441874D01*
X177642853Y-96297120D01*
X177642656Y-96295627D01*
X177630663Y-96204526D01*
X177623796Y-96152366D01*
X177567923Y-96017478D01*
X177479042Y-95901646D01*
X177479040Y-95901644D01*
X177479039Y-95901643D01*
X177363217Y-95812769D01*
X177363209Y-95812764D01*
X177228320Y-95756891D01*
X177083568Y-95737835D01*
X176938815Y-95756891D01*
X176871370Y-95784828D01*
X176803926Y-95812765D01*
X176803925Y-95812766D01*
X176803924Y-95812766D01*
X176688094Y-95901646D01*
X176599214Y-96017476D01*
X176599213Y-96017478D01*
X176581694Y-96059772D01*
X176543339Y-96152367D01*
X176524283Y-96297119D01*
X156858906Y-96297119D01*
X156857938Y-96289772D01*
X156840228Y-96155247D01*
X156839035Y-96152366D01*
X156784355Y-96020358D01*
X156695474Y-95904526D01*
X156695472Y-95904524D01*
X156695471Y-95904523D01*
X156579649Y-95815649D01*
X156579641Y-95815644D01*
X156444752Y-95759771D01*
X156300000Y-95740715D01*
X156155247Y-95759771D01*
X156087802Y-95787708D01*
X156020358Y-95815645D01*
X156020357Y-95815646D01*
X156020356Y-95815646D01*
X155904526Y-95904526D01*
X155815646Y-96020356D01*
X155815645Y-96020358D01*
X155799319Y-96059772D01*
X155759771Y-96155247D01*
X155751422Y-96218671D01*
X155722700Y-96283598D01*
X155700122Y-96298490D01*
X155552434Y-96298490D01*
X155532264Y-96285865D01*
X155502005Y-96221640D01*
X155500500Y-96202225D01*
X155500500Y-94619995D01*
X156625768Y-94619995D01*
X156625768Y-94620004D01*
X156644654Y-94823819D01*
X156644655Y-94823821D01*
X156700672Y-95020701D01*
X156791912Y-95203935D01*
X156791913Y-95203936D01*
X156915266Y-95367284D01*
X157066536Y-95505185D01*
X157240566Y-95612940D01*
X157240568Y-95612940D01*
X157240573Y-95612944D01*
X157431444Y-95686888D01*
X157632653Y-95724500D01*
X157632655Y-95724500D01*
X157837345Y-95724500D01*
X157837347Y-95724500D01*
X158038556Y-95686888D01*
X158229427Y-95612944D01*
X158403462Y-95505186D01*
X158554732Y-95367285D01*
X158678088Y-95203935D01*
X158769328Y-95020701D01*
X158825345Y-94823821D01*
X158844232Y-94620000D01*
X158825345Y-94416179D01*
X158769328Y-94219299D01*
X158678088Y-94036065D01*
X158606073Y-93940701D01*
X158554733Y-93872715D01*
X158414560Y-93744930D01*
X159170500Y-93744930D01*
X159170500Y-95495063D01*
X159170501Y-95495073D01*
X159185265Y-95569300D01*
X159241516Y-95653484D01*
X159325697Y-95709733D01*
X159325699Y-95709734D01*
X159399933Y-95724500D01*
X161150066Y-95724499D01*
X161150069Y-95724498D01*
X161150073Y-95724498D01*
X161199326Y-95714701D01*
X161224301Y-95709734D01*
X161308484Y-95653484D01*
X161364734Y-95569301D01*
X161379500Y-95495067D01*
X161379499Y-93744934D01*
X161379498Y-93744930D01*
X161379498Y-93744926D01*
X161364734Y-93670699D01*
X161308483Y-93586515D01*
X161224302Y-93530266D01*
X161150067Y-93515500D01*
X159399936Y-93515500D01*
X159399926Y-93515501D01*
X159325699Y-93530265D01*
X159241515Y-93586516D01*
X159185266Y-93670697D01*
X159170500Y-93744930D01*
X158414560Y-93744930D01*
X158403463Y-93734814D01*
X158229433Y-93627059D01*
X158229428Y-93627057D01*
X158229427Y-93627056D01*
X158229422Y-93627054D01*
X158038559Y-93553113D01*
X158038560Y-93553113D01*
X158038557Y-93553112D01*
X158038556Y-93553112D01*
X157837347Y-93515500D01*
X157632653Y-93515500D01*
X157431444Y-93553112D01*
X157431439Y-93553113D01*
X157240577Y-93627054D01*
X157240566Y-93627059D01*
X157066536Y-93734814D01*
X156915266Y-93872715D01*
X156791913Y-94036063D01*
X156700671Y-94219301D01*
X156644654Y-94416180D01*
X156625768Y-94619995D01*
X155500500Y-94619995D01*
X155500500Y-93399999D01*
X171440715Y-93399999D01*
X171440715Y-93400000D01*
X171459771Y-93544752D01*
X171515644Y-93679641D01*
X171515649Y-93679649D01*
X171604525Y-93795474D01*
X171720350Y-93884350D01*
X171720357Y-93884355D01*
X171855246Y-93940228D01*
X172000000Y-93959285D01*
X172144754Y-93940228D01*
X172279643Y-93884355D01*
X172395474Y-93795474D01*
X172484355Y-93679643D01*
X172540228Y-93544754D01*
X172540855Y-93539995D01*
X191140768Y-93539995D01*
X191140768Y-93540004D01*
X191159654Y-93743819D01*
X191159972Y-93744936D01*
X191215672Y-93940701D01*
X191306912Y-94123935D01*
X191306913Y-94123936D01*
X191430266Y-94287284D01*
X191581536Y-94425185D01*
X191755566Y-94532940D01*
X191755568Y-94532940D01*
X191755573Y-94532944D01*
X191946444Y-94606888D01*
X192147653Y-94644500D01*
X192147655Y-94644500D01*
X192352345Y-94644500D01*
X192352347Y-94644500D01*
X192553556Y-94606888D01*
X192744427Y-94532944D01*
X192918462Y-94425186D01*
X193069732Y-94287285D01*
X193193088Y-94123935D01*
X193284328Y-93940701D01*
X193340345Y-93743821D01*
X193358017Y-93553112D01*
X193359232Y-93540004D01*
X193359232Y-93539995D01*
X193340345Y-93336180D01*
X193317318Y-93255247D01*
X193284328Y-93139299D01*
X193193088Y-92956065D01*
X193120371Y-92859772D01*
X193069733Y-92792715D01*
X192918463Y-92654814D01*
X192744433Y-92547059D01*
X192744428Y-92547057D01*
X192744427Y-92547056D01*
X192726802Y-92540228D01*
X192553559Y-92473113D01*
X192553560Y-92473113D01*
X192553557Y-92473112D01*
X192553556Y-92473112D01*
X192352347Y-92435500D01*
X192147653Y-92435500D01*
X191946444Y-92473112D01*
X191946439Y-92473113D01*
X191755577Y-92547054D01*
X191755566Y-92547059D01*
X191581536Y-92654814D01*
X191430266Y-92792715D01*
X191306913Y-92956063D01*
X191215671Y-93139301D01*
X191159654Y-93336180D01*
X191140768Y-93539995D01*
X172540855Y-93539995D01*
X172559285Y-93400000D01*
X172540228Y-93255246D01*
X172484355Y-93120358D01*
X172395474Y-93004526D01*
X172395472Y-93004524D01*
X172395471Y-93004523D01*
X172279649Y-92915649D01*
X172279641Y-92915644D01*
X172144752Y-92859771D01*
X172000000Y-92840715D01*
X171855247Y-92859771D01*
X171787802Y-92887708D01*
X171720358Y-92915645D01*
X171720357Y-92915646D01*
X171720356Y-92915646D01*
X171604526Y-93004526D01*
X171515646Y-93120356D01*
X171515645Y-93120358D01*
X171504857Y-93146403D01*
X171459771Y-93255247D01*
X171440715Y-93399999D01*
X155500500Y-93399999D01*
X155500500Y-91952998D01*
X156638037Y-91952998D01*
X156638038Y-91953000D01*
X157251392Y-91953000D01*
X157235000Y-92014174D01*
X157235000Y-92145826D01*
X157251392Y-92207000D01*
X156638038Y-92207000D01*
X156638037Y-92207001D01*
X156645147Y-92283725D01*
X156701138Y-92480514D01*
X156701140Y-92480519D01*
X156792340Y-92663672D01*
X156915637Y-92826946D01*
X157066838Y-92964784D01*
X157240796Y-93072493D01*
X157240803Y-93072496D01*
X157431578Y-93146403D01*
X157431576Y-93146403D01*
X157608000Y-93179381D01*
X157608000Y-92563608D01*
X157669174Y-92580000D01*
X157800826Y-92580000D01*
X157862000Y-92563608D01*
X157862000Y-93179381D01*
X158038422Y-93146403D01*
X158229196Y-93072496D01*
X158229203Y-93072493D01*
X158403161Y-92964784D01*
X158554362Y-92826946D01*
X158677659Y-92663672D01*
X158768859Y-92480519D01*
X158768861Y-92480514D01*
X158824852Y-92283725D01*
X158831962Y-92207001D01*
X158831962Y-92207000D01*
X158218608Y-92207000D01*
X158235000Y-92145826D01*
X158235000Y-92079995D01*
X159165768Y-92079995D01*
X159165768Y-92080004D01*
X159184654Y-92283819D01*
X159211507Y-92378198D01*
X159240672Y-92480701D01*
X159331912Y-92663935D01*
X159331913Y-92663936D01*
X159455266Y-92827284D01*
X159606536Y-92965185D01*
X159780566Y-93072940D01*
X159780568Y-93072940D01*
X159780573Y-93072944D01*
X159971444Y-93146888D01*
X160172653Y-93184500D01*
X160172655Y-93184500D01*
X160377345Y-93184500D01*
X160377347Y-93184500D01*
X160578556Y-93146888D01*
X160769427Y-93072944D01*
X160943462Y-92965186D01*
X161094732Y-92827285D01*
X161218088Y-92663935D01*
X161309328Y-92480701D01*
X161365345Y-92283821D01*
X161371640Y-92215880D01*
X161384232Y-92080004D01*
X161384232Y-92079995D01*
X168890768Y-92079995D01*
X168890768Y-92080004D01*
X168909654Y-92283819D01*
X168936507Y-92378198D01*
X168965672Y-92480701D01*
X169056912Y-92663935D01*
X169056913Y-92663936D01*
X169180266Y-92827284D01*
X169331536Y-92965185D01*
X169505566Y-93072940D01*
X169505568Y-93072940D01*
X169505573Y-93072944D01*
X169696444Y-93146888D01*
X169897653Y-93184500D01*
X169897655Y-93184500D01*
X170102345Y-93184500D01*
X170102347Y-93184500D01*
X170303556Y-93146888D01*
X170494427Y-93072944D01*
X170668462Y-92965186D01*
X170819732Y-92827285D01*
X170943088Y-92663935D01*
X171034328Y-92480701D01*
X171090345Y-92283821D01*
X171096640Y-92215880D01*
X171109232Y-92080004D01*
X171109232Y-92079995D01*
X171101819Y-91999999D01*
X175440715Y-91999999D01*
X175440715Y-92000000D01*
X175459771Y-92144752D01*
X175515644Y-92279641D01*
X175515649Y-92279649D01*
X175604525Y-92395474D01*
X175715591Y-92480698D01*
X175720357Y-92484355D01*
X175855246Y-92540228D01*
X176000000Y-92559285D01*
X176144754Y-92540228D01*
X176279643Y-92484355D01*
X176395474Y-92395474D01*
X176400036Y-92389527D01*
X176457372Y-92347660D01*
X176528243Y-92343436D01*
X176590147Y-92378198D01*
X176599958Y-92389520D01*
X176604526Y-92395474D01*
X176604528Y-92395476D01*
X176715591Y-92480698D01*
X176720357Y-92484355D01*
X176855246Y-92540228D01*
X177000000Y-92559285D01*
X177144754Y-92540228D01*
X177279643Y-92484355D01*
X177395474Y-92395474D01*
X177400036Y-92389527D01*
X177457372Y-92347660D01*
X177528243Y-92343436D01*
X177590147Y-92378198D01*
X177599958Y-92389520D01*
X177604526Y-92395474D01*
X177604528Y-92395476D01*
X177715591Y-92480698D01*
X177720357Y-92484355D01*
X177855246Y-92540228D01*
X178000000Y-92559285D01*
X178144754Y-92540228D01*
X178279643Y-92484355D01*
X178395474Y-92395474D01*
X178484355Y-92279643D01*
X178540228Y-92144754D01*
X178559285Y-92000000D01*
X178540228Y-91855246D01*
X178484355Y-91720358D01*
X178395474Y-91604526D01*
X178395472Y-91604524D01*
X178395471Y-91604523D01*
X178279649Y-91515649D01*
X178279641Y-91515644D01*
X178144752Y-91459771D01*
X178000000Y-91440715D01*
X177855247Y-91459771D01*
X177787802Y-91487708D01*
X177720358Y-91515645D01*
X177720357Y-91515646D01*
X177720356Y-91515646D01*
X177604525Y-91604526D01*
X177599962Y-91610474D01*
X177542623Y-91652341D01*
X177471752Y-91656562D01*
X177409850Y-91621797D01*
X177400038Y-91610474D01*
X177395472Y-91604524D01*
X177279649Y-91515649D01*
X177279641Y-91515644D01*
X177144752Y-91459771D01*
X177000000Y-91440715D01*
X176855247Y-91459771D01*
X176787802Y-91487708D01*
X176720358Y-91515645D01*
X176720357Y-91515646D01*
X176720356Y-91515646D01*
X176604525Y-91604526D01*
X176599962Y-91610474D01*
X176542623Y-91652341D01*
X176471752Y-91656562D01*
X176409850Y-91621797D01*
X176400038Y-91610474D01*
X176395472Y-91604524D01*
X176279649Y-91515649D01*
X176279641Y-91515644D01*
X176144752Y-91459771D01*
X176000000Y-91440715D01*
X175855247Y-91459771D01*
X175787802Y-91487708D01*
X175720358Y-91515645D01*
X175720357Y-91515646D01*
X175720356Y-91515646D01*
X175604526Y-91604526D01*
X175515646Y-91720356D01*
X175515645Y-91720358D01*
X175493843Y-91772993D01*
X175459771Y-91855247D01*
X175440715Y-91999999D01*
X171101819Y-91999999D01*
X171090345Y-91876180D01*
X171078445Y-91834355D01*
X171034328Y-91679299D01*
X170943088Y-91496065D01*
X170900479Y-91439641D01*
X170832785Y-91349999D01*
X180690715Y-91349999D01*
X180690715Y-91350000D01*
X180709771Y-91494752D01*
X180765644Y-91629641D01*
X180765649Y-91629649D01*
X180854525Y-91745474D01*
X180970350Y-91834350D01*
X180970357Y-91834355D01*
X181105246Y-91890228D01*
X181250000Y-91909285D01*
X181394754Y-91890228D01*
X181529643Y-91834355D01*
X181645474Y-91745474D01*
X181734355Y-91629643D01*
X181790228Y-91494754D01*
X181809285Y-91350000D01*
X181807009Y-91332715D01*
X181790228Y-91205247D01*
X181789598Y-91203725D01*
X181734355Y-91070358D01*
X181645474Y-90954526D01*
X181645472Y-90954524D01*
X181645471Y-90954523D01*
X181539226Y-90872998D01*
X191153037Y-90872998D01*
X191153038Y-90873000D01*
X191766392Y-90873000D01*
X191750000Y-90934174D01*
X191750000Y-91065826D01*
X191766392Y-91127000D01*
X191153038Y-91127000D01*
X191153037Y-91127001D01*
X191160147Y-91203725D01*
X191216138Y-91400514D01*
X191216140Y-91400519D01*
X191307340Y-91583672D01*
X191430637Y-91746946D01*
X191581838Y-91884784D01*
X191755796Y-91992493D01*
X191755803Y-91992496D01*
X191946578Y-92066403D01*
X191946576Y-92066403D01*
X192123000Y-92099381D01*
X192123000Y-91483608D01*
X192184174Y-91500000D01*
X192315826Y-91500000D01*
X192377000Y-91483608D01*
X192377000Y-92099381D01*
X192553422Y-92066403D01*
X192744196Y-91992496D01*
X192744203Y-91992493D01*
X192918161Y-91884784D01*
X193069362Y-91746946D01*
X193192659Y-91583672D01*
X193283859Y-91400519D01*
X193283861Y-91400514D01*
X193339852Y-91203725D01*
X193346962Y-91127001D01*
X193346962Y-91127000D01*
X192733608Y-91127000D01*
X192750000Y-91065826D01*
X192750000Y-90934174D01*
X192733608Y-90873000D01*
X193346962Y-90873000D01*
X193346962Y-90872998D01*
X193339852Y-90796274D01*
X193283861Y-90599485D01*
X193283859Y-90599480D01*
X193192659Y-90416327D01*
X193069362Y-90253053D01*
X192918161Y-90115215D01*
X192744203Y-90007506D01*
X192744196Y-90007503D01*
X192553422Y-89933596D01*
X192553424Y-89933596D01*
X192377000Y-89900617D01*
X192377000Y-90516391D01*
X192315826Y-90500000D01*
X192184174Y-90500000D01*
X192123000Y-90516391D01*
X192123000Y-89900617D01*
X191946576Y-89933596D01*
X191755803Y-90007503D01*
X191755796Y-90007506D01*
X191581838Y-90115215D01*
X191430637Y-90253053D01*
X191307340Y-90416327D01*
X191216140Y-90599480D01*
X191216138Y-90599485D01*
X191160147Y-90796274D01*
X191153037Y-90872998D01*
X181539226Y-90872998D01*
X181529649Y-90865649D01*
X181529641Y-90865644D01*
X181394752Y-90809771D01*
X181250000Y-90790715D01*
X181105247Y-90809771D01*
X181037802Y-90837708D01*
X180970358Y-90865645D01*
X180970357Y-90865646D01*
X180970356Y-90865646D01*
X180854526Y-90954526D01*
X180765646Y-91070356D01*
X180765645Y-91070358D01*
X180737708Y-91137802D01*
X180709771Y-91205247D01*
X180690715Y-91349999D01*
X170832785Y-91349999D01*
X170819733Y-91332715D01*
X170668463Y-91194814D01*
X170494433Y-91087059D01*
X170494428Y-91087057D01*
X170494427Y-91087056D01*
X170451322Y-91070357D01*
X170303559Y-91013113D01*
X170303560Y-91013113D01*
X170303557Y-91013112D01*
X170303556Y-91013112D01*
X170102347Y-90975500D01*
X169897653Y-90975500D01*
X169696444Y-91013112D01*
X169696439Y-91013113D01*
X169505577Y-91087054D01*
X169505566Y-91087059D01*
X169331536Y-91194814D01*
X169180266Y-91332715D01*
X169056913Y-91496063D01*
X168965671Y-91679301D01*
X168909654Y-91876180D01*
X168890768Y-92079995D01*
X161384232Y-92079995D01*
X161365345Y-91876180D01*
X161353445Y-91834355D01*
X161309328Y-91679299D01*
X161218088Y-91496065D01*
X161175479Y-91439641D01*
X161094733Y-91332715D01*
X160943463Y-91194814D01*
X160887235Y-91159999D01*
X167630715Y-91159999D01*
X167630715Y-91160000D01*
X167649771Y-91304752D01*
X167705644Y-91439641D01*
X167705649Y-91439649D01*
X167794525Y-91555474D01*
X167910350Y-91644350D01*
X167910357Y-91644355D01*
X168045246Y-91700228D01*
X168190000Y-91719285D01*
X168334754Y-91700228D01*
X168469643Y-91644355D01*
X168585474Y-91555474D01*
X168674355Y-91439643D01*
X168730228Y-91304754D01*
X168749285Y-91160000D01*
X168730228Y-91015246D01*
X168674355Y-90880358D01*
X168585474Y-90764526D01*
X168585472Y-90764524D01*
X168585471Y-90764523D01*
X168469649Y-90675649D01*
X168469641Y-90675644D01*
X168334752Y-90619771D01*
X168190000Y-90600715D01*
X168045247Y-90619771D01*
X167985548Y-90644500D01*
X167910358Y-90675645D01*
X167910357Y-90675646D01*
X167910356Y-90675646D01*
X167794526Y-90764526D01*
X167705646Y-90880356D01*
X167705645Y-90880358D01*
X167677708Y-90947802D01*
X167649771Y-91015247D01*
X167630715Y-91159999D01*
X160887235Y-91159999D01*
X160769433Y-91087059D01*
X160769428Y-91087057D01*
X160769427Y-91087056D01*
X160726322Y-91070357D01*
X160578559Y-91013113D01*
X160578560Y-91013113D01*
X160578557Y-91013112D01*
X160578556Y-91013112D01*
X160377347Y-90975500D01*
X160172653Y-90975500D01*
X159971444Y-91013112D01*
X159971439Y-91013113D01*
X159780577Y-91087054D01*
X159780566Y-91087059D01*
X159606536Y-91194814D01*
X159455266Y-91332715D01*
X159331913Y-91496063D01*
X159240671Y-91679301D01*
X159184654Y-91876180D01*
X159165768Y-92079995D01*
X158235000Y-92079995D01*
X158235000Y-92014174D01*
X158218608Y-91953000D01*
X158831962Y-91953000D01*
X158831962Y-91952998D01*
X158824852Y-91876274D01*
X158768861Y-91679485D01*
X158768859Y-91679480D01*
X158677659Y-91496327D01*
X158554362Y-91333053D01*
X158403161Y-91195215D01*
X158229203Y-91087506D01*
X158229196Y-91087503D01*
X158038422Y-91013596D01*
X158038424Y-91013596D01*
X157862000Y-90980617D01*
X157862000Y-91596391D01*
X157800826Y-91580000D01*
X157669174Y-91580000D01*
X157608000Y-91596391D01*
X157608000Y-90980617D01*
X157431576Y-91013596D01*
X157240803Y-91087503D01*
X157240796Y-91087506D01*
X157066838Y-91195215D01*
X156915637Y-91333053D01*
X156792340Y-91496327D01*
X156701140Y-91679480D01*
X156701138Y-91679485D01*
X156645147Y-91876274D01*
X156638037Y-91952998D01*
X155500500Y-91952998D01*
X155500500Y-89539995D01*
X156625768Y-89539995D01*
X156625768Y-89540004D01*
X156644654Y-89743819D01*
X156644655Y-89743821D01*
X156700672Y-89940701D01*
X156791912Y-90123935D01*
X156791913Y-90123936D01*
X156915266Y-90287284D01*
X157066536Y-90425185D01*
X157240566Y-90532940D01*
X157240568Y-90532940D01*
X157240573Y-90532944D01*
X157431444Y-90606888D01*
X157632653Y-90644500D01*
X157632655Y-90644500D01*
X157837345Y-90644500D01*
X157837347Y-90644500D01*
X158038556Y-90606888D01*
X158229427Y-90532944D01*
X158403462Y-90425186D01*
X158554732Y-90287285D01*
X158678088Y-90123935D01*
X158769328Y-89940701D01*
X158825345Y-89743821D01*
X158831640Y-89675880D01*
X158844232Y-89540004D01*
X158844232Y-89539995D01*
X159165768Y-89539995D01*
X159165768Y-89540004D01*
X159184654Y-89743819D01*
X159184655Y-89743821D01*
X159240672Y-89940701D01*
X159331912Y-90123935D01*
X159331913Y-90123936D01*
X159455266Y-90287284D01*
X159606536Y-90425185D01*
X159780566Y-90532940D01*
X159780568Y-90532940D01*
X159780573Y-90532944D01*
X159971444Y-90606888D01*
X160172653Y-90644500D01*
X160172655Y-90644500D01*
X160377345Y-90644500D01*
X160377347Y-90644500D01*
X160578556Y-90606888D01*
X160769427Y-90532944D01*
X160943462Y-90425186D01*
X161094732Y-90287285D01*
X161218088Y-90123935D01*
X161309328Y-89940701D01*
X161365345Y-89743821D01*
X161371640Y-89675880D01*
X161384232Y-89540004D01*
X161384232Y-89539996D01*
X161379014Y-89483691D01*
X161392644Y-89414015D01*
X161441781Y-89362769D01*
X161510823Y-89346224D01*
X161577849Y-89369632D01*
X161598605Y-89389715D01*
X161598686Y-89389635D01*
X161603575Y-89394524D01*
X161604439Y-89395360D01*
X161604528Y-89395476D01*
X161720350Y-89484350D01*
X161720357Y-89484355D01*
X161855246Y-89540228D01*
X162000000Y-89559285D01*
X162144754Y-89540228D01*
X162145317Y-89539995D01*
X168890768Y-89539995D01*
X168890768Y-89540004D01*
X168909654Y-89743819D01*
X168909655Y-89743821D01*
X168965672Y-89940701D01*
X169056912Y-90123935D01*
X169056913Y-90123936D01*
X169180266Y-90287284D01*
X169331536Y-90425185D01*
X169505566Y-90532940D01*
X169505568Y-90532940D01*
X169505573Y-90532944D01*
X169696444Y-90606888D01*
X169897653Y-90644500D01*
X169897655Y-90644500D01*
X170102345Y-90644500D01*
X170102347Y-90644500D01*
X170303556Y-90606888D01*
X170494427Y-90532944D01*
X170668462Y-90425186D01*
X170819732Y-90287285D01*
X170943088Y-90123935D01*
X171034328Y-89940701D01*
X171090345Y-89743821D01*
X171096640Y-89675880D01*
X171109232Y-89540004D01*
X171109232Y-89539995D01*
X171090345Y-89336180D01*
X171074259Y-89279643D01*
X171034328Y-89139299D01*
X171014759Y-89099999D01*
X178140715Y-89099999D01*
X178140715Y-89100000D01*
X178159771Y-89244752D01*
X178215644Y-89379641D01*
X178215649Y-89379649D01*
X178304525Y-89495474D01*
X178387685Y-89559285D01*
X178420357Y-89584355D01*
X178555246Y-89640228D01*
X178700000Y-89659285D01*
X178844754Y-89640228D01*
X178979643Y-89584355D01*
X179095474Y-89495474D01*
X179184355Y-89379643D01*
X179240228Y-89244754D01*
X179259285Y-89100000D01*
X179240228Y-88955246D01*
X179184355Y-88820358D01*
X179095474Y-88704526D01*
X179095472Y-88704524D01*
X179095471Y-88704523D01*
X178979649Y-88615649D01*
X178979641Y-88615644D01*
X178844752Y-88559771D01*
X178700000Y-88540715D01*
X178555247Y-88559771D01*
X178487802Y-88587708D01*
X178420358Y-88615645D01*
X178420357Y-88615646D01*
X178420356Y-88615646D01*
X178304526Y-88704526D01*
X178215646Y-88820356D01*
X178215645Y-88820358D01*
X178187708Y-88887802D01*
X178159771Y-88955247D01*
X178140715Y-89099999D01*
X171014759Y-89099999D01*
X170943088Y-88956065D01*
X170866954Y-88855247D01*
X170819733Y-88792715D01*
X170668463Y-88654814D01*
X170494433Y-88547059D01*
X170494428Y-88547057D01*
X170494427Y-88547056D01*
X170476802Y-88540228D01*
X170303559Y-88473113D01*
X170303560Y-88473113D01*
X170303557Y-88473112D01*
X170303556Y-88473112D01*
X170102347Y-88435500D01*
X169897653Y-88435500D01*
X169696444Y-88473112D01*
X169696439Y-88473113D01*
X169505577Y-88547054D01*
X169505566Y-88547059D01*
X169331536Y-88654814D01*
X169180266Y-88792715D01*
X169056913Y-88956063D01*
X168965671Y-89139301D01*
X168909654Y-89336180D01*
X168890768Y-89539995D01*
X162145317Y-89539995D01*
X162279643Y-89484355D01*
X162395474Y-89395474D01*
X162484355Y-89279643D01*
X162540228Y-89144754D01*
X162559285Y-89000000D01*
X162540228Y-88855246D01*
X162484355Y-88720358D01*
X162395474Y-88604526D01*
X162395472Y-88604524D01*
X162395471Y-88604523D01*
X162279649Y-88515649D01*
X162279641Y-88515644D01*
X162144752Y-88459771D01*
X162000000Y-88440715D01*
X161855247Y-88459771D01*
X161807259Y-88479649D01*
X161720358Y-88515645D01*
X161720357Y-88515646D01*
X161720356Y-88515646D01*
X161604526Y-88604526D01*
X161515646Y-88720356D01*
X161515645Y-88720358D01*
X161459772Y-88855246D01*
X161459772Y-88855247D01*
X161452552Y-88910083D01*
X161423828Y-88975010D01*
X161364563Y-89014101D01*
X161293571Y-89014945D01*
X161233393Y-88977273D01*
X161220500Y-88959961D01*
X161218086Y-88956062D01*
X161094733Y-88792715D01*
X160943463Y-88654814D01*
X160769433Y-88547059D01*
X160769428Y-88547057D01*
X160769427Y-88547056D01*
X160751802Y-88540228D01*
X160578559Y-88473113D01*
X160578560Y-88473113D01*
X160578557Y-88473112D01*
X160578556Y-88473112D01*
X160377347Y-88435500D01*
X160172653Y-88435500D01*
X159971444Y-88473112D01*
X159971439Y-88473113D01*
X159780577Y-88547054D01*
X159780566Y-88547059D01*
X159606536Y-88654814D01*
X159455266Y-88792715D01*
X159331913Y-88956063D01*
X159240671Y-89139301D01*
X159184654Y-89336180D01*
X159165768Y-89539995D01*
X158844232Y-89539995D01*
X158825345Y-89336180D01*
X158809259Y-89279643D01*
X158769328Y-89139299D01*
X158678088Y-88956065D01*
X158601954Y-88855247D01*
X158554733Y-88792715D01*
X158403463Y-88654814D01*
X158229433Y-88547059D01*
X158229428Y-88547057D01*
X158229427Y-88547056D01*
X158211802Y-88540228D01*
X158038559Y-88473113D01*
X158038560Y-88473113D01*
X158038557Y-88473112D01*
X158038556Y-88473112D01*
X157837347Y-88435500D01*
X157632653Y-88435500D01*
X157431444Y-88473112D01*
X157431439Y-88473113D01*
X157240577Y-88547054D01*
X157240566Y-88547059D01*
X157066536Y-88654814D01*
X156915266Y-88792715D01*
X156791913Y-88956063D01*
X156700671Y-89139301D01*
X156644654Y-89336180D01*
X156625768Y-89539995D01*
X155500500Y-89539995D01*
X155500500Y-88199999D01*
X174640715Y-88199999D01*
X174640715Y-88200000D01*
X174659771Y-88344752D01*
X174715644Y-88479641D01*
X174715649Y-88479649D01*
X174804525Y-88595474D01*
X174920350Y-88684350D01*
X174920357Y-88684355D01*
X175055246Y-88740228D01*
X175200000Y-88759285D01*
X175344754Y-88740228D01*
X175479643Y-88684355D01*
X175595474Y-88595474D01*
X175684355Y-88479643D01*
X175740228Y-88344754D01*
X175759285Y-88200000D01*
X175740228Y-88055246D01*
X175717344Y-87999999D01*
X182440715Y-87999999D01*
X182440715Y-88000000D01*
X182459771Y-88144752D01*
X182515644Y-88279641D01*
X182515649Y-88279649D01*
X182604525Y-88395474D01*
X182714216Y-88479643D01*
X182720357Y-88484355D01*
X182855246Y-88540228D01*
X183000000Y-88559285D01*
X183144754Y-88540228D01*
X183279643Y-88484355D01*
X183395474Y-88395474D01*
X183484355Y-88279643D01*
X183540228Y-88144754D01*
X183559285Y-88000000D01*
X183540228Y-87855246D01*
X183484355Y-87720358D01*
X183395474Y-87604526D01*
X183395472Y-87604524D01*
X183395471Y-87604523D01*
X183279649Y-87515649D01*
X183279641Y-87515644D01*
X183144752Y-87459771D01*
X183000000Y-87440715D01*
X182855247Y-87459771D01*
X182787802Y-87487708D01*
X182720358Y-87515645D01*
X182720357Y-87515646D01*
X182720356Y-87515646D01*
X182604526Y-87604526D01*
X182515646Y-87720356D01*
X182515645Y-87720358D01*
X182491089Y-87779641D01*
X182459771Y-87855247D01*
X182440715Y-87999999D01*
X175717344Y-87999999D01*
X175684355Y-87920358D01*
X175595474Y-87804526D01*
X175595472Y-87804524D01*
X175595471Y-87804523D01*
X175479649Y-87715649D01*
X175479641Y-87715644D01*
X175344752Y-87659771D01*
X175200000Y-87640715D01*
X175055247Y-87659771D01*
X174987802Y-87687708D01*
X174920358Y-87715645D01*
X174920357Y-87715646D01*
X174920356Y-87715646D01*
X174804526Y-87804526D01*
X174715646Y-87920356D01*
X174715645Y-87920358D01*
X174703656Y-87949302D01*
X174659771Y-88055247D01*
X174640715Y-88199999D01*
X155500500Y-88199999D01*
X155500500Y-86999995D01*
X156625768Y-86999995D01*
X156625768Y-87000004D01*
X156644654Y-87203819D01*
X156649360Y-87220358D01*
X156700672Y-87400701D01*
X156791912Y-87583935D01*
X156791913Y-87583936D01*
X156915266Y-87747284D01*
X157066536Y-87885185D01*
X157240566Y-87992940D01*
X157240568Y-87992940D01*
X157240573Y-87992944D01*
X157431444Y-88066888D01*
X157632653Y-88104500D01*
X157632655Y-88104500D01*
X157837345Y-88104500D01*
X157837347Y-88104500D01*
X158038556Y-88066888D01*
X158229427Y-87992944D01*
X158403462Y-87885186D01*
X158554732Y-87747285D01*
X158678088Y-87583935D01*
X158769328Y-87400701D01*
X158825345Y-87203821D01*
X158842782Y-87015646D01*
X158844232Y-87000004D01*
X158844232Y-86999995D01*
X159165768Y-86999995D01*
X159165768Y-87000004D01*
X159184654Y-87203819D01*
X159189360Y-87220358D01*
X159240672Y-87400701D01*
X159331912Y-87583935D01*
X159331913Y-87583936D01*
X159455266Y-87747284D01*
X159606536Y-87885185D01*
X159780566Y-87992940D01*
X159780568Y-87992940D01*
X159780573Y-87992944D01*
X159971444Y-88066888D01*
X160172653Y-88104500D01*
X160172655Y-88104500D01*
X160377345Y-88104500D01*
X160377347Y-88104500D01*
X160578556Y-88066888D01*
X160769427Y-87992944D01*
X160943462Y-87885186D01*
X161094732Y-87747285D01*
X161218088Y-87583935D01*
X161259883Y-87499999D01*
X161940715Y-87499999D01*
X161940715Y-87500000D01*
X161959771Y-87644752D01*
X162015644Y-87779641D01*
X162015649Y-87779649D01*
X162104525Y-87895474D01*
X162174675Y-87949302D01*
X162220357Y-87984355D01*
X162355246Y-88040228D01*
X162500000Y-88059285D01*
X162644754Y-88040228D01*
X162779643Y-87984355D01*
X162895474Y-87895474D01*
X162984355Y-87779643D01*
X163040228Y-87644754D01*
X163059285Y-87500000D01*
X163040228Y-87355246D01*
X162984355Y-87220358D01*
X162895474Y-87104526D01*
X162895472Y-87104524D01*
X162895471Y-87104523D01*
X162779649Y-87015649D01*
X162779641Y-87015644D01*
X162644752Y-86959771D01*
X162500000Y-86940715D01*
X162355247Y-86959771D01*
X162287802Y-86987708D01*
X162220358Y-87015645D01*
X162220357Y-87015646D01*
X162220356Y-87015646D01*
X162104526Y-87104526D01*
X162015646Y-87220356D01*
X162015645Y-87220358D01*
X161987708Y-87287802D01*
X161959771Y-87355247D01*
X161940715Y-87499999D01*
X161259883Y-87499999D01*
X161309328Y-87400701D01*
X161365345Y-87203821D01*
X161382782Y-87015646D01*
X161384232Y-87000004D01*
X161384232Y-86999995D01*
X161365345Y-86796180D01*
X161365345Y-86796179D01*
X161309328Y-86599299D01*
X161218088Y-86416065D01*
X161177538Y-86362368D01*
X161094733Y-86252715D01*
X160954560Y-86124930D01*
X168895500Y-86124930D01*
X168895500Y-87875063D01*
X168895501Y-87875073D01*
X168910265Y-87949300D01*
X168966516Y-88033484D01*
X169050697Y-88089733D01*
X169050699Y-88089734D01*
X169124933Y-88104500D01*
X170875066Y-88104499D01*
X170875069Y-88104498D01*
X170875073Y-88104498D01*
X170924326Y-88094701D01*
X170949301Y-88089734D01*
X171033484Y-88033484D01*
X171089734Y-87949301D01*
X171104500Y-87875067D01*
X171104499Y-86124934D01*
X171104498Y-86124930D01*
X171104498Y-86124926D01*
X171089734Y-86050699D01*
X171033483Y-85966515D01*
X170949302Y-85910266D01*
X170875067Y-85895500D01*
X169124936Y-85895500D01*
X169124926Y-85895501D01*
X169050699Y-85910265D01*
X168966515Y-85966516D01*
X168910266Y-86050697D01*
X168895500Y-86124930D01*
X160954560Y-86124930D01*
X160943463Y-86114814D01*
X160769433Y-86007059D01*
X160769428Y-86007057D01*
X160769427Y-86007056D01*
X160769422Y-86007054D01*
X160578559Y-85933113D01*
X160578560Y-85933113D01*
X160578557Y-85933112D01*
X160578556Y-85933112D01*
X160377347Y-85895500D01*
X160172653Y-85895500D01*
X159971444Y-85933112D01*
X159971439Y-85933113D01*
X159780577Y-86007054D01*
X159780566Y-86007059D01*
X159606536Y-86114814D01*
X159455266Y-86252715D01*
X159331913Y-86416063D01*
X159240671Y-86599301D01*
X159184654Y-86796180D01*
X159165768Y-86999995D01*
X158844232Y-86999995D01*
X158825345Y-86796180D01*
X158825345Y-86796179D01*
X158769328Y-86599299D01*
X158678088Y-86416065D01*
X158637538Y-86362368D01*
X158554733Y-86252715D01*
X158403463Y-86114814D01*
X158229433Y-86007059D01*
X158229428Y-86007057D01*
X158229427Y-86007056D01*
X158229422Y-86007054D01*
X158038559Y-85933113D01*
X158038560Y-85933113D01*
X158038557Y-85933112D01*
X158038556Y-85933112D01*
X157837347Y-85895500D01*
X157632653Y-85895500D01*
X157431444Y-85933112D01*
X157431439Y-85933113D01*
X157240577Y-86007054D01*
X157240566Y-86007059D01*
X157066536Y-86114814D01*
X156915266Y-86252715D01*
X156791913Y-86416063D01*
X156700671Y-86599301D01*
X156644654Y-86796180D01*
X156625768Y-86999995D01*
X155500500Y-86999995D01*
X155500500Y-82999999D01*
X167440715Y-82999999D01*
X167440715Y-83000000D01*
X167459771Y-83144752D01*
X167515644Y-83279641D01*
X167515649Y-83279649D01*
X167604525Y-83395474D01*
X167720350Y-83484350D01*
X167720357Y-83484355D01*
X167855246Y-83540228D01*
X168000000Y-83559285D01*
X168144754Y-83540228D01*
X168279643Y-83484355D01*
X168395474Y-83395474D01*
X168484355Y-83279643D01*
X168540228Y-83144754D01*
X168559285Y-83000000D01*
X168559285Y-82999999D01*
X188440715Y-82999999D01*
X188440715Y-83000000D01*
X188459771Y-83144752D01*
X188515644Y-83279641D01*
X188515649Y-83279649D01*
X188604525Y-83395474D01*
X188720350Y-83484350D01*
X188720357Y-83484355D01*
X188855246Y-83540228D01*
X189000000Y-83559285D01*
X189144754Y-83540228D01*
X189279643Y-83484355D01*
X189395474Y-83395474D01*
X189484355Y-83279643D01*
X189540228Y-83144754D01*
X189559285Y-83000000D01*
X189540228Y-82855246D01*
X189484355Y-82720358D01*
X189395474Y-82604526D01*
X189395472Y-82604524D01*
X189395471Y-82604523D01*
X189279649Y-82515649D01*
X189279641Y-82515644D01*
X189144752Y-82459771D01*
X189000000Y-82440715D01*
X188855247Y-82459771D01*
X188795910Y-82484350D01*
X188720358Y-82515645D01*
X188720357Y-82515646D01*
X188720356Y-82515646D01*
X188604526Y-82604526D01*
X188515646Y-82720356D01*
X188515645Y-82720358D01*
X188493074Y-82774848D01*
X188459771Y-82855247D01*
X188440715Y-82999999D01*
X168559285Y-82999999D01*
X168540228Y-82855246D01*
X168484355Y-82720358D01*
X168395474Y-82604526D01*
X168395472Y-82604524D01*
X168395471Y-82604523D01*
X168279649Y-82515649D01*
X168279641Y-82515644D01*
X168144752Y-82459771D01*
X168000000Y-82440715D01*
X167855247Y-82459771D01*
X167795910Y-82484350D01*
X167720358Y-82515645D01*
X167720357Y-82515646D01*
X167720356Y-82515646D01*
X167604526Y-82604526D01*
X167515646Y-82720356D01*
X167515645Y-82720358D01*
X167493074Y-82774848D01*
X167459771Y-82855247D01*
X167440715Y-82999999D01*
X155500500Y-82999999D01*
X155500500Y-82024999D01*
X159790715Y-82024999D01*
X159790715Y-82025000D01*
X159809771Y-82169752D01*
X159865644Y-82304641D01*
X159865649Y-82304649D01*
X159954525Y-82420474D01*
X160070350Y-82509350D01*
X160070357Y-82509355D01*
X160205246Y-82565228D01*
X160350000Y-82584285D01*
X160494754Y-82565228D01*
X160629643Y-82509355D01*
X160745474Y-82420474D01*
X160834355Y-82304643D01*
X160863360Y-82234619D01*
X180756095Y-82234619D01*
X180756095Y-82234620D01*
X180775151Y-82379372D01*
X180831024Y-82514261D01*
X180831029Y-82514269D01*
X180919905Y-82630094D01*
X181035730Y-82718970D01*
X181035737Y-82718975D01*
X181170626Y-82774848D01*
X181315380Y-82793905D01*
X181460134Y-82774848D01*
X181595023Y-82718975D01*
X181710854Y-82630094D01*
X181799735Y-82514263D01*
X181855608Y-82379374D01*
X181874665Y-82234620D01*
X181855608Y-82089866D01*
X181818383Y-81999999D01*
X183440715Y-81999999D01*
X183440715Y-82000000D01*
X183459771Y-82144752D01*
X183515644Y-82279641D01*
X183515649Y-82279649D01*
X183604525Y-82395474D01*
X183720350Y-82484350D01*
X183720357Y-82484355D01*
X183855246Y-82540228D01*
X184000000Y-82559285D01*
X184144754Y-82540228D01*
X184279643Y-82484355D01*
X184395474Y-82395474D01*
X184484355Y-82279643D01*
X184540228Y-82144754D01*
X184559285Y-82000000D01*
X184540228Y-81855246D01*
X184484355Y-81720358D01*
X184395474Y-81604526D01*
X184395472Y-81604524D01*
X184395471Y-81604523D01*
X184279649Y-81515649D01*
X184279641Y-81515644D01*
X184144752Y-81459771D01*
X184000000Y-81440715D01*
X183855247Y-81459771D01*
X183794894Y-81484771D01*
X183720358Y-81515645D01*
X183720357Y-81515646D01*
X183720356Y-81515646D01*
X183604526Y-81604526D01*
X183515646Y-81720356D01*
X183515645Y-81720358D01*
X183487708Y-81787802D01*
X183459771Y-81855247D01*
X183440715Y-81999999D01*
X181818383Y-81999999D01*
X181799735Y-81954978D01*
X181710854Y-81839146D01*
X181710852Y-81839144D01*
X181710851Y-81839143D01*
X181595029Y-81750269D01*
X181595021Y-81750264D01*
X181460132Y-81694391D01*
X181315380Y-81675335D01*
X181170627Y-81694391D01*
X181107939Y-81720358D01*
X181035738Y-81750265D01*
X181035737Y-81750266D01*
X181035736Y-81750266D01*
X180919906Y-81839146D01*
X180831026Y-81954976D01*
X180831025Y-81954978D01*
X180812377Y-81999999D01*
X180775151Y-82089867D01*
X180756095Y-82234619D01*
X160863360Y-82234619D01*
X160890228Y-82169754D01*
X160909285Y-82025000D01*
X160890228Y-81880246D01*
X160834355Y-81745358D01*
X160745474Y-81629526D01*
X160745472Y-81629524D01*
X160745471Y-81629523D01*
X160629649Y-81540649D01*
X160629641Y-81540644D01*
X160494752Y-81484771D01*
X160350000Y-81465715D01*
X160205247Y-81484771D01*
X160137802Y-81512708D01*
X160070358Y-81540645D01*
X160070357Y-81540646D01*
X160070356Y-81540646D01*
X159954526Y-81629526D01*
X159865646Y-81745356D01*
X159865645Y-81745358D01*
X159863611Y-81750269D01*
X159809771Y-81880247D01*
X159790715Y-82024999D01*
X155500500Y-82024999D01*
X155500500Y-79999999D01*
X176440715Y-79999999D01*
X176440715Y-80000000D01*
X176459771Y-80144752D01*
X176515644Y-80279641D01*
X176515649Y-80279649D01*
X176604525Y-80395474D01*
X176720350Y-80484350D01*
X176720357Y-80484355D01*
X176855246Y-80540228D01*
X177000000Y-80559285D01*
X177144754Y-80540228D01*
X177279643Y-80484355D01*
X177395474Y-80395474D01*
X177484355Y-80279643D01*
X177540228Y-80144754D01*
X177559285Y-80000000D01*
X177540228Y-79855246D01*
X177484355Y-79720358D01*
X177395474Y-79604526D01*
X177395472Y-79604524D01*
X177395471Y-79604523D01*
X177279649Y-79515649D01*
X177279641Y-79515644D01*
X177144752Y-79459771D01*
X177000000Y-79440715D01*
X176855247Y-79459771D01*
X176795910Y-79484350D01*
X176720358Y-79515645D01*
X176720357Y-79515646D01*
X176720356Y-79515646D01*
X176604526Y-79604526D01*
X176515646Y-79720356D01*
X176515645Y-79720358D01*
X176487708Y-79787802D01*
X176459771Y-79855247D01*
X176440715Y-79999999D01*
X155500500Y-79999999D01*
X155500500Y-78999999D01*
X169440715Y-78999999D01*
X169440715Y-79000000D01*
X169459771Y-79144752D01*
X169515644Y-79279641D01*
X169515649Y-79279649D01*
X169604525Y-79395474D01*
X169720350Y-79484350D01*
X169720357Y-79484355D01*
X169855246Y-79540228D01*
X170000000Y-79559285D01*
X170144754Y-79540228D01*
X170279643Y-79484355D01*
X170395474Y-79395474D01*
X170484355Y-79279643D01*
X170540228Y-79144754D01*
X170559285Y-79000000D01*
X170540228Y-78855246D01*
X170484355Y-78720358D01*
X170395474Y-78604526D01*
X170395472Y-78604524D01*
X170395471Y-78604523D01*
X170279649Y-78515649D01*
X170279641Y-78515644D01*
X170144752Y-78459771D01*
X170000000Y-78440715D01*
X169855247Y-78459771D01*
X169787802Y-78487708D01*
X169720358Y-78515645D01*
X169720357Y-78515646D01*
X169720356Y-78515646D01*
X169604526Y-78604526D01*
X169515646Y-78720356D01*
X169515645Y-78720358D01*
X169487708Y-78787802D01*
X169459771Y-78855247D01*
X169440715Y-78999999D01*
X155500500Y-78999999D01*
X155500500Y-75974999D01*
X161740715Y-75974999D01*
X161740715Y-75975000D01*
X161759771Y-76119752D01*
X161815644Y-76254641D01*
X161815649Y-76254649D01*
X161904525Y-76370474D01*
X161937106Y-76395474D01*
X162020357Y-76459355D01*
X162155246Y-76515228D01*
X162300000Y-76534285D01*
X162444754Y-76515228D01*
X162579643Y-76459355D01*
X162695474Y-76370474D01*
X162784355Y-76254643D01*
X162840228Y-76119754D01*
X162855994Y-75999999D01*
X183440715Y-75999999D01*
X183440715Y-76000000D01*
X183459771Y-76144752D01*
X183515644Y-76279641D01*
X183515649Y-76279649D01*
X183604525Y-76395474D01*
X183720350Y-76484350D01*
X183720357Y-76484355D01*
X183855246Y-76540228D01*
X184000000Y-76559285D01*
X184144754Y-76540228D01*
X184279643Y-76484355D01*
X184395474Y-76395474D01*
X184484355Y-76279643D01*
X184540228Y-76144754D01*
X184559285Y-76000000D01*
X184540228Y-75855246D01*
X184484355Y-75720358D01*
X184395474Y-75604526D01*
X184395472Y-75604524D01*
X184395471Y-75604523D01*
X184279649Y-75515649D01*
X184279641Y-75515644D01*
X184144752Y-75459771D01*
X184000000Y-75440715D01*
X183855247Y-75459771D01*
X183787802Y-75487708D01*
X183720358Y-75515645D01*
X183720357Y-75515646D01*
X183720356Y-75515646D01*
X183604526Y-75604526D01*
X183515646Y-75720356D01*
X183515645Y-75720358D01*
X183487708Y-75787802D01*
X183459771Y-75855247D01*
X183440715Y-75999999D01*
X162855994Y-75999999D01*
X162859285Y-75975000D01*
X162840228Y-75830246D01*
X162784355Y-75695358D01*
X162695474Y-75579526D01*
X162695472Y-75579524D01*
X162695471Y-75579523D01*
X162579649Y-75490649D01*
X162579641Y-75490644D01*
X162444752Y-75434771D01*
X162300000Y-75415715D01*
X162155247Y-75434771D01*
X162094894Y-75459771D01*
X162020358Y-75490645D01*
X162020357Y-75490646D01*
X162020356Y-75490646D01*
X161904526Y-75579526D01*
X161815646Y-75695356D01*
X161815645Y-75695358D01*
X161805290Y-75720357D01*
X161759771Y-75830247D01*
X161740715Y-75974999D01*
X155500500Y-75974999D01*
X155500500Y-73003805D01*
X155500730Y-72996198D01*
X155506706Y-72897397D01*
X156696300Y-72897397D01*
X156696300Y-73102603D01*
X156712332Y-73203821D01*
X156728403Y-73305288D01*
X156791668Y-73500000D01*
X156791814Y-73500447D01*
X156834354Y-73583936D01*
X156884978Y-73683291D01*
X157005595Y-73849305D01*
X157150694Y-73994404D01*
X157250456Y-74066886D01*
X157316712Y-74115024D01*
X157499553Y-74208186D01*
X157694716Y-74271598D01*
X157897397Y-74303700D01*
X157897400Y-74303700D01*
X158102600Y-74303700D01*
X158102603Y-74303700D01*
X158305284Y-74271598D01*
X158500447Y-74208186D01*
X158683288Y-74115024D01*
X158849303Y-73994406D01*
X158994406Y-73849303D01*
X159115024Y-73683288D01*
X159208186Y-73500447D01*
X159271598Y-73305284D01*
X159303700Y-73102603D01*
X159303700Y-72897397D01*
X159271598Y-72694716D01*
X159208186Y-72499553D01*
X159115024Y-72316712D01*
X158994406Y-72150697D01*
X158994404Y-72150694D01*
X158968640Y-72124930D01*
X168815500Y-72124930D01*
X168815500Y-73875063D01*
X168815501Y-73875073D01*
X168830265Y-73949300D01*
X168886516Y-74033484D01*
X168970697Y-74089733D01*
X168970699Y-74089734D01*
X169044933Y-74104500D01*
X170795066Y-74104499D01*
X170795069Y-74104498D01*
X170795073Y-74104498D01*
X170844326Y-74094701D01*
X170869301Y-74089734D01*
X170953484Y-74033484D01*
X171009734Y-73949301D01*
X171024500Y-73875067D01*
X171024499Y-72999995D01*
X171350768Y-72999995D01*
X171350768Y-73000004D01*
X171369654Y-73203819D01*
X171399014Y-73307007D01*
X171425672Y-73400701D01*
X171516912Y-73583935D01*
X171516913Y-73583936D01*
X171640266Y-73747284D01*
X171791536Y-73885185D01*
X171965566Y-73992940D01*
X171965568Y-73992940D01*
X171965573Y-73992944D01*
X172156444Y-74066888D01*
X172357653Y-74104500D01*
X172357655Y-74104500D01*
X172562345Y-74104500D01*
X172562347Y-74104500D01*
X172763556Y-74066888D01*
X172954427Y-73992944D01*
X173128462Y-73885186D01*
X173279732Y-73747285D01*
X173403088Y-73583935D01*
X173494328Y-73400701D01*
X173550345Y-73203821D01*
X173556640Y-73135880D01*
X173569232Y-73000004D01*
X173569232Y-72999995D01*
X173890768Y-72999995D01*
X173890768Y-73000004D01*
X173909654Y-73203819D01*
X173939014Y-73307007D01*
X173965672Y-73400701D01*
X174056912Y-73583935D01*
X174056913Y-73583936D01*
X174180266Y-73747284D01*
X174331536Y-73885185D01*
X174505566Y-73992940D01*
X174505568Y-73992940D01*
X174505573Y-73992944D01*
X174696444Y-74066888D01*
X174897653Y-74104500D01*
X174897655Y-74104500D01*
X175102345Y-74104500D01*
X175102347Y-74104500D01*
X175303556Y-74066888D01*
X175494427Y-73992944D01*
X175668462Y-73885186D01*
X175819732Y-73747285D01*
X175943088Y-73583935D01*
X176034328Y-73400701D01*
X176090345Y-73203821D01*
X176096640Y-73135880D01*
X176109232Y-73000004D01*
X176109232Y-72999995D01*
X176430768Y-72999995D01*
X176430768Y-73000004D01*
X176449654Y-73203819D01*
X176479014Y-73307007D01*
X176505672Y-73400701D01*
X176596912Y-73583935D01*
X176596913Y-73583936D01*
X176720266Y-73747284D01*
X176871536Y-73885185D01*
X177045566Y-73992940D01*
X177045568Y-73992940D01*
X177045573Y-73992944D01*
X177236444Y-74066888D01*
X177437653Y-74104500D01*
X177437655Y-74104500D01*
X177642345Y-74104500D01*
X177642347Y-74104500D01*
X177843556Y-74066888D01*
X178034427Y-73992944D01*
X178208462Y-73885186D01*
X178359732Y-73747285D01*
X178483088Y-73583935D01*
X178574328Y-73400701D01*
X178630345Y-73203821D01*
X178636640Y-73135880D01*
X178649232Y-73000004D01*
X178649232Y-72999995D01*
X178970768Y-72999995D01*
X178970768Y-73000004D01*
X178989654Y-73203819D01*
X179019014Y-73307007D01*
X179045672Y-73400701D01*
X179136912Y-73583935D01*
X179136913Y-73583936D01*
X179260266Y-73747284D01*
X179411536Y-73885185D01*
X179585566Y-73992940D01*
X179585568Y-73992940D01*
X179585573Y-73992944D01*
X179776444Y-74066888D01*
X179977653Y-74104500D01*
X179977655Y-74104500D01*
X180182345Y-74104500D01*
X180182347Y-74104500D01*
X180383556Y-74066888D01*
X180574427Y-73992944D01*
X180748462Y-73885186D01*
X180899732Y-73747285D01*
X181023088Y-73583935D01*
X181114328Y-73400701D01*
X181170345Y-73203821D01*
X181176640Y-73135880D01*
X181189232Y-73000004D01*
X181189232Y-72999995D01*
X181510768Y-72999995D01*
X181510768Y-73000004D01*
X181529654Y-73203819D01*
X181559014Y-73307007D01*
X181585672Y-73400701D01*
X181676912Y-73583935D01*
X181676913Y-73583936D01*
X181800266Y-73747284D01*
X181951536Y-73885185D01*
X182125566Y-73992940D01*
X182125568Y-73992940D01*
X182125573Y-73992944D01*
X182316444Y-74066888D01*
X182517653Y-74104500D01*
X182517655Y-74104500D01*
X182722345Y-74104500D01*
X182722347Y-74104500D01*
X182923556Y-74066888D01*
X183114427Y-73992944D01*
X183288462Y-73885186D01*
X183439732Y-73747285D01*
X183563088Y-73583935D01*
X183654328Y-73400701D01*
X183710345Y-73203821D01*
X183716640Y-73135880D01*
X183729232Y-73000004D01*
X183729232Y-72999995D01*
X183717464Y-72872998D01*
X184063037Y-72872998D01*
X184063038Y-72873000D01*
X184676392Y-72873000D01*
X184660000Y-72934174D01*
X184660000Y-73065826D01*
X184676392Y-73127000D01*
X184063038Y-73127000D01*
X184063037Y-73127001D01*
X184070147Y-73203725D01*
X184126138Y-73400514D01*
X184126140Y-73400519D01*
X184217340Y-73583672D01*
X184340637Y-73746946D01*
X184491838Y-73884784D01*
X184665796Y-73992493D01*
X184665803Y-73992496D01*
X184856578Y-74066403D01*
X184856576Y-74066403D01*
X185033000Y-74099381D01*
X185033000Y-73483608D01*
X185094174Y-73500000D01*
X185225826Y-73500000D01*
X185287000Y-73483608D01*
X185287000Y-74099381D01*
X185463422Y-74066403D01*
X185654196Y-73992496D01*
X185654203Y-73992493D01*
X185828161Y-73884784D01*
X185979362Y-73746946D01*
X186102659Y-73583672D01*
X186193859Y-73400519D01*
X186193861Y-73400514D01*
X186249852Y-73203725D01*
X186256962Y-73127001D01*
X186256962Y-73127000D01*
X185643608Y-73127000D01*
X185660000Y-73065826D01*
X185660000Y-72934174D01*
X185650145Y-72897397D01*
X190696300Y-72897397D01*
X190696300Y-73102603D01*
X190712332Y-73203821D01*
X190728403Y-73305288D01*
X190791668Y-73500000D01*
X190791814Y-73500447D01*
X190834354Y-73583936D01*
X190884978Y-73683291D01*
X191005595Y-73849305D01*
X191150694Y-73994404D01*
X191250456Y-74066886D01*
X191316712Y-74115024D01*
X191499553Y-74208186D01*
X191694716Y-74271598D01*
X191897397Y-74303700D01*
X191897400Y-74303700D01*
X192102600Y-74303700D01*
X192102603Y-74303700D01*
X192305284Y-74271598D01*
X192500447Y-74208186D01*
X192683288Y-74115024D01*
X192849303Y-73994406D01*
X192994406Y-73849303D01*
X193115024Y-73683288D01*
X193208186Y-73500447D01*
X193271598Y-73305284D01*
X193303700Y-73102603D01*
X193303700Y-72897397D01*
X193271598Y-72694716D01*
X193208186Y-72499553D01*
X193115024Y-72316712D01*
X192994406Y-72150697D01*
X192994404Y-72150694D01*
X192849305Y-72005595D01*
X192683291Y-71884978D01*
X192683290Y-71884977D01*
X192683288Y-71884976D01*
X192500447Y-71791814D01*
X192500444Y-71791813D01*
X192500442Y-71791812D01*
X192305288Y-71728403D01*
X192305286Y-71728402D01*
X192305284Y-71728402D01*
X192102603Y-71696300D01*
X191897397Y-71696300D01*
X191694716Y-71728402D01*
X191694714Y-71728402D01*
X191694711Y-71728403D01*
X191499557Y-71791812D01*
X191499551Y-71791815D01*
X191316708Y-71884978D01*
X191150694Y-72005595D01*
X191005595Y-72150694D01*
X190884978Y-72316708D01*
X190791815Y-72499551D01*
X190791812Y-72499557D01*
X190728403Y-72694711D01*
X190728402Y-72694714D01*
X190728402Y-72694716D01*
X190696300Y-72897397D01*
X185650145Y-72897397D01*
X185643608Y-72873000D01*
X186256962Y-72873000D01*
X186256962Y-72872998D01*
X186249852Y-72796274D01*
X186193861Y-72599485D01*
X186193859Y-72599480D01*
X186102659Y-72416327D01*
X185979362Y-72253053D01*
X185828161Y-72115215D01*
X185654203Y-72007506D01*
X185654196Y-72007503D01*
X185463422Y-71933596D01*
X185463424Y-71933596D01*
X185287000Y-71900617D01*
X185287000Y-72516391D01*
X185225826Y-72500000D01*
X185094174Y-72500000D01*
X185033000Y-72516391D01*
X185033000Y-71900617D01*
X184856576Y-71933596D01*
X184665803Y-72007503D01*
X184665796Y-72007506D01*
X184491838Y-72115215D01*
X184340637Y-72253053D01*
X184217340Y-72416327D01*
X184126140Y-72599480D01*
X184126138Y-72599485D01*
X184070147Y-72796274D01*
X184063037Y-72872998D01*
X183717464Y-72872998D01*
X183710345Y-72796180D01*
X183684780Y-72706327D01*
X183654328Y-72599299D01*
X183563088Y-72416065D01*
X183522538Y-72362368D01*
X183439733Y-72252715D01*
X183288463Y-72114814D01*
X183114433Y-72007059D01*
X183114428Y-72007057D01*
X183114427Y-72007056D01*
X183110653Y-72005594D01*
X182923559Y-71933113D01*
X182923560Y-71933113D01*
X182923557Y-71933112D01*
X182923556Y-71933112D01*
X182722347Y-71895500D01*
X182517653Y-71895500D01*
X182316444Y-71933112D01*
X182316439Y-71933113D01*
X182125577Y-72007054D01*
X182125566Y-72007059D01*
X181951536Y-72114814D01*
X181800266Y-72252715D01*
X181676913Y-72416063D01*
X181585671Y-72599301D01*
X181529654Y-72796180D01*
X181510768Y-72999995D01*
X181189232Y-72999995D01*
X181170345Y-72796180D01*
X181144780Y-72706327D01*
X181114328Y-72599299D01*
X181023088Y-72416065D01*
X180982538Y-72362368D01*
X180899733Y-72252715D01*
X180748463Y-72114814D01*
X180574433Y-72007059D01*
X180574428Y-72007057D01*
X180574427Y-72007056D01*
X180570653Y-72005594D01*
X180383559Y-71933113D01*
X180383560Y-71933113D01*
X180383557Y-71933112D01*
X180383556Y-71933112D01*
X180182347Y-71895500D01*
X179977653Y-71895500D01*
X179776444Y-71933112D01*
X179776439Y-71933113D01*
X179585577Y-72007054D01*
X179585566Y-72007059D01*
X179411536Y-72114814D01*
X179260266Y-72252715D01*
X179136913Y-72416063D01*
X179045671Y-72599301D01*
X178989654Y-72796180D01*
X178970768Y-72999995D01*
X178649232Y-72999995D01*
X178630345Y-72796180D01*
X178604780Y-72706327D01*
X178574328Y-72599299D01*
X178483088Y-72416065D01*
X178442538Y-72362368D01*
X178359733Y-72252715D01*
X178208463Y-72114814D01*
X178034433Y-72007059D01*
X178034428Y-72007057D01*
X178034427Y-72007056D01*
X178030653Y-72005594D01*
X177843559Y-71933113D01*
X177843560Y-71933113D01*
X177843557Y-71933112D01*
X177843556Y-71933112D01*
X177642347Y-71895500D01*
X177437653Y-71895500D01*
X177236444Y-71933112D01*
X177236439Y-71933113D01*
X177045577Y-72007054D01*
X177045566Y-72007059D01*
X176871536Y-72114814D01*
X176720266Y-72252715D01*
X176596913Y-72416063D01*
X176505671Y-72599301D01*
X176449654Y-72796180D01*
X176430768Y-72999995D01*
X176109232Y-72999995D01*
X176090345Y-72796180D01*
X176064780Y-72706327D01*
X176034328Y-72599299D01*
X175943088Y-72416065D01*
X175902538Y-72362368D01*
X175819733Y-72252715D01*
X175668463Y-72114814D01*
X175494433Y-72007059D01*
X175494428Y-72007057D01*
X175494427Y-72007056D01*
X175490653Y-72005594D01*
X175303559Y-71933113D01*
X175303560Y-71933113D01*
X175303557Y-71933112D01*
X175303556Y-71933112D01*
X175102347Y-71895500D01*
X174897653Y-71895500D01*
X174696444Y-71933112D01*
X174696439Y-71933113D01*
X174505577Y-72007054D01*
X174505566Y-72007059D01*
X174331536Y-72114814D01*
X174180266Y-72252715D01*
X174056913Y-72416063D01*
X173965671Y-72599301D01*
X173909654Y-72796180D01*
X173890768Y-72999995D01*
X173569232Y-72999995D01*
X173550345Y-72796180D01*
X173524780Y-72706327D01*
X173494328Y-72599299D01*
X173403088Y-72416065D01*
X173362538Y-72362368D01*
X173279733Y-72252715D01*
X173128463Y-72114814D01*
X172954433Y-72007059D01*
X172954428Y-72007057D01*
X172954427Y-72007056D01*
X172950653Y-72005594D01*
X172763559Y-71933113D01*
X172763560Y-71933113D01*
X172763557Y-71933112D01*
X172763556Y-71933112D01*
X172562347Y-71895500D01*
X172357653Y-71895500D01*
X172156444Y-71933112D01*
X172156439Y-71933113D01*
X171965577Y-72007054D01*
X171965566Y-72007059D01*
X171791536Y-72114814D01*
X171640266Y-72252715D01*
X171516913Y-72416063D01*
X171425671Y-72599301D01*
X171369654Y-72796180D01*
X171350768Y-72999995D01*
X171024499Y-72999995D01*
X171024499Y-72124934D01*
X171024498Y-72124930D01*
X171024498Y-72124926D01*
X171009734Y-72050699D01*
X170953483Y-71966515D01*
X170869302Y-71910266D01*
X170795067Y-71895500D01*
X169044936Y-71895500D01*
X169044926Y-71895501D01*
X168970699Y-71910265D01*
X168886515Y-71966516D01*
X168830266Y-72050697D01*
X168815500Y-72124930D01*
X158968640Y-72124930D01*
X158849305Y-72005595D01*
X158683291Y-71884978D01*
X158683290Y-71884977D01*
X158683288Y-71884976D01*
X158500447Y-71791814D01*
X158500444Y-71791813D01*
X158500442Y-71791812D01*
X158305288Y-71728403D01*
X158305286Y-71728402D01*
X158305284Y-71728402D01*
X158102603Y-71696300D01*
X157897397Y-71696300D01*
X157694716Y-71728402D01*
X157694714Y-71728402D01*
X157694711Y-71728403D01*
X157499557Y-71791812D01*
X157499551Y-71791815D01*
X157316708Y-71884978D01*
X157150694Y-72005595D01*
X157005595Y-72150694D01*
X156884978Y-72316708D01*
X156791815Y-72499551D01*
X156791812Y-72499557D01*
X156728403Y-72694711D01*
X156728402Y-72694714D01*
X156728402Y-72694716D01*
X156696300Y-72897397D01*
X155506706Y-72897397D01*
X155510902Y-72828031D01*
X155518264Y-72706313D01*
X155520095Y-72691236D01*
X155571759Y-72409313D01*
X155575392Y-72394573D01*
X155660665Y-72120922D01*
X155666052Y-72106721D01*
X155783678Y-71845366D01*
X155790736Y-71831916D01*
X155939021Y-71586624D01*
X155947637Y-71574140D01*
X156124411Y-71348505D01*
X156134479Y-71337142D01*
X156337142Y-71134479D01*
X156348505Y-71124411D01*
X156574140Y-70947637D01*
X156586624Y-70939021D01*
X156831916Y-70790736D01*
X156845366Y-70783678D01*
X157106721Y-70666052D01*
X157120922Y-70660665D01*
X157394573Y-70575392D01*
X157409313Y-70571759D01*
X157691236Y-70520095D01*
X157706313Y-70518264D01*
X157968890Y-70502381D01*
X157996199Y-70500730D01*
X158003806Y-70500500D01*
X158065892Y-70500500D01*
X191934108Y-70500500D01*
X191996194Y-70500500D01*
X192003801Y-70500730D01*
G37*
%TD.AperFunction*%
%TD*%
M02*
