%TF.GenerationSoftware,KiCad,Pcbnew,8.0.4*%
%TF.CreationDate,2024-11-27T18:51:44-06:00*%
%TF.ProjectId,TempReader_w_I2C.kicad_sch,54656d70-5265-4616-9465-725f775f4932,rev?*%
%TF.SameCoordinates,Original*%
%TF.FileFunction,Legend,Top*%
%TF.FilePolarity,Positive*%
%FSLAX46Y46*%
G04 Gerber Fmt 4.6, Leading zero omitted, Abs format (unit mm)*
G04 Created by KiCad (PCBNEW 8.0.4) date 2024-11-27 18:51:44*
%MOMM*%
%LPD*%
G01*
G04 APERTURE LIST*
%ADD10C,0.150000*%
%ADD11C,0.120000*%
%ADD12C,0.127000*%
%ADD13C,0.100000*%
G04 APERTURE END LIST*
D10*
X168873333Y-84739580D02*
X168825714Y-84787200D01*
X168825714Y-84787200D02*
X168682857Y-84834819D01*
X168682857Y-84834819D02*
X168587619Y-84834819D01*
X168587619Y-84834819D02*
X168444762Y-84787200D01*
X168444762Y-84787200D02*
X168349524Y-84691961D01*
X168349524Y-84691961D02*
X168301905Y-84596723D01*
X168301905Y-84596723D02*
X168254286Y-84406247D01*
X168254286Y-84406247D02*
X168254286Y-84263390D01*
X168254286Y-84263390D02*
X168301905Y-84072914D01*
X168301905Y-84072914D02*
X168349524Y-83977676D01*
X168349524Y-83977676D02*
X168444762Y-83882438D01*
X168444762Y-83882438D02*
X168587619Y-83834819D01*
X168587619Y-83834819D02*
X168682857Y-83834819D01*
X168682857Y-83834819D02*
X168825714Y-83882438D01*
X168825714Y-83882438D02*
X168873333Y-83930057D01*
X169349524Y-84834819D02*
X169540000Y-84834819D01*
X169540000Y-84834819D02*
X169635238Y-84787200D01*
X169635238Y-84787200D02*
X169682857Y-84739580D01*
X169682857Y-84739580D02*
X169778095Y-84596723D01*
X169778095Y-84596723D02*
X169825714Y-84406247D01*
X169825714Y-84406247D02*
X169825714Y-84025295D01*
X169825714Y-84025295D02*
X169778095Y-83930057D01*
X169778095Y-83930057D02*
X169730476Y-83882438D01*
X169730476Y-83882438D02*
X169635238Y-83834819D01*
X169635238Y-83834819D02*
X169444762Y-83834819D01*
X169444762Y-83834819D02*
X169349524Y-83882438D01*
X169349524Y-83882438D02*
X169301905Y-83930057D01*
X169301905Y-83930057D02*
X169254286Y-84025295D01*
X169254286Y-84025295D02*
X169254286Y-84263390D01*
X169254286Y-84263390D02*
X169301905Y-84358628D01*
X169301905Y-84358628D02*
X169349524Y-84406247D01*
X169349524Y-84406247D02*
X169444762Y-84453866D01*
X169444762Y-84453866D02*
X169635238Y-84453866D01*
X169635238Y-84453866D02*
X169730476Y-84406247D01*
X169730476Y-84406247D02*
X169778095Y-84358628D01*
X169778095Y-84358628D02*
X169825714Y-84263390D01*
X179540952Y-94154819D02*
X179540952Y-93154819D01*
X179540952Y-93154819D02*
X180112380Y-94154819D01*
X180112380Y-94154819D02*
X180112380Y-93154819D01*
X181159999Y-94154819D02*
X180826666Y-93678628D01*
X180588571Y-94154819D02*
X180588571Y-93154819D01*
X180588571Y-93154819D02*
X180969523Y-93154819D01*
X180969523Y-93154819D02*
X181064761Y-93202438D01*
X181064761Y-93202438D02*
X181112380Y-93250057D01*
X181112380Y-93250057D02*
X181159999Y-93345295D01*
X181159999Y-93345295D02*
X181159999Y-93488152D01*
X181159999Y-93488152D02*
X181112380Y-93583390D01*
X181112380Y-93583390D02*
X181064761Y-93631009D01*
X181064761Y-93631009D02*
X180969523Y-93678628D01*
X180969523Y-93678628D02*
X180588571Y-93678628D01*
X181921904Y-93631009D02*
X181588571Y-93631009D01*
X181588571Y-94154819D02*
X181588571Y-93154819D01*
X181588571Y-93154819D02*
X182064761Y-93154819D01*
X182398095Y-93250057D02*
X182445714Y-93202438D01*
X182445714Y-93202438D02*
X182540952Y-93154819D01*
X182540952Y-93154819D02*
X182779047Y-93154819D01*
X182779047Y-93154819D02*
X182874285Y-93202438D01*
X182874285Y-93202438D02*
X182921904Y-93250057D01*
X182921904Y-93250057D02*
X182969523Y-93345295D01*
X182969523Y-93345295D02*
X182969523Y-93440533D01*
X182969523Y-93440533D02*
X182921904Y-93583390D01*
X182921904Y-93583390D02*
X182350476Y-94154819D01*
X182350476Y-94154819D02*
X182969523Y-94154819D01*
X183826666Y-93488152D02*
X183826666Y-94154819D01*
X183588571Y-93107200D02*
X183350476Y-93821485D01*
X183350476Y-93821485D02*
X183969523Y-93821485D01*
X184826666Y-94154819D02*
X184350476Y-94154819D01*
X184350476Y-94154819D02*
X184350476Y-93154819D01*
X185350476Y-93154819D02*
X185445714Y-93154819D01*
X185445714Y-93154819D02*
X185540952Y-93202438D01*
X185540952Y-93202438D02*
X185588571Y-93250057D01*
X185588571Y-93250057D02*
X185636190Y-93345295D01*
X185636190Y-93345295D02*
X185683809Y-93535771D01*
X185683809Y-93535771D02*
X185683809Y-93773866D01*
X185683809Y-93773866D02*
X185636190Y-93964342D01*
X185636190Y-93964342D02*
X185588571Y-94059580D01*
X185588571Y-94059580D02*
X185540952Y-94107200D01*
X185540952Y-94107200D02*
X185445714Y-94154819D01*
X185445714Y-94154819D02*
X185350476Y-94154819D01*
X185350476Y-94154819D02*
X185255238Y-94107200D01*
X185255238Y-94107200D02*
X185207619Y-94059580D01*
X185207619Y-94059580D02*
X185160000Y-93964342D01*
X185160000Y-93964342D02*
X185112381Y-93773866D01*
X185112381Y-93773866D02*
X185112381Y-93535771D01*
X185112381Y-93535771D02*
X185160000Y-93345295D01*
X185160000Y-93345295D02*
X185207619Y-93250057D01*
X185207619Y-93250057D02*
X185255238Y-93202438D01*
X185255238Y-93202438D02*
X185350476Y-93154819D01*
X186636190Y-94154819D02*
X186064762Y-94154819D01*
X186350476Y-94154819D02*
X186350476Y-93154819D01*
X186350476Y-93154819D02*
X186255238Y-93297676D01*
X186255238Y-93297676D02*
X186160000Y-93392914D01*
X186160000Y-93392914D02*
X186064762Y-93440533D01*
X187064762Y-93773866D02*
X187826667Y-93773866D01*
X187445714Y-94154819D02*
X187445714Y-93392914D01*
X188826666Y-94154819D02*
X188255238Y-94154819D01*
X188540952Y-94154819D02*
X188540952Y-93154819D01*
X188540952Y-93154819D02*
X188445714Y-93297676D01*
X188445714Y-93297676D02*
X188350476Y-93392914D01*
X188350476Y-93392914D02*
X188255238Y-93440533D01*
X177743333Y-104334819D02*
X177267143Y-104334819D01*
X177267143Y-104334819D02*
X177267143Y-103334819D01*
X178029048Y-103430057D02*
X178076667Y-103382438D01*
X178076667Y-103382438D02*
X178171905Y-103334819D01*
X178171905Y-103334819D02*
X178410000Y-103334819D01*
X178410000Y-103334819D02*
X178505238Y-103382438D01*
X178505238Y-103382438D02*
X178552857Y-103430057D01*
X178552857Y-103430057D02*
X178600476Y-103525295D01*
X178600476Y-103525295D02*
X178600476Y-103620533D01*
X178600476Y-103620533D02*
X178552857Y-103763390D01*
X178552857Y-103763390D02*
X177981429Y-104334819D01*
X177981429Y-104334819D02*
X178600476Y-104334819D01*
X189233333Y-98904819D02*
X188900000Y-98428628D01*
X188661905Y-98904819D02*
X188661905Y-97904819D01*
X188661905Y-97904819D02*
X189042857Y-97904819D01*
X189042857Y-97904819D02*
X189138095Y-97952438D01*
X189138095Y-97952438D02*
X189185714Y-98000057D01*
X189185714Y-98000057D02*
X189233333Y-98095295D01*
X189233333Y-98095295D02*
X189233333Y-98238152D01*
X189233333Y-98238152D02*
X189185714Y-98333390D01*
X189185714Y-98333390D02*
X189138095Y-98381009D01*
X189138095Y-98381009D02*
X189042857Y-98428628D01*
X189042857Y-98428628D02*
X188661905Y-98428628D01*
X190185714Y-98904819D02*
X189614286Y-98904819D01*
X189900000Y-98904819D02*
X189900000Y-97904819D01*
X189900000Y-97904819D02*
X189804762Y-98047676D01*
X189804762Y-98047676D02*
X189709524Y-98142914D01*
X189709524Y-98142914D02*
X189614286Y-98190533D01*
X188833333Y-87359580D02*
X188785714Y-87407200D01*
X188785714Y-87407200D02*
X188642857Y-87454819D01*
X188642857Y-87454819D02*
X188547619Y-87454819D01*
X188547619Y-87454819D02*
X188404762Y-87407200D01*
X188404762Y-87407200D02*
X188309524Y-87311961D01*
X188309524Y-87311961D02*
X188261905Y-87216723D01*
X188261905Y-87216723D02*
X188214286Y-87026247D01*
X188214286Y-87026247D02*
X188214286Y-86883390D01*
X188214286Y-86883390D02*
X188261905Y-86692914D01*
X188261905Y-86692914D02*
X188309524Y-86597676D01*
X188309524Y-86597676D02*
X188404762Y-86502438D01*
X188404762Y-86502438D02*
X188547619Y-86454819D01*
X188547619Y-86454819D02*
X188642857Y-86454819D01*
X188642857Y-86454819D02*
X188785714Y-86502438D01*
X188785714Y-86502438D02*
X188833333Y-86550057D01*
X189690476Y-86788152D02*
X189690476Y-87454819D01*
X189452381Y-86407200D02*
X189214286Y-87121485D01*
X189214286Y-87121485D02*
X189833333Y-87121485D01*
X178083333Y-79454819D02*
X177750000Y-78978628D01*
X177511905Y-79454819D02*
X177511905Y-78454819D01*
X177511905Y-78454819D02*
X177892857Y-78454819D01*
X177892857Y-78454819D02*
X177988095Y-78502438D01*
X177988095Y-78502438D02*
X178035714Y-78550057D01*
X178035714Y-78550057D02*
X178083333Y-78645295D01*
X178083333Y-78645295D02*
X178083333Y-78788152D01*
X178083333Y-78788152D02*
X178035714Y-78883390D01*
X178035714Y-78883390D02*
X177988095Y-78931009D01*
X177988095Y-78931009D02*
X177892857Y-78978628D01*
X177892857Y-78978628D02*
X177511905Y-78978628D01*
X178988095Y-78454819D02*
X178511905Y-78454819D01*
X178511905Y-78454819D02*
X178464286Y-78931009D01*
X178464286Y-78931009D02*
X178511905Y-78883390D01*
X178511905Y-78883390D02*
X178607143Y-78835771D01*
X178607143Y-78835771D02*
X178845238Y-78835771D01*
X178845238Y-78835771D02*
X178940476Y-78883390D01*
X178940476Y-78883390D02*
X178988095Y-78931009D01*
X178988095Y-78931009D02*
X179035714Y-79026247D01*
X179035714Y-79026247D02*
X179035714Y-79264342D01*
X179035714Y-79264342D02*
X178988095Y-79359580D01*
X178988095Y-79359580D02*
X178940476Y-79407200D01*
X178940476Y-79407200D02*
X178845238Y-79454819D01*
X178845238Y-79454819D02*
X178607143Y-79454819D01*
X178607143Y-79454819D02*
X178511905Y-79407200D01*
X178511905Y-79407200D02*
X178464286Y-79359580D01*
X160193333Y-83659580D02*
X160145714Y-83707200D01*
X160145714Y-83707200D02*
X160002857Y-83754819D01*
X160002857Y-83754819D02*
X159907619Y-83754819D01*
X159907619Y-83754819D02*
X159764762Y-83707200D01*
X159764762Y-83707200D02*
X159669524Y-83611961D01*
X159669524Y-83611961D02*
X159621905Y-83516723D01*
X159621905Y-83516723D02*
X159574286Y-83326247D01*
X159574286Y-83326247D02*
X159574286Y-83183390D01*
X159574286Y-83183390D02*
X159621905Y-82992914D01*
X159621905Y-82992914D02*
X159669524Y-82897676D01*
X159669524Y-82897676D02*
X159764762Y-82802438D01*
X159764762Y-82802438D02*
X159907619Y-82754819D01*
X159907619Y-82754819D02*
X160002857Y-82754819D01*
X160002857Y-82754819D02*
X160145714Y-82802438D01*
X160145714Y-82802438D02*
X160193333Y-82850057D01*
X161145714Y-83754819D02*
X160574286Y-83754819D01*
X160860000Y-83754819D02*
X160860000Y-82754819D01*
X160860000Y-82754819D02*
X160764762Y-82897676D01*
X160764762Y-82897676D02*
X160669524Y-82992914D01*
X160669524Y-82992914D02*
X160574286Y-83040533D01*
X189183333Y-102979580D02*
X189135714Y-103027200D01*
X189135714Y-103027200D02*
X188992857Y-103074819D01*
X188992857Y-103074819D02*
X188897619Y-103074819D01*
X188897619Y-103074819D02*
X188754762Y-103027200D01*
X188754762Y-103027200D02*
X188659524Y-102931961D01*
X188659524Y-102931961D02*
X188611905Y-102836723D01*
X188611905Y-102836723D02*
X188564286Y-102646247D01*
X188564286Y-102646247D02*
X188564286Y-102503390D01*
X188564286Y-102503390D02*
X188611905Y-102312914D01*
X188611905Y-102312914D02*
X188659524Y-102217676D01*
X188659524Y-102217676D02*
X188754762Y-102122438D01*
X188754762Y-102122438D02*
X188897619Y-102074819D01*
X188897619Y-102074819D02*
X188992857Y-102074819D01*
X188992857Y-102074819D02*
X189135714Y-102122438D01*
X189135714Y-102122438D02*
X189183333Y-102170057D01*
X189516667Y-102074819D02*
X190135714Y-102074819D01*
X190135714Y-102074819D02*
X189802381Y-102455771D01*
X189802381Y-102455771D02*
X189945238Y-102455771D01*
X189945238Y-102455771D02*
X190040476Y-102503390D01*
X190040476Y-102503390D02*
X190088095Y-102551009D01*
X190088095Y-102551009D02*
X190135714Y-102646247D01*
X190135714Y-102646247D02*
X190135714Y-102884342D01*
X190135714Y-102884342D02*
X190088095Y-102979580D01*
X190088095Y-102979580D02*
X190040476Y-103027200D01*
X190040476Y-103027200D02*
X189945238Y-103074819D01*
X189945238Y-103074819D02*
X189659524Y-103074819D01*
X189659524Y-103074819D02*
X189564286Y-103027200D01*
X189564286Y-103027200D02*
X189516667Y-102979580D01*
X175517142Y-106189580D02*
X175469523Y-106237200D01*
X175469523Y-106237200D02*
X175326666Y-106284819D01*
X175326666Y-106284819D02*
X175231428Y-106284819D01*
X175231428Y-106284819D02*
X175088571Y-106237200D01*
X175088571Y-106237200D02*
X174993333Y-106141961D01*
X174993333Y-106141961D02*
X174945714Y-106046723D01*
X174945714Y-106046723D02*
X174898095Y-105856247D01*
X174898095Y-105856247D02*
X174898095Y-105713390D01*
X174898095Y-105713390D02*
X174945714Y-105522914D01*
X174945714Y-105522914D02*
X174993333Y-105427676D01*
X174993333Y-105427676D02*
X175088571Y-105332438D01*
X175088571Y-105332438D02*
X175231428Y-105284819D01*
X175231428Y-105284819D02*
X175326666Y-105284819D01*
X175326666Y-105284819D02*
X175469523Y-105332438D01*
X175469523Y-105332438D02*
X175517142Y-105380057D01*
X176469523Y-106284819D02*
X175898095Y-106284819D01*
X176183809Y-106284819D02*
X176183809Y-105284819D01*
X176183809Y-105284819D02*
X176088571Y-105427676D01*
X176088571Y-105427676D02*
X175993333Y-105522914D01*
X175993333Y-105522914D02*
X175898095Y-105570533D01*
X177421904Y-106284819D02*
X176850476Y-106284819D01*
X177136190Y-106284819D02*
X177136190Y-105284819D01*
X177136190Y-105284819D02*
X177040952Y-105427676D01*
X177040952Y-105427676D02*
X176945714Y-105522914D01*
X176945714Y-105522914D02*
X176850476Y-105570533D01*
X187359580Y-105566666D02*
X187407200Y-105614285D01*
X187407200Y-105614285D02*
X187454819Y-105757142D01*
X187454819Y-105757142D02*
X187454819Y-105852380D01*
X187454819Y-105852380D02*
X187407200Y-105995237D01*
X187407200Y-105995237D02*
X187311961Y-106090475D01*
X187311961Y-106090475D02*
X187216723Y-106138094D01*
X187216723Y-106138094D02*
X187026247Y-106185713D01*
X187026247Y-106185713D02*
X186883390Y-106185713D01*
X186883390Y-106185713D02*
X186692914Y-106138094D01*
X186692914Y-106138094D02*
X186597676Y-106090475D01*
X186597676Y-106090475D02*
X186502438Y-105995237D01*
X186502438Y-105995237D02*
X186454819Y-105852380D01*
X186454819Y-105852380D02*
X186454819Y-105757142D01*
X186454819Y-105757142D02*
X186502438Y-105614285D01*
X186502438Y-105614285D02*
X186550057Y-105566666D01*
X186454819Y-104661904D02*
X186454819Y-105138094D01*
X186454819Y-105138094D02*
X186931009Y-105185713D01*
X186931009Y-105185713D02*
X186883390Y-105138094D01*
X186883390Y-105138094D02*
X186835771Y-105042856D01*
X186835771Y-105042856D02*
X186835771Y-104804761D01*
X186835771Y-104804761D02*
X186883390Y-104709523D01*
X186883390Y-104709523D02*
X186931009Y-104661904D01*
X186931009Y-104661904D02*
X187026247Y-104614285D01*
X187026247Y-104614285D02*
X187264342Y-104614285D01*
X187264342Y-104614285D02*
X187359580Y-104661904D01*
X187359580Y-104661904D02*
X187407200Y-104709523D01*
X187407200Y-104709523D02*
X187454819Y-104804761D01*
X187454819Y-104804761D02*
X187454819Y-105042856D01*
X187454819Y-105042856D02*
X187407200Y-105138094D01*
X187407200Y-105138094D02*
X187359580Y-105185713D01*
X185877142Y-96519580D02*
X185829523Y-96567200D01*
X185829523Y-96567200D02*
X185686666Y-96614819D01*
X185686666Y-96614819D02*
X185591428Y-96614819D01*
X185591428Y-96614819D02*
X185448571Y-96567200D01*
X185448571Y-96567200D02*
X185353333Y-96471961D01*
X185353333Y-96471961D02*
X185305714Y-96376723D01*
X185305714Y-96376723D02*
X185258095Y-96186247D01*
X185258095Y-96186247D02*
X185258095Y-96043390D01*
X185258095Y-96043390D02*
X185305714Y-95852914D01*
X185305714Y-95852914D02*
X185353333Y-95757676D01*
X185353333Y-95757676D02*
X185448571Y-95662438D01*
X185448571Y-95662438D02*
X185591428Y-95614819D01*
X185591428Y-95614819D02*
X185686666Y-95614819D01*
X185686666Y-95614819D02*
X185829523Y-95662438D01*
X185829523Y-95662438D02*
X185877142Y-95710057D01*
X186829523Y-96614819D02*
X186258095Y-96614819D01*
X186543809Y-96614819D02*
X186543809Y-95614819D01*
X186543809Y-95614819D02*
X186448571Y-95757676D01*
X186448571Y-95757676D02*
X186353333Y-95852914D01*
X186353333Y-95852914D02*
X186258095Y-95900533D01*
X187162857Y-95614819D02*
X187781904Y-95614819D01*
X187781904Y-95614819D02*
X187448571Y-95995771D01*
X187448571Y-95995771D02*
X187591428Y-95995771D01*
X187591428Y-95995771D02*
X187686666Y-96043390D01*
X187686666Y-96043390D02*
X187734285Y-96091009D01*
X187734285Y-96091009D02*
X187781904Y-96186247D01*
X187781904Y-96186247D02*
X187781904Y-96424342D01*
X187781904Y-96424342D02*
X187734285Y-96519580D01*
X187734285Y-96519580D02*
X187686666Y-96567200D01*
X187686666Y-96567200D02*
X187591428Y-96614819D01*
X187591428Y-96614819D02*
X187305714Y-96614819D01*
X187305714Y-96614819D02*
X187210476Y-96567200D01*
X187210476Y-96567200D02*
X187162857Y-96519580D01*
X176413333Y-76014819D02*
X176080000Y-75538628D01*
X175841905Y-76014819D02*
X175841905Y-75014819D01*
X175841905Y-75014819D02*
X176222857Y-75014819D01*
X176222857Y-75014819D02*
X176318095Y-75062438D01*
X176318095Y-75062438D02*
X176365714Y-75110057D01*
X176365714Y-75110057D02*
X176413333Y-75205295D01*
X176413333Y-75205295D02*
X176413333Y-75348152D01*
X176413333Y-75348152D02*
X176365714Y-75443390D01*
X176365714Y-75443390D02*
X176318095Y-75491009D01*
X176318095Y-75491009D02*
X176222857Y-75538628D01*
X176222857Y-75538628D02*
X175841905Y-75538628D01*
X176889524Y-76014819D02*
X177080000Y-76014819D01*
X177080000Y-76014819D02*
X177175238Y-75967200D01*
X177175238Y-75967200D02*
X177222857Y-75919580D01*
X177222857Y-75919580D02*
X177318095Y-75776723D01*
X177318095Y-75776723D02*
X177365714Y-75586247D01*
X177365714Y-75586247D02*
X177365714Y-75205295D01*
X177365714Y-75205295D02*
X177318095Y-75110057D01*
X177318095Y-75110057D02*
X177270476Y-75062438D01*
X177270476Y-75062438D02*
X177175238Y-75014819D01*
X177175238Y-75014819D02*
X176984762Y-75014819D01*
X176984762Y-75014819D02*
X176889524Y-75062438D01*
X176889524Y-75062438D02*
X176841905Y-75110057D01*
X176841905Y-75110057D02*
X176794286Y-75205295D01*
X176794286Y-75205295D02*
X176794286Y-75443390D01*
X176794286Y-75443390D02*
X176841905Y-75538628D01*
X176841905Y-75538628D02*
X176889524Y-75586247D01*
X176889524Y-75586247D02*
X176984762Y-75633866D01*
X176984762Y-75633866D02*
X177175238Y-75633866D01*
X177175238Y-75633866D02*
X177270476Y-75586247D01*
X177270476Y-75586247D02*
X177318095Y-75538628D01*
X177318095Y-75538628D02*
X177365714Y-75443390D01*
X160233333Y-80384580D02*
X160185714Y-80432200D01*
X160185714Y-80432200D02*
X160042857Y-80479819D01*
X160042857Y-80479819D02*
X159947619Y-80479819D01*
X159947619Y-80479819D02*
X159804762Y-80432200D01*
X159804762Y-80432200D02*
X159709524Y-80336961D01*
X159709524Y-80336961D02*
X159661905Y-80241723D01*
X159661905Y-80241723D02*
X159614286Y-80051247D01*
X159614286Y-80051247D02*
X159614286Y-79908390D01*
X159614286Y-79908390D02*
X159661905Y-79717914D01*
X159661905Y-79717914D02*
X159709524Y-79622676D01*
X159709524Y-79622676D02*
X159804762Y-79527438D01*
X159804762Y-79527438D02*
X159947619Y-79479819D01*
X159947619Y-79479819D02*
X160042857Y-79479819D01*
X160042857Y-79479819D02*
X160185714Y-79527438D01*
X160185714Y-79527438D02*
X160233333Y-79575057D01*
X160614286Y-79575057D02*
X160661905Y-79527438D01*
X160661905Y-79527438D02*
X160757143Y-79479819D01*
X160757143Y-79479819D02*
X160995238Y-79479819D01*
X160995238Y-79479819D02*
X161090476Y-79527438D01*
X161090476Y-79527438D02*
X161138095Y-79575057D01*
X161138095Y-79575057D02*
X161185714Y-79670295D01*
X161185714Y-79670295D02*
X161185714Y-79765533D01*
X161185714Y-79765533D02*
X161138095Y-79908390D01*
X161138095Y-79908390D02*
X160566667Y-80479819D01*
X160566667Y-80479819D02*
X161185714Y-80479819D01*
X186653333Y-107689580D02*
X186605714Y-107737200D01*
X186605714Y-107737200D02*
X186462857Y-107784819D01*
X186462857Y-107784819D02*
X186367619Y-107784819D01*
X186367619Y-107784819D02*
X186224762Y-107737200D01*
X186224762Y-107737200D02*
X186129524Y-107641961D01*
X186129524Y-107641961D02*
X186081905Y-107546723D01*
X186081905Y-107546723D02*
X186034286Y-107356247D01*
X186034286Y-107356247D02*
X186034286Y-107213390D01*
X186034286Y-107213390D02*
X186081905Y-107022914D01*
X186081905Y-107022914D02*
X186129524Y-106927676D01*
X186129524Y-106927676D02*
X186224762Y-106832438D01*
X186224762Y-106832438D02*
X186367619Y-106784819D01*
X186367619Y-106784819D02*
X186462857Y-106784819D01*
X186462857Y-106784819D02*
X186605714Y-106832438D01*
X186605714Y-106832438D02*
X186653333Y-106880057D01*
X187510476Y-106784819D02*
X187320000Y-106784819D01*
X187320000Y-106784819D02*
X187224762Y-106832438D01*
X187224762Y-106832438D02*
X187177143Y-106880057D01*
X187177143Y-106880057D02*
X187081905Y-107022914D01*
X187081905Y-107022914D02*
X187034286Y-107213390D01*
X187034286Y-107213390D02*
X187034286Y-107594342D01*
X187034286Y-107594342D02*
X187081905Y-107689580D01*
X187081905Y-107689580D02*
X187129524Y-107737200D01*
X187129524Y-107737200D02*
X187224762Y-107784819D01*
X187224762Y-107784819D02*
X187415238Y-107784819D01*
X187415238Y-107784819D02*
X187510476Y-107737200D01*
X187510476Y-107737200D02*
X187558095Y-107689580D01*
X187558095Y-107689580D02*
X187605714Y-107594342D01*
X187605714Y-107594342D02*
X187605714Y-107356247D01*
X187605714Y-107356247D02*
X187558095Y-107261009D01*
X187558095Y-107261009D02*
X187510476Y-107213390D01*
X187510476Y-107213390D02*
X187415238Y-107165771D01*
X187415238Y-107165771D02*
X187224762Y-107165771D01*
X187224762Y-107165771D02*
X187129524Y-107213390D01*
X187129524Y-107213390D02*
X187081905Y-107261009D01*
X187081905Y-107261009D02*
X187034286Y-107356247D01*
X188833333Y-75359580D02*
X188785714Y-75407200D01*
X188785714Y-75407200D02*
X188642857Y-75454819D01*
X188642857Y-75454819D02*
X188547619Y-75454819D01*
X188547619Y-75454819D02*
X188404762Y-75407200D01*
X188404762Y-75407200D02*
X188309524Y-75311961D01*
X188309524Y-75311961D02*
X188261905Y-75216723D01*
X188261905Y-75216723D02*
X188214286Y-75026247D01*
X188214286Y-75026247D02*
X188214286Y-74883390D01*
X188214286Y-74883390D02*
X188261905Y-74692914D01*
X188261905Y-74692914D02*
X188309524Y-74597676D01*
X188309524Y-74597676D02*
X188404762Y-74502438D01*
X188404762Y-74502438D02*
X188547619Y-74454819D01*
X188547619Y-74454819D02*
X188642857Y-74454819D01*
X188642857Y-74454819D02*
X188785714Y-74502438D01*
X188785714Y-74502438D02*
X188833333Y-74550057D01*
X189404762Y-74883390D02*
X189309524Y-74835771D01*
X189309524Y-74835771D02*
X189261905Y-74788152D01*
X189261905Y-74788152D02*
X189214286Y-74692914D01*
X189214286Y-74692914D02*
X189214286Y-74645295D01*
X189214286Y-74645295D02*
X189261905Y-74550057D01*
X189261905Y-74550057D02*
X189309524Y-74502438D01*
X189309524Y-74502438D02*
X189404762Y-74454819D01*
X189404762Y-74454819D02*
X189595238Y-74454819D01*
X189595238Y-74454819D02*
X189690476Y-74502438D01*
X189690476Y-74502438D02*
X189738095Y-74550057D01*
X189738095Y-74550057D02*
X189785714Y-74645295D01*
X189785714Y-74645295D02*
X189785714Y-74692914D01*
X189785714Y-74692914D02*
X189738095Y-74788152D01*
X189738095Y-74788152D02*
X189690476Y-74835771D01*
X189690476Y-74835771D02*
X189595238Y-74883390D01*
X189595238Y-74883390D02*
X189404762Y-74883390D01*
X189404762Y-74883390D02*
X189309524Y-74931009D01*
X189309524Y-74931009D02*
X189261905Y-74978628D01*
X189261905Y-74978628D02*
X189214286Y-75073866D01*
X189214286Y-75073866D02*
X189214286Y-75264342D01*
X189214286Y-75264342D02*
X189261905Y-75359580D01*
X189261905Y-75359580D02*
X189309524Y-75407200D01*
X189309524Y-75407200D02*
X189404762Y-75454819D01*
X189404762Y-75454819D02*
X189595238Y-75454819D01*
X189595238Y-75454819D02*
X189690476Y-75407200D01*
X189690476Y-75407200D02*
X189738095Y-75359580D01*
X189738095Y-75359580D02*
X189785714Y-75264342D01*
X189785714Y-75264342D02*
X189785714Y-75073866D01*
X189785714Y-75073866D02*
X189738095Y-74978628D01*
X189738095Y-74978628D02*
X189690476Y-74931009D01*
X189690476Y-74931009D02*
X189595238Y-74883390D01*
X181569580Y-106682857D02*
X181617200Y-106730476D01*
X181617200Y-106730476D02*
X181664819Y-106873333D01*
X181664819Y-106873333D02*
X181664819Y-106968571D01*
X181664819Y-106968571D02*
X181617200Y-107111428D01*
X181617200Y-107111428D02*
X181521961Y-107206666D01*
X181521961Y-107206666D02*
X181426723Y-107254285D01*
X181426723Y-107254285D02*
X181236247Y-107301904D01*
X181236247Y-107301904D02*
X181093390Y-107301904D01*
X181093390Y-107301904D02*
X180902914Y-107254285D01*
X180902914Y-107254285D02*
X180807676Y-107206666D01*
X180807676Y-107206666D02*
X180712438Y-107111428D01*
X180712438Y-107111428D02*
X180664819Y-106968571D01*
X180664819Y-106968571D02*
X180664819Y-106873333D01*
X180664819Y-106873333D02*
X180712438Y-106730476D01*
X180712438Y-106730476D02*
X180760057Y-106682857D01*
X181664819Y-105730476D02*
X181664819Y-106301904D01*
X181664819Y-106016190D02*
X180664819Y-106016190D01*
X180664819Y-106016190D02*
X180807676Y-106111428D01*
X180807676Y-106111428D02*
X180902914Y-106206666D01*
X180902914Y-106206666D02*
X180950533Y-106301904D01*
X180664819Y-105111428D02*
X180664819Y-105016190D01*
X180664819Y-105016190D02*
X180712438Y-104920952D01*
X180712438Y-104920952D02*
X180760057Y-104873333D01*
X180760057Y-104873333D02*
X180855295Y-104825714D01*
X180855295Y-104825714D02*
X181045771Y-104778095D01*
X181045771Y-104778095D02*
X181283866Y-104778095D01*
X181283866Y-104778095D02*
X181474342Y-104825714D01*
X181474342Y-104825714D02*
X181569580Y-104873333D01*
X181569580Y-104873333D02*
X181617200Y-104920952D01*
X181617200Y-104920952D02*
X181664819Y-105016190D01*
X181664819Y-105016190D02*
X181664819Y-105111428D01*
X181664819Y-105111428D02*
X181617200Y-105206666D01*
X181617200Y-105206666D02*
X181569580Y-105254285D01*
X181569580Y-105254285D02*
X181474342Y-105301904D01*
X181474342Y-105301904D02*
X181283866Y-105349523D01*
X181283866Y-105349523D02*
X181045771Y-105349523D01*
X181045771Y-105349523D02*
X180855295Y-105301904D01*
X180855295Y-105301904D02*
X180760057Y-105254285D01*
X180760057Y-105254285D02*
X180712438Y-105206666D01*
X180712438Y-105206666D02*
X180664819Y-105111428D01*
X177583333Y-77704819D02*
X177250000Y-77228628D01*
X177011905Y-77704819D02*
X177011905Y-76704819D01*
X177011905Y-76704819D02*
X177392857Y-76704819D01*
X177392857Y-76704819D02*
X177488095Y-76752438D01*
X177488095Y-76752438D02*
X177535714Y-76800057D01*
X177535714Y-76800057D02*
X177583333Y-76895295D01*
X177583333Y-76895295D02*
X177583333Y-77038152D01*
X177583333Y-77038152D02*
X177535714Y-77133390D01*
X177535714Y-77133390D02*
X177488095Y-77181009D01*
X177488095Y-77181009D02*
X177392857Y-77228628D01*
X177392857Y-77228628D02*
X177011905Y-77228628D01*
X178440476Y-77038152D02*
X178440476Y-77704819D01*
X178202381Y-76657200D02*
X177964286Y-77371485D01*
X177964286Y-77371485D02*
X178583333Y-77371485D01*
X166754819Y-81196666D02*
X166278628Y-81529999D01*
X166754819Y-81768094D02*
X165754819Y-81768094D01*
X165754819Y-81768094D02*
X165754819Y-81387142D01*
X165754819Y-81387142D02*
X165802438Y-81291904D01*
X165802438Y-81291904D02*
X165850057Y-81244285D01*
X165850057Y-81244285D02*
X165945295Y-81196666D01*
X165945295Y-81196666D02*
X166088152Y-81196666D01*
X166088152Y-81196666D02*
X166183390Y-81244285D01*
X166183390Y-81244285D02*
X166231009Y-81291904D01*
X166231009Y-81291904D02*
X166278628Y-81387142D01*
X166278628Y-81387142D02*
X166278628Y-81768094D01*
X165754819Y-80863332D02*
X165754819Y-80244285D01*
X165754819Y-80244285D02*
X166135771Y-80577618D01*
X166135771Y-80577618D02*
X166135771Y-80434761D01*
X166135771Y-80434761D02*
X166183390Y-80339523D01*
X166183390Y-80339523D02*
X166231009Y-80291904D01*
X166231009Y-80291904D02*
X166326247Y-80244285D01*
X166326247Y-80244285D02*
X166564342Y-80244285D01*
X166564342Y-80244285D02*
X166659580Y-80291904D01*
X166659580Y-80291904D02*
X166707200Y-80339523D01*
X166707200Y-80339523D02*
X166754819Y-80434761D01*
X166754819Y-80434761D02*
X166754819Y-80720475D01*
X166754819Y-80720475D02*
X166707200Y-80815713D01*
X166707200Y-80815713D02*
X166659580Y-80863332D01*
X184373333Y-104044819D02*
X183897143Y-104044819D01*
X183897143Y-104044819D02*
X183897143Y-103044819D01*
X184611429Y-103044819D02*
X185230476Y-103044819D01*
X185230476Y-103044819D02*
X184897143Y-103425771D01*
X184897143Y-103425771D02*
X185040000Y-103425771D01*
X185040000Y-103425771D02*
X185135238Y-103473390D01*
X185135238Y-103473390D02*
X185182857Y-103521009D01*
X185182857Y-103521009D02*
X185230476Y-103616247D01*
X185230476Y-103616247D02*
X185230476Y-103854342D01*
X185230476Y-103854342D02*
X185182857Y-103949580D01*
X185182857Y-103949580D02*
X185135238Y-103997200D01*
X185135238Y-103997200D02*
X185040000Y-104044819D01*
X185040000Y-104044819D02*
X184754286Y-104044819D01*
X184754286Y-104044819D02*
X184659048Y-103997200D01*
X184659048Y-103997200D02*
X184611429Y-103949580D01*
X192431009Y-84380952D02*
X192478628Y-84238095D01*
X192478628Y-84238095D02*
X192526247Y-84190476D01*
X192526247Y-84190476D02*
X192621485Y-84142857D01*
X192621485Y-84142857D02*
X192764342Y-84142857D01*
X192764342Y-84142857D02*
X192859580Y-84190476D01*
X192859580Y-84190476D02*
X192907200Y-84238095D01*
X192907200Y-84238095D02*
X192954819Y-84333333D01*
X192954819Y-84333333D02*
X192954819Y-84714285D01*
X192954819Y-84714285D02*
X191954819Y-84714285D01*
X191954819Y-84714285D02*
X191954819Y-84380952D01*
X191954819Y-84380952D02*
X192002438Y-84285714D01*
X192002438Y-84285714D02*
X192050057Y-84238095D01*
X192050057Y-84238095D02*
X192145295Y-84190476D01*
X192145295Y-84190476D02*
X192240533Y-84190476D01*
X192240533Y-84190476D02*
X192335771Y-84238095D01*
X192335771Y-84238095D02*
X192383390Y-84285714D01*
X192383390Y-84285714D02*
X192431009Y-84380952D01*
X192431009Y-84380952D02*
X192431009Y-84714285D01*
X192954819Y-83714285D02*
X191954819Y-83714285D01*
X191954819Y-83714285D02*
X192669104Y-83380952D01*
X192669104Y-83380952D02*
X191954819Y-83047619D01*
X191954819Y-83047619D02*
X192954819Y-83047619D01*
X192431009Y-82571428D02*
X192431009Y-82238095D01*
X192954819Y-82095238D02*
X192954819Y-82571428D01*
X192954819Y-82571428D02*
X191954819Y-82571428D01*
X191954819Y-82571428D02*
X191954819Y-82095238D01*
X192050057Y-81714285D02*
X192002438Y-81666666D01*
X192002438Y-81666666D02*
X191954819Y-81571428D01*
X191954819Y-81571428D02*
X191954819Y-81333333D01*
X191954819Y-81333333D02*
X192002438Y-81238095D01*
X192002438Y-81238095D02*
X192050057Y-81190476D01*
X192050057Y-81190476D02*
X192145295Y-81142857D01*
X192145295Y-81142857D02*
X192240533Y-81142857D01*
X192240533Y-81142857D02*
X192383390Y-81190476D01*
X192383390Y-81190476D02*
X192954819Y-81761904D01*
X192954819Y-81761904D02*
X192954819Y-81142857D01*
X192383390Y-80571428D02*
X192335771Y-80666666D01*
X192335771Y-80666666D02*
X192288152Y-80714285D01*
X192288152Y-80714285D02*
X192192914Y-80761904D01*
X192192914Y-80761904D02*
X192145295Y-80761904D01*
X192145295Y-80761904D02*
X192050057Y-80714285D01*
X192050057Y-80714285D02*
X192002438Y-80666666D01*
X192002438Y-80666666D02*
X191954819Y-80571428D01*
X191954819Y-80571428D02*
X191954819Y-80380952D01*
X191954819Y-80380952D02*
X192002438Y-80285714D01*
X192002438Y-80285714D02*
X192050057Y-80238095D01*
X192050057Y-80238095D02*
X192145295Y-80190476D01*
X192145295Y-80190476D02*
X192192914Y-80190476D01*
X192192914Y-80190476D02*
X192288152Y-80238095D01*
X192288152Y-80238095D02*
X192335771Y-80285714D01*
X192335771Y-80285714D02*
X192383390Y-80380952D01*
X192383390Y-80380952D02*
X192383390Y-80571428D01*
X192383390Y-80571428D02*
X192431009Y-80666666D01*
X192431009Y-80666666D02*
X192478628Y-80714285D01*
X192478628Y-80714285D02*
X192573866Y-80761904D01*
X192573866Y-80761904D02*
X192764342Y-80761904D01*
X192764342Y-80761904D02*
X192859580Y-80714285D01*
X192859580Y-80714285D02*
X192907200Y-80666666D01*
X192907200Y-80666666D02*
X192954819Y-80571428D01*
X192954819Y-80571428D02*
X192954819Y-80380952D01*
X192954819Y-80380952D02*
X192907200Y-80285714D01*
X192907200Y-80285714D02*
X192859580Y-80238095D01*
X192859580Y-80238095D02*
X192764342Y-80190476D01*
X192764342Y-80190476D02*
X192573866Y-80190476D01*
X192573866Y-80190476D02*
X192478628Y-80238095D01*
X192478628Y-80238095D02*
X192431009Y-80285714D01*
X192431009Y-80285714D02*
X192383390Y-80380952D01*
X191954819Y-79571428D02*
X191954819Y-79476190D01*
X191954819Y-79476190D02*
X192002438Y-79380952D01*
X192002438Y-79380952D02*
X192050057Y-79333333D01*
X192050057Y-79333333D02*
X192145295Y-79285714D01*
X192145295Y-79285714D02*
X192335771Y-79238095D01*
X192335771Y-79238095D02*
X192573866Y-79238095D01*
X192573866Y-79238095D02*
X192764342Y-79285714D01*
X192764342Y-79285714D02*
X192859580Y-79333333D01*
X192859580Y-79333333D02*
X192907200Y-79380952D01*
X192907200Y-79380952D02*
X192954819Y-79476190D01*
X192954819Y-79476190D02*
X192954819Y-79571428D01*
X192954819Y-79571428D02*
X192907200Y-79666666D01*
X192907200Y-79666666D02*
X192859580Y-79714285D01*
X192859580Y-79714285D02*
X192764342Y-79761904D01*
X192764342Y-79761904D02*
X192573866Y-79809523D01*
X192573866Y-79809523D02*
X192335771Y-79809523D01*
X192335771Y-79809523D02*
X192145295Y-79761904D01*
X192145295Y-79761904D02*
X192050057Y-79714285D01*
X192050057Y-79714285D02*
X192002438Y-79666666D01*
X192002438Y-79666666D02*
X191954819Y-79571428D01*
X178423333Y-102644819D02*
X177947143Y-102644819D01*
X177947143Y-102644819D02*
X177947143Y-101644819D01*
X179280476Y-102644819D02*
X178709048Y-102644819D01*
X178994762Y-102644819D02*
X178994762Y-101644819D01*
X178994762Y-101644819D02*
X178899524Y-101787676D01*
X178899524Y-101787676D02*
X178804286Y-101882914D01*
X178804286Y-101882914D02*
X178709048Y-101930533D01*
X165477142Y-90514819D02*
X165143809Y-90038628D01*
X164905714Y-90514819D02*
X164905714Y-89514819D01*
X164905714Y-89514819D02*
X165286666Y-89514819D01*
X165286666Y-89514819D02*
X165381904Y-89562438D01*
X165381904Y-89562438D02*
X165429523Y-89610057D01*
X165429523Y-89610057D02*
X165477142Y-89705295D01*
X165477142Y-89705295D02*
X165477142Y-89848152D01*
X165477142Y-89848152D02*
X165429523Y-89943390D01*
X165429523Y-89943390D02*
X165381904Y-89991009D01*
X165381904Y-89991009D02*
X165286666Y-90038628D01*
X165286666Y-90038628D02*
X164905714Y-90038628D01*
X166429523Y-90514819D02*
X165858095Y-90514819D01*
X166143809Y-90514819D02*
X166143809Y-89514819D01*
X166143809Y-89514819D02*
X166048571Y-89657676D01*
X166048571Y-89657676D02*
X165953333Y-89752914D01*
X165953333Y-89752914D02*
X165858095Y-89800533D01*
X167381904Y-90514819D02*
X166810476Y-90514819D01*
X167096190Y-90514819D02*
X167096190Y-89514819D01*
X167096190Y-89514819D02*
X167000952Y-89657676D01*
X167000952Y-89657676D02*
X166905714Y-89752914D01*
X166905714Y-89752914D02*
X166810476Y-89800533D01*
X188767142Y-105439580D02*
X188719523Y-105487200D01*
X188719523Y-105487200D02*
X188576666Y-105534819D01*
X188576666Y-105534819D02*
X188481428Y-105534819D01*
X188481428Y-105534819D02*
X188338571Y-105487200D01*
X188338571Y-105487200D02*
X188243333Y-105391961D01*
X188243333Y-105391961D02*
X188195714Y-105296723D01*
X188195714Y-105296723D02*
X188148095Y-105106247D01*
X188148095Y-105106247D02*
X188148095Y-104963390D01*
X188148095Y-104963390D02*
X188195714Y-104772914D01*
X188195714Y-104772914D02*
X188243333Y-104677676D01*
X188243333Y-104677676D02*
X188338571Y-104582438D01*
X188338571Y-104582438D02*
X188481428Y-104534819D01*
X188481428Y-104534819D02*
X188576666Y-104534819D01*
X188576666Y-104534819D02*
X188719523Y-104582438D01*
X188719523Y-104582438D02*
X188767142Y-104630057D01*
X189719523Y-105534819D02*
X189148095Y-105534819D01*
X189433809Y-105534819D02*
X189433809Y-104534819D01*
X189433809Y-104534819D02*
X189338571Y-104677676D01*
X189338571Y-104677676D02*
X189243333Y-104772914D01*
X189243333Y-104772914D02*
X189148095Y-104820533D01*
X190100476Y-104630057D02*
X190148095Y-104582438D01*
X190148095Y-104582438D02*
X190243333Y-104534819D01*
X190243333Y-104534819D02*
X190481428Y-104534819D01*
X190481428Y-104534819D02*
X190576666Y-104582438D01*
X190576666Y-104582438D02*
X190624285Y-104630057D01*
X190624285Y-104630057D02*
X190671904Y-104725295D01*
X190671904Y-104725295D02*
X190671904Y-104820533D01*
X190671904Y-104820533D02*
X190624285Y-104963390D01*
X190624285Y-104963390D02*
X190052857Y-105534819D01*
X190052857Y-105534819D02*
X190671904Y-105534819D01*
X186274819Y-80646666D02*
X185798628Y-80979999D01*
X186274819Y-81218094D02*
X185274819Y-81218094D01*
X185274819Y-81218094D02*
X185274819Y-80837142D01*
X185274819Y-80837142D02*
X185322438Y-80741904D01*
X185322438Y-80741904D02*
X185370057Y-80694285D01*
X185370057Y-80694285D02*
X185465295Y-80646666D01*
X185465295Y-80646666D02*
X185608152Y-80646666D01*
X185608152Y-80646666D02*
X185703390Y-80694285D01*
X185703390Y-80694285D02*
X185751009Y-80741904D01*
X185751009Y-80741904D02*
X185798628Y-80837142D01*
X185798628Y-80837142D02*
X185798628Y-81218094D01*
X185274819Y-80313332D02*
X185274819Y-79646666D01*
X185274819Y-79646666D02*
X186274819Y-80075237D01*
X176083333Y-94204819D02*
X175750000Y-93728628D01*
X175511905Y-94204819D02*
X175511905Y-93204819D01*
X175511905Y-93204819D02*
X175892857Y-93204819D01*
X175892857Y-93204819D02*
X175988095Y-93252438D01*
X175988095Y-93252438D02*
X176035714Y-93300057D01*
X176035714Y-93300057D02*
X176083333Y-93395295D01*
X176083333Y-93395295D02*
X176083333Y-93538152D01*
X176083333Y-93538152D02*
X176035714Y-93633390D01*
X176035714Y-93633390D02*
X175988095Y-93681009D01*
X175988095Y-93681009D02*
X175892857Y-93728628D01*
X175892857Y-93728628D02*
X175511905Y-93728628D01*
X176654762Y-93633390D02*
X176559524Y-93585771D01*
X176559524Y-93585771D02*
X176511905Y-93538152D01*
X176511905Y-93538152D02*
X176464286Y-93442914D01*
X176464286Y-93442914D02*
X176464286Y-93395295D01*
X176464286Y-93395295D02*
X176511905Y-93300057D01*
X176511905Y-93300057D02*
X176559524Y-93252438D01*
X176559524Y-93252438D02*
X176654762Y-93204819D01*
X176654762Y-93204819D02*
X176845238Y-93204819D01*
X176845238Y-93204819D02*
X176940476Y-93252438D01*
X176940476Y-93252438D02*
X176988095Y-93300057D01*
X176988095Y-93300057D02*
X177035714Y-93395295D01*
X177035714Y-93395295D02*
X177035714Y-93442914D01*
X177035714Y-93442914D02*
X176988095Y-93538152D01*
X176988095Y-93538152D02*
X176940476Y-93585771D01*
X176940476Y-93585771D02*
X176845238Y-93633390D01*
X176845238Y-93633390D02*
X176654762Y-93633390D01*
X176654762Y-93633390D02*
X176559524Y-93681009D01*
X176559524Y-93681009D02*
X176511905Y-93728628D01*
X176511905Y-93728628D02*
X176464286Y-93823866D01*
X176464286Y-93823866D02*
X176464286Y-94014342D01*
X176464286Y-94014342D02*
X176511905Y-94109580D01*
X176511905Y-94109580D02*
X176559524Y-94157200D01*
X176559524Y-94157200D02*
X176654762Y-94204819D01*
X176654762Y-94204819D02*
X176845238Y-94204819D01*
X176845238Y-94204819D02*
X176940476Y-94157200D01*
X176940476Y-94157200D02*
X176988095Y-94109580D01*
X176988095Y-94109580D02*
X177035714Y-94014342D01*
X177035714Y-94014342D02*
X177035714Y-93823866D01*
X177035714Y-93823866D02*
X176988095Y-93728628D01*
X176988095Y-93728628D02*
X176940476Y-93681009D01*
X176940476Y-93681009D02*
X176845238Y-93633390D01*
X172654819Y-103566666D02*
X172178628Y-103899999D01*
X172654819Y-104138094D02*
X171654819Y-104138094D01*
X171654819Y-104138094D02*
X171654819Y-103757142D01*
X171654819Y-103757142D02*
X171702438Y-103661904D01*
X171702438Y-103661904D02*
X171750057Y-103614285D01*
X171750057Y-103614285D02*
X171845295Y-103566666D01*
X171845295Y-103566666D02*
X171988152Y-103566666D01*
X171988152Y-103566666D02*
X172083390Y-103614285D01*
X172083390Y-103614285D02*
X172131009Y-103661904D01*
X172131009Y-103661904D02*
X172178628Y-103757142D01*
X172178628Y-103757142D02*
X172178628Y-104138094D01*
X171750057Y-103185713D02*
X171702438Y-103138094D01*
X171702438Y-103138094D02*
X171654819Y-103042856D01*
X171654819Y-103042856D02*
X171654819Y-102804761D01*
X171654819Y-102804761D02*
X171702438Y-102709523D01*
X171702438Y-102709523D02*
X171750057Y-102661904D01*
X171750057Y-102661904D02*
X171845295Y-102614285D01*
X171845295Y-102614285D02*
X171940533Y-102614285D01*
X171940533Y-102614285D02*
X172083390Y-102661904D01*
X172083390Y-102661904D02*
X172654819Y-103233332D01*
X172654819Y-103233332D02*
X172654819Y-102614285D01*
X188833333Y-77454819D02*
X188500000Y-76978628D01*
X188261905Y-77454819D02*
X188261905Y-76454819D01*
X188261905Y-76454819D02*
X188642857Y-76454819D01*
X188642857Y-76454819D02*
X188738095Y-76502438D01*
X188738095Y-76502438D02*
X188785714Y-76550057D01*
X188785714Y-76550057D02*
X188833333Y-76645295D01*
X188833333Y-76645295D02*
X188833333Y-76788152D01*
X188833333Y-76788152D02*
X188785714Y-76883390D01*
X188785714Y-76883390D02*
X188738095Y-76931009D01*
X188738095Y-76931009D02*
X188642857Y-76978628D01*
X188642857Y-76978628D02*
X188261905Y-76978628D01*
X189690476Y-76454819D02*
X189500000Y-76454819D01*
X189500000Y-76454819D02*
X189404762Y-76502438D01*
X189404762Y-76502438D02*
X189357143Y-76550057D01*
X189357143Y-76550057D02*
X189261905Y-76692914D01*
X189261905Y-76692914D02*
X189214286Y-76883390D01*
X189214286Y-76883390D02*
X189214286Y-77264342D01*
X189214286Y-77264342D02*
X189261905Y-77359580D01*
X189261905Y-77359580D02*
X189309524Y-77407200D01*
X189309524Y-77407200D02*
X189404762Y-77454819D01*
X189404762Y-77454819D02*
X189595238Y-77454819D01*
X189595238Y-77454819D02*
X189690476Y-77407200D01*
X189690476Y-77407200D02*
X189738095Y-77359580D01*
X189738095Y-77359580D02*
X189785714Y-77264342D01*
X189785714Y-77264342D02*
X189785714Y-77026247D01*
X189785714Y-77026247D02*
X189738095Y-76931009D01*
X189738095Y-76931009D02*
X189690476Y-76883390D01*
X189690476Y-76883390D02*
X189595238Y-76835771D01*
X189595238Y-76835771D02*
X189404762Y-76835771D01*
X189404762Y-76835771D02*
X189309524Y-76883390D01*
X189309524Y-76883390D02*
X189261905Y-76931009D01*
X189261905Y-76931009D02*
X189214286Y-77026247D01*
X165457142Y-102349580D02*
X165409523Y-102397200D01*
X165409523Y-102397200D02*
X165266666Y-102444819D01*
X165266666Y-102444819D02*
X165171428Y-102444819D01*
X165171428Y-102444819D02*
X165028571Y-102397200D01*
X165028571Y-102397200D02*
X164933333Y-102301961D01*
X164933333Y-102301961D02*
X164885714Y-102206723D01*
X164885714Y-102206723D02*
X164838095Y-102016247D01*
X164838095Y-102016247D02*
X164838095Y-101873390D01*
X164838095Y-101873390D02*
X164885714Y-101682914D01*
X164885714Y-101682914D02*
X164933333Y-101587676D01*
X164933333Y-101587676D02*
X165028571Y-101492438D01*
X165028571Y-101492438D02*
X165171428Y-101444819D01*
X165171428Y-101444819D02*
X165266666Y-101444819D01*
X165266666Y-101444819D02*
X165409523Y-101492438D01*
X165409523Y-101492438D02*
X165457142Y-101540057D01*
X166409523Y-102444819D02*
X165838095Y-102444819D01*
X166123809Y-102444819D02*
X166123809Y-101444819D01*
X166123809Y-101444819D02*
X166028571Y-101587676D01*
X166028571Y-101587676D02*
X165933333Y-101682914D01*
X165933333Y-101682914D02*
X165838095Y-101730533D01*
X167314285Y-101444819D02*
X166838095Y-101444819D01*
X166838095Y-101444819D02*
X166790476Y-101921009D01*
X166790476Y-101921009D02*
X166838095Y-101873390D01*
X166838095Y-101873390D02*
X166933333Y-101825771D01*
X166933333Y-101825771D02*
X167171428Y-101825771D01*
X167171428Y-101825771D02*
X167266666Y-101873390D01*
X167266666Y-101873390D02*
X167314285Y-101921009D01*
X167314285Y-101921009D02*
X167361904Y-102016247D01*
X167361904Y-102016247D02*
X167361904Y-102254342D01*
X167361904Y-102254342D02*
X167314285Y-102349580D01*
X167314285Y-102349580D02*
X167266666Y-102397200D01*
X167266666Y-102397200D02*
X167171428Y-102444819D01*
X167171428Y-102444819D02*
X166933333Y-102444819D01*
X166933333Y-102444819D02*
X166838095Y-102397200D01*
X166838095Y-102397200D02*
X166790476Y-102349580D01*
X165227142Y-99359580D02*
X165179523Y-99407200D01*
X165179523Y-99407200D02*
X165036666Y-99454819D01*
X165036666Y-99454819D02*
X164941428Y-99454819D01*
X164941428Y-99454819D02*
X164798571Y-99407200D01*
X164798571Y-99407200D02*
X164703333Y-99311961D01*
X164703333Y-99311961D02*
X164655714Y-99216723D01*
X164655714Y-99216723D02*
X164608095Y-99026247D01*
X164608095Y-99026247D02*
X164608095Y-98883390D01*
X164608095Y-98883390D02*
X164655714Y-98692914D01*
X164655714Y-98692914D02*
X164703333Y-98597676D01*
X164703333Y-98597676D02*
X164798571Y-98502438D01*
X164798571Y-98502438D02*
X164941428Y-98454819D01*
X164941428Y-98454819D02*
X165036666Y-98454819D01*
X165036666Y-98454819D02*
X165179523Y-98502438D01*
X165179523Y-98502438D02*
X165227142Y-98550057D01*
X166179523Y-99454819D02*
X165608095Y-99454819D01*
X165893809Y-99454819D02*
X165893809Y-98454819D01*
X165893809Y-98454819D02*
X165798571Y-98597676D01*
X165798571Y-98597676D02*
X165703333Y-98692914D01*
X165703333Y-98692914D02*
X165608095Y-98740533D01*
X167036666Y-98788152D02*
X167036666Y-99454819D01*
X166798571Y-98407200D02*
X166560476Y-99121485D01*
X166560476Y-99121485D02*
X167179523Y-99121485D01*
X164669580Y-87296666D02*
X164717200Y-87344285D01*
X164717200Y-87344285D02*
X164764819Y-87487142D01*
X164764819Y-87487142D02*
X164764819Y-87582380D01*
X164764819Y-87582380D02*
X164717200Y-87725237D01*
X164717200Y-87725237D02*
X164621961Y-87820475D01*
X164621961Y-87820475D02*
X164526723Y-87868094D01*
X164526723Y-87868094D02*
X164336247Y-87915713D01*
X164336247Y-87915713D02*
X164193390Y-87915713D01*
X164193390Y-87915713D02*
X164002914Y-87868094D01*
X164002914Y-87868094D02*
X163907676Y-87820475D01*
X163907676Y-87820475D02*
X163812438Y-87725237D01*
X163812438Y-87725237D02*
X163764819Y-87582380D01*
X163764819Y-87582380D02*
X163764819Y-87487142D01*
X163764819Y-87487142D02*
X163812438Y-87344285D01*
X163812438Y-87344285D02*
X163860057Y-87296666D01*
X163764819Y-86963332D02*
X163764819Y-86296666D01*
X163764819Y-86296666D02*
X164764819Y-86725237D01*
X181107142Y-78454819D02*
X180773809Y-77978628D01*
X180535714Y-78454819D02*
X180535714Y-77454819D01*
X180535714Y-77454819D02*
X180916666Y-77454819D01*
X180916666Y-77454819D02*
X181011904Y-77502438D01*
X181011904Y-77502438D02*
X181059523Y-77550057D01*
X181059523Y-77550057D02*
X181107142Y-77645295D01*
X181107142Y-77645295D02*
X181107142Y-77788152D01*
X181107142Y-77788152D02*
X181059523Y-77883390D01*
X181059523Y-77883390D02*
X181011904Y-77931009D01*
X181011904Y-77931009D02*
X180916666Y-77978628D01*
X180916666Y-77978628D02*
X180535714Y-77978628D01*
X182059523Y-78454819D02*
X181488095Y-78454819D01*
X181773809Y-78454819D02*
X181773809Y-77454819D01*
X181773809Y-77454819D02*
X181678571Y-77597676D01*
X181678571Y-77597676D02*
X181583333Y-77692914D01*
X181583333Y-77692914D02*
X181488095Y-77740533D01*
X182678571Y-77454819D02*
X182773809Y-77454819D01*
X182773809Y-77454819D02*
X182869047Y-77502438D01*
X182869047Y-77502438D02*
X182916666Y-77550057D01*
X182916666Y-77550057D02*
X182964285Y-77645295D01*
X182964285Y-77645295D02*
X183011904Y-77835771D01*
X183011904Y-77835771D02*
X183011904Y-78073866D01*
X183011904Y-78073866D02*
X182964285Y-78264342D01*
X182964285Y-78264342D02*
X182916666Y-78359580D01*
X182916666Y-78359580D02*
X182869047Y-78407200D01*
X182869047Y-78407200D02*
X182773809Y-78454819D01*
X182773809Y-78454819D02*
X182678571Y-78454819D01*
X182678571Y-78454819D02*
X182583333Y-78407200D01*
X182583333Y-78407200D02*
X182535714Y-78359580D01*
X182535714Y-78359580D02*
X182488095Y-78264342D01*
X182488095Y-78264342D02*
X182440476Y-78073866D01*
X182440476Y-78073866D02*
X182440476Y-77835771D01*
X182440476Y-77835771D02*
X182488095Y-77645295D01*
X182488095Y-77645295D02*
X182535714Y-77550057D01*
X182535714Y-77550057D02*
X182583333Y-77502438D01*
X182583333Y-77502438D02*
X182678571Y-77454819D01*
D11*
%TO.C,C9*%
X169490000Y-81008767D02*
X169490000Y-80716233D01*
X170510000Y-81008767D02*
X170510000Y-80716233D01*
%TO.C,NRF24L01+1*%
X179590000Y-97390000D02*
X180315000Y-97390000D01*
X179590000Y-98115000D02*
X179590000Y-97390000D01*
X179590000Y-100885000D02*
X179590000Y-101610000D01*
X179590000Y-101610000D02*
X180315000Y-101610000D01*
X183085000Y-97390000D02*
X183570000Y-97390000D01*
X183810000Y-98115000D02*
X183810000Y-97690000D01*
X183810000Y-100885000D02*
X183810000Y-101610000D01*
X183810000Y-101610000D02*
X183085000Y-101610000D01*
X184140000Y-97630000D02*
X183810000Y-97390000D01*
X184140000Y-97150000D01*
X184140000Y-97630000D01*
G36*
X184140000Y-97630000D02*
G01*
X183810000Y-97390000D01*
X184140000Y-97150000D01*
X184140000Y-97630000D01*
G37*
%TO.C,L2*%
X180002700Y-103380000D02*
X179802300Y-103380000D01*
X180002700Y-104100000D02*
X179802300Y-104100000D01*
%TO.C,R1*%
X188157776Y-99602500D02*
X188667224Y-99602500D01*
X188157776Y-100647500D02*
X188667224Y-100647500D01*
%TO.C,C4*%
X188883767Y-84577500D02*
X188591233Y-84577500D01*
X188883767Y-85597500D02*
X188591233Y-85597500D01*
%TO.C,R5*%
X174254724Y-79477500D02*
X173745276Y-79477500D01*
X174254724Y-80522500D02*
X173745276Y-80522500D01*
%TO.C,C1*%
X163408767Y-81565000D02*
X163116233Y-81565000D01*
X163408767Y-82585000D02*
X163116233Y-82585000D01*
%TO.C,C3*%
X186108767Y-101415000D02*
X185816233Y-101415000D01*
X186108767Y-102435000D02*
X185816233Y-102435000D01*
%TO.C,C11*%
X178000000Y-105843335D02*
X178000000Y-105611665D01*
X178720000Y-105843335D02*
X178720000Y-105611665D01*
%TO.C,C5*%
X182840000Y-105501665D02*
X182840000Y-105733335D01*
X183560000Y-105501665D02*
X183560000Y-105733335D01*
%TO.C,J2*%
X168590000Y-74330000D02*
X168590000Y-73000000D01*
X169920000Y-74330000D02*
X168590000Y-74330000D01*
X171190000Y-71670000D02*
X186490000Y-71670000D01*
X171190000Y-74330000D02*
X171190000Y-71670000D01*
X171190000Y-74330000D02*
X186490000Y-74330000D01*
X186490000Y-74330000D02*
X186490000Y-71670000D01*
%TO.C,C13*%
X186608767Y-97365000D02*
X186316233Y-97365000D01*
X186608767Y-98385000D02*
X186316233Y-98385000D01*
%TO.C,R9*%
X173452776Y-75477500D02*
X173962224Y-75477500D01*
X173452776Y-76522500D02*
X173962224Y-76522500D01*
%TO.C,STM32F030R8*%
X173990000Y-82565000D02*
X173990000Y-82865000D01*
X173990000Y-89785000D02*
X173990000Y-89485000D01*
X174290000Y-82565000D02*
X173990000Y-82565000D01*
X174290000Y-89785000D02*
X173990000Y-89785000D01*
X180910000Y-82565000D02*
X181210000Y-82565000D01*
X180910000Y-89785000D02*
X181210000Y-89785000D01*
X181210000Y-82565000D02*
X181210000Y-82865000D01*
X181210000Y-89785000D02*
X181210000Y-89485000D01*
X173387500Y-82865000D02*
X173047500Y-82395000D01*
X173727500Y-82395000D01*
X173387500Y-82865000D01*
G36*
X173387500Y-82865000D02*
G01*
X173047500Y-82395000D01*
X173727500Y-82395000D01*
X173387500Y-82865000D01*
G37*
%TO.C,C2*%
X163408767Y-79565000D02*
X163116233Y-79565000D01*
X163408767Y-80585000D02*
X163116233Y-80585000D01*
%TO.C,C6*%
X183656665Y-107080000D02*
X183888335Y-107080000D01*
X183656665Y-107800000D02*
X183888335Y-107800000D01*
%TO.C,UART1*%
X168670000Y-85670000D02*
X170000000Y-85670000D01*
X168670000Y-87000000D02*
X168670000Y-85670000D01*
X168670000Y-88270000D02*
X168670000Y-93410000D01*
X168670000Y-88270000D02*
X171330000Y-88270000D01*
X168670000Y-93410000D02*
X171330000Y-93410000D01*
X171330000Y-88270000D02*
X171330000Y-93410000D01*
D12*
%TO.C,Y1*%
X173325000Y-98725000D02*
X173325000Y-101525000D01*
X177325000Y-101525000D02*
X177325000Y-98725000D01*
X173325000Y-98725000D02*
G75*
G02*
X175325000Y-96825000I1949999J-49999D01*
G01*
X175325000Y-96825000D02*
G75*
G02*
X177325000Y-98725000I50001J-1949999D01*
G01*
X175325000Y-103425000D02*
G75*
G02*
X173325000Y-101525000I-50000J1950000D01*
G01*
X177325000Y-101525000D02*
G75*
G02*
X175325000Y-103425000I-1950000J50000D01*
G01*
D11*
%TO.C,C8*%
X186283767Y-75490000D02*
X185991233Y-75490000D01*
X186283767Y-76510000D02*
X185991233Y-76510000D01*
%TO.C,C10*%
X179230000Y-105793335D02*
X179230000Y-105561665D01*
X179950000Y-105793335D02*
X179950000Y-105561665D01*
%TO.C,R4*%
X173745276Y-77477500D02*
X174254724Y-77477500D01*
X173745276Y-78522500D02*
X174254724Y-78522500D01*
%TO.C,R3*%
X167477500Y-80657776D02*
X167477500Y-81167224D01*
X168522500Y-80657776D02*
X168522500Y-81167224D01*
%TO.C,U5*%
X160740000Y-75887500D02*
X160740000Y-75087500D01*
X160740000Y-75887500D02*
X160740000Y-76687500D01*
X163860000Y-75887500D02*
X163860000Y-75087500D01*
X163860000Y-75887500D02*
X163860000Y-76687500D01*
X164140000Y-74827500D02*
X163810000Y-74587500D01*
X164140000Y-74347500D01*
X164140000Y-74827500D01*
G36*
X164140000Y-74827500D02*
G01*
X163810000Y-74587500D01*
X164140000Y-74347500D01*
X164140000Y-74827500D01*
G37*
%TO.C,L3*%
X182432700Y-103370000D02*
X182232300Y-103370000D01*
X182432700Y-104090000D02*
X182232300Y-104090000D01*
D13*
%TO.C,BME280*%
X187500000Y-80712500D02*
X187650000Y-80712500D01*
X187500000Y-80862500D02*
X187500000Y-80712500D01*
X190200000Y-80712500D02*
X190050000Y-80712500D01*
X190200000Y-80712500D02*
X190200000Y-80862500D01*
X190200000Y-83412500D02*
X190050000Y-83412500D01*
X190210000Y-83412500D02*
X190210000Y-83262500D01*
D11*
X187500000Y-83772500D02*
X187140000Y-83412500D01*
X187500000Y-83412500D01*
X187500000Y-83772500D01*
G36*
X187500000Y-83772500D02*
G01*
X187140000Y-83412500D01*
X187500000Y-83412500D01*
X187500000Y-83772500D01*
G37*
%TO.C,L1*%
X181092300Y-102260000D02*
X181292700Y-102260000D01*
X181092300Y-102980000D02*
X181292700Y-102980000D01*
%TO.C,R11*%
X164342224Y-92477500D02*
X163832776Y-92477500D01*
X164342224Y-93522500D02*
X163832776Y-93522500D01*
%TO.C,C12*%
X184836665Y-104700000D02*
X185068335Y-104700000D01*
X184836665Y-105420000D02*
X185068335Y-105420000D01*
%TO.C,J1*%
X156405000Y-95950000D02*
X156405000Y-85670000D01*
X159005000Y-93350000D02*
X159005000Y-95950000D01*
X159005000Y-95950000D02*
X156405000Y-95950000D01*
X161605000Y-85670000D02*
X156405000Y-85670000D01*
X161605000Y-93350000D02*
X159005000Y-93350000D01*
X161605000Y-93350000D02*
X161605000Y-85670000D01*
X161605000Y-94620000D02*
X161605000Y-95950000D01*
X161605000Y-95950000D02*
X160275000Y-95950000D01*
%TO.C,R7*%
X185302500Y-83167224D02*
X185302500Y-82657776D01*
X186347500Y-83167224D02*
X186347500Y-82657776D01*
%TO.C,R8*%
X173477500Y-94657776D02*
X173477500Y-95167224D01*
X174522500Y-94657776D02*
X174522500Y-95167224D01*
%TO.C,R2*%
X171757500Y-100092776D02*
X171757500Y-100602224D01*
X172802500Y-100092776D02*
X172802500Y-100602224D01*
%TO.C,R6*%
X189167224Y-78477500D02*
X188657776Y-78477500D01*
X189167224Y-79522500D02*
X188657776Y-79522500D01*
%TO.C,C15*%
X170033767Y-100830000D02*
X169741233Y-100830000D01*
X170033767Y-101850000D02*
X169741233Y-101850000D01*
%TO.C,C14*%
X170033767Y-98990000D02*
X169741233Y-98990000D01*
X170033767Y-100010000D02*
X169741233Y-100010000D01*
%TO.C,C7*%
X162990000Y-89716233D02*
X162990000Y-90008767D01*
X164010000Y-89716233D02*
X164010000Y-90008767D01*
%TO.C,R10*%
X180342224Y-75477500D02*
X179832776Y-75477500D01*
X180342224Y-76522500D02*
X179832776Y-76522500D01*
%TD*%
M02*
